{
.appVersion = "1356";
DisplayStrings = (
"/_v_stem_uc/_h_stem_UC/_round_UC/_P_UC/_U-round-UC/_double_diag_UC \012AHOEFJUTQPRCGVBDIKLMNSUVWXYZ",
"/_v_stem_uc/_h_stem_UC/_round_UC/_P_UC/_U-round-UC/_double_diag_UC/_figure_round \012H",
"/_v_stem_uc/_h_stem_UC/_round_UC/_P_UC/_U-round-UC/_double_diag_UC/_figure_round \012HHIHHHHHHI\012/_v_stem_uc HHOHHOHHHHHHN",
"/_v_stem_uc/_h_stem_UC/_round_UC/_P_UC/_U-round-UC/_double_diag_UC/_figure_round/_v_stem_lc/_h_stem_lc/_p_round_lc/_o_round_lc \012hihohqcgdhehfhpr/_u_round_lc juavbkhlh\012hmnstuvwxyz\012Hi/space Hello",
"/_v_stem_lc/_v_stem_uc/_h_stem_lc/_h_stem_UC/_P_UC/_round_UC/_double_diag_UC/_U-round-UC/_figure_round/_o_round_lc/_p_round_lc/_u_round_lc \012SHH\012r/_white_circle tmt",
HNM,
"/_v_stem_uc/_h_stem_UC \012/dieresiscomb.case/acutecomb.case/gravecomb.case/circumflexcomb.case/ringcomb.case/tildecomb.case/cedillacomb.case ÑÇAÂEÊÅÁÈË\012/tildecomb/dieresiscomb/gravecomb/acutecomb/circumflexcomb/ringcomb/cedillacomb eêeèëåçñ\012Øøh/_h_stem_UC AÆ/OE Þaeæð/oe pþbhe/_v_stem_lc ßE/Germandbls B",
"A/acutecomb.case ÁÂÄÀÅÃÆÇÐEÉÊËÈI/acutecomb.case Í/space Ì/space Î\012ÏÑO/acutecomb.case ÓÔÖÒØÕ/OE Þ/Germandbls UÚÛÜÙYÝaáâäàåãæçðéêëè/idotless íîïìñóôöòøõ/oe þßúûüùý/ydieresis",
"høgh/space heiß\012HØGH/space Høgh\012HEI/Germandbls/space Heiß\012\012",
"HHHHH\012HHHHH",
"HHHHHHHHHHH\012CS/_v_stem_uc/_U-round-UC J/_P_UC",
KHHH,
"/space/nbspace/_v_stem_lc nn/space nn/space nn/space/space/space",
"/dotaccentcomb",
"/circumflexcomb",
"/circumflex",
"/_v_stem_uc/_h_stem_UC L",
"/_v_stem_uc",
"",
"",
"",
"",
"",
"/sterling.case",
"/exclamdown.case",
"/guillemetleft.case",
"/guillemetright.case",
"/guilsinglright.case",
"/zero.case",
"/onesuperior.case",
"/twosuperior.case",
"/period.case",
"/foursuperior.case",
"/comma.case",
"/colon.case",
"/semicolon.case",
"/ellipsis.case",
"/periodcentered.case",
"/bracketright.case",
"/parenleft.case",
"/backslash.case",
"/questiondown.cases",
"/endash.case",
"/emdash.case",

glyphs = (
{
color = 7;
glyphname = exclam;
lastChange = "2021-03-20 13:51:49 +0000";
layers = (
{
background = {
components = (
{
alignment = -1;
name = _v_stem_uc;
transform = "{1, 0, 0, 0.72637, 10, 220}";
},
{
name = _v_stem_uc;
transform = "{1, 0, 0, 0.2057, 10, 0}";
}
);
};
layerId = master01;
paths = (
{
closed = 1;
nodes = (
"146 110 LINE",
"146 402 LINE",
"116 402 LINE",
"116 110 LINE"
);
},
{
closed = 1;
nodes = (
"80 110 LINE",
"80 402 LINE",
"50 402 LINE",
"50 110 LINE"
);
},
{
closed = 1;
nodes = (
"146 0 LINE",
"146 82.691 LINE",
"116 82.691 LINE",
"116 0 LINE"
);
},
{
closed = 1;
nodes = (
"80 0 LINE",
"80 82.691 LINE",
"50 82.691 LINE",
"50 0 LINE"
);
}
);
width = 196;
},
{
associatedMasterId = master01;
layerId = "22F64B49-DDFF-42C4-B4FB-2FD7EC9DA3F4";
name = "Jul 18 20, 10:48";
paths = (
{
closed = 1;
nodes = (
"183 222 LINE",
"183 804 LINE",
"214 804 LINE",
"214 222 LINE"
);
},
{
closed = 1;
nodes = (
"116 222 LINE",
"116 804 LINE",
"147 804 LINE",
"147 222 LINE"
);
},
{
closed = 1;
nodes = (
"50 222 LINE",
"50 804 LINE",
"81 804 LINE",
"81 222 LINE"
);
},
{
closed = 1;
nodes = (
"183 0 LINE",
"183 164 LINE",
"214 164 LINE",
"214 0 LINE"
);
},
{
closed = 1;
nodes = (
"116 0 LINE",
"116 164 LINE",
"147 164 LINE",
"147 0 LINE"
);
},
{
closed = 1;
nodes = (
"50 0 LINE",
"50 164 LINE",
"81 164 LINE",
"81 0 LINE"
);
}
);
width = 264;
}
);
leftMetricsKey = H;
rightMetricsKey = H;
unicode = 0021;
},
{
color = 7;
glyphname = quotedbl;
lastChange = "2021-03-20 13:51:49 +0000";
layers = (
{
background = {
components = (
{
alignment = -1;
name = _v_stem_uc;
transform = "{1, 0, 0, 0.32592, -74, 542}";
},
{
alignment = -1;
name = _v_stem_uc;
transform = "{1, 0, 0, 0.32592, 178, 542}";
}
);
};
layerId = master01;
paths = (
{
closed = 1;
nodes = (
"121 271 LINE",
"121 402.02 LINE",
"91 402.02 LINE",
"91 271 LINE"
);
},
{
closed = 1;
nodes = (
"55 271 LINE",
"55 402.02 LINE",
"25 402.02 LINE",
"25 271 LINE"
);
},
{
closed = 1;
nodes = (
"277 271 LINE",
"277 402.02 LINE",
"247 402.02 LINE",
"247 271 LINE"
);
},
{
closed = 1;
nodes = (
"211 271 LINE",
"211 402.02 LINE",
"181 402.02 LINE",
"181 271 LINE"
);
}
);
width = 302;
},
{
associatedMasterId = master01;
layerId = "73865464-545E-4864-B4B7-E3FDFDCBE593";
name = "Jul 18 20, 10:48";
paths = (
{
closed = 1;
nodes = (
"439 543 LINE",
"439 804 LINE",
"469 804 LINE",
"469 543 LINE"
);
},
{
closed = 1;
nodes = (
"372 543 LINE",
"372 804 LINE",
"403 804 LINE",
"403 543 LINE"
);
},
{
closed = 1;
nodes = (
"306 543 LINE",
"306 804 LINE",
"337 804 LINE",
"337 543 LINE"
);
},
{
closed = 1;
nodes = (
"183 543 LINE",
"183 804 LINE",
"214 804 LINE",
"214 543 LINE"
);
},
{
closed = 1;
nodes = (
"116 543 LINE",
"116 804 LINE",
"147 804 LINE",
"147 543 LINE"
);
},
{
closed = 1;
nodes = (
"50 543 LINE",
"50 804 LINE",
"81 804 LINE",
"81 543 LINE"
);
}
);
width = 519;
}
);
leftMetricsKey = quotesingle;
rightMetricsKey = quotesingle;
unicode = 0022;
},
{
color = 7;
glyphname = numbersign;
lastChange = "2021-03-20 13:51:49 +0000";
layers = (
{
background = {
paths = (
{
closed = 1;
nodes = (
"-137 0 LINE",
"-107 0 LINE",
"-82 162 LINE",
"-112 162 LINE"
);
},
{
closed = 1;
nodes = (
"-71 0 LINE",
"-41 0 LINE",
"-16 162 LINE",
"-46 162 LINE"
);
},
{
closed = 1;
nodes = (
"-5 0 LINE",
"25 0 LINE",
"50 162 LINE",
"20 162 LINE"
);
},
{
closed = 1;
nodes = (
"156 0 LINE",
"186 0 LINE",
"251 436 LINE",
"221 436 LINE"
);
},
{
closed = 1;
nodes = (
"222 0 LINE",
"252 0 LINE",
"317 436 LINE",
"287 436 LINE"
);
},
{
closed = 1;
nodes = (
"288 0 LINE",
"318 0 LINE",
"383 436 LINE",
"353 436 LINE"
);
},
{
closed = 1;
nodes = (
"491 538 LINE",
"491 568 LINE",
"147 568 LINE",
"142 538 LINE"
);
},
{
closed = 1;
nodes = (
"491 604 LINE",
"491 634 LINE",
"156 634 LINE",
"152 604 LINE"
);
},
{
closed = 1;
nodes = (
"491 472 LINE",
"491 502 LINE",
"137 502 LINE",
"132 472 LINE"
);
},
{
closed = 1;
nodes = (
"450 264 LINE",
"450 294 LINE",
"398 294 LINE",
"393 264 LINE"
);
},
{
closed = 1;
nodes = (
"450 330 LINE",
"450 360 LINE",
"408 360 LINE",
"403 330 LINE"
);
},
{
closed = 1;
nodes = (
"450 198 LINE",
"450 228 LINE",
"388 228 LINE",
"384 198 LINE"
);
},
{
closed = 1;
nodes = (
"306 804 LINE",
"276 804 LINE",
"256 670 LINE",
"286 670 LINE"
);
},
{
closed = 1;
nodes = (
"372 804 LINE",
"342 804 LINE",
"322 670 LINE",
"352 670 LINE"
);
},
{
closed = 1;
nodes = (
"438 804 LINE",
"408 804 LINE",
"388 670 LINE",
"418 670 LINE"
);
},
{
closed = 1;
nodes = (
"13 804 LINE",
"-17 804 LINE",
"-78 396 LINE",
"-48 396 LINE"
);
},
{
closed = 1;
nodes = (
"79 804 LINE",
"49 804 LINE",
"-12 396 LINE",
"18 396 LINE"
);
},
{
closed = 1;
nodes = (
"145 804 LINE",
"115 804 LINE",
"54 396 LINE",
"84 396 LINE"
);
},
{
closed = 1;
nodes = (
"-144 502 LINE",
"-144 472 LINE",
"-103 472 LINE",
"-99 502 LINE"
);
},
{
closed = 1;
nodes = (
"-144 568 LINE",
"-144 538 LINE",
"-94 538 LINE",
"-89 568 LINE"
);
},
{
closed = 1;
nodes = (
"-144 634 LINE",
"-144 604 LINE",
"-84 604 LINE",
"-79 634 LINE"
);
},
{
closed = 1;
nodes = (
"-185 228 LINE",
"-185 198 LINE",
"150 198 LINE",
"155 228 LINE"
);
},
{
closed = 1;
nodes = (
"-185 294 LINE",
"-185 264 LINE",
"160 264 LINE",
"165 294 LINE"
);
},
{
closed = 1;
nodes = (
"-185 360 LINE",
"-185 330 LINE",
"170 330 LINE",
"174 360 LINE"
);
}
);
};
guideLines = (
{
angle = 261.5432;
position = "{392, 254}";
},
{
angle = 261.5432;
position = "{418, 254}";
},
{
angle = 261.5432;
position = "{114, 254}";
},
{
position = "{-16, 82}";
},
{
position = "{-16, 363}";
},
{
position = "{-16, 217}";
},
{
position = "{-16, 57}";
}
);
layerId = master01;
paths = (
{
closed = 1;
nodes = (
"353 -13 LINE",
"387 217 LINE",
"357 217 LINE",
"323 -13 LINE"
);
},
{
closed = 1;
nodes = (
"125 -13 LINE",
"135 57 LINE",
"105 57 LINE",
"95 -13 LINE"
);
},
{
closed = 1;
nodes = (
"191 -13 LINE",
"201 57 LINE",
"171 57 LINE",
"161 -13 LINE"
);
},
{
closed = 1;
nodes = (
"245 82 LINE",
"249 112 LINE",
"50 112 LINE",
"50 82 LINE"
);
},
{
closed = 1;
nodes = (
"254 148 LINE",
"259 178 LINE",
"50 178 LINE",
"50 148 LINE"
);
},
{
closed = 1;
nodes = (
"106 242 LINE",
"111 272 LINE",
"80 272 LINE",
"80 242 LINE"
);
},
{
closed = 1;
nodes = (
"287 -13 LINE",
"321 217 LINE",
"291 217 LINE",
"257 -13 LINE"
);
},
{
closed = 1;
nodes = (
"116 308 LINE",
"120 338 LINE",
"80 338 LINE",
"80 308 LINE"
);
},
{
closed = 1;
nodes = (
"159 217 LINE",
"186 402 LINE",
"156 402 LINE",
"129 217 LINE"
);
},
{
closed = 1;
nodes = (
"433 82 LINE",
"433 112 LINE",
"397 112 LINE",
"392 82 LINE"
);
},
{
closed = 1;
nodes = (
"225 217 LINE",
"252 402 LINE",
"222 402 LINE",
"195 217 LINE"
);
},
{
closed = 1;
nodes = (
"433 148 LINE",
"433 178 LINE",
"407 178 LINE",
"402 148 LINE"
);
},
{
closed = 1;
nodes = (
"463 242 LINE",
"463 272 LINE",
"259 272 LINE",
"254 242 LINE"
);
},
{
closed = 1;
nodes = (
"463 308 LINE",
"463 338 LINE",
"268 338 LINE",
"264 308 LINE"
);
},
{
closed = 1;
nodes = (
"342 363 LINE",
"348 402 LINE",
"318 402 LINE",
"312 363 LINE"
);
},
{
closed = 1;
nodes = (
"408 363 LINE",
"414 402 LINE",
"384 402 LINE",
"378 363 LINE"
);
}
);
width = 513;
},
{
associatedMasterId = master01;
layerId = "553409E0-DE53-4C7F-850E-DA52EB89D173";
name = "Jul 18 20, 14:32";
paths = (
{
closed = 1;
nodes = (
"579 632 LINE",
"548 632 LINE",
"573 804 LINE",
"604 804 LINE"
);
},
{
closed = 1;
nodes = (
"512 632 LINE",
"481 632 LINE",
"506 804 LINE",
"537 804 LINE"
);
},
{
closed = 1;
nodes = (
"714 570 LINE",
"363 570 LINE",
"368 601 LINE",
"719 601 LINE"
);
},
{
closed = 1;
nodes = (
"705 504 LINE",
"353 504 LINE",
"358 534 LINE",
"709 534 LINE"
);
},
{
closed = 1;
nodes = (
"674 296 LINE",
"562 296 LINE",
"566 327 LINE",
"679 327 LINE"
);
},
{
closed = 1;
nodes = (
"301 357 LINE",
"270 357 LINE",
"335 804 LINE",
"366 804 LINE"
);
},
{
closed = 1;
nodes = (
"665 229 LINE",
"552 229 LINE",
"556 260 LINE",
"669 260 LINE"
);
},
{
closed = 1;
nodes = (
"234 357 LINE",
"203 357 LINE",
"268 804 LINE",
"299 804 LINE"
);
},
{
closed = 1;
nodes = (
"487 0 LINE",
"456 0 LINE",
"525 473 LINE",
"556 473 LINE"
);
},
{
closed = 1;
nodes = (
"202 570 LINE",
"90 570 LINE",
"94 601 LINE",
"207 601 LINE"
);
},
{
closed = 1;
nodes = (
"420 0 LINE",
"389 0 LINE",
"458 473 LINE",
"489 473 LINE"
);
},
{
closed = 1;
nodes = (
"193 504 LINE",
"80 504 LINE",
"84 534 LINE",
"197 534 LINE"
);
},
{
closed = 1;
nodes = (
"401 296 LINE",
"50 296 LINE",
"54 327 LINE",
"405 327 LINE"
);
},
{
closed = 1;
nodes = (
"391 229 LINE",
"40 229 LINE",
"44 260 LINE",
"396 260 LINE"
);
},
{
closed = 1;
nodes = (
"249 0 LINE",
"218 0 LINE",
"247 199 LINE",
"278 199 LINE"
);
},
{
closed = 1;
nodes = (
"182 0 LINE",
"151 0 LINE",
"180 199 LINE",
"211 199 LINE"
);
}
);
width = 759;
}
);
leftMetricsKey = H;
rightMetricsKey = H;
unicode = 0023;
},
{
color = 7;
glyphname = dollar;
lastChange = "2021-03-20 13:51:49 +0000";
layers = (
{
anchors = (
{
name = bottom;
position = "{190, 0}";
}
);
background = {
paths = (
{
closed = 1;
nodes = (
"507 737 OFFCURVE",
"575 675 OFFCURVE",
"590 592 CURVE",
"619 600 LINE",
"600 697 OFFCURVE",
"522 768 OFFCURVE",
"412 790 CURVE",
"412 759 LINE"
);
},
{
closed = 1;
nodes = (
"475 672 OFFCURVE",
"518 630 OFFCURVE",
"525 575 CURVE",
"555 583 LINE",
"544 651 OFFCURVE",
"490 701 OFFCURVE",
"412 723 CURVE",
"412 691 LINE"
);
},
{
closed = 1;
nodes = (
"441 606 OFFCURVE",
"459 584 OFFCURVE",
"461 558 CURVE",
"490 566 LINE",
"485 604 OFFCURVE",
"457 636 OFFCURVE",
"412 653 CURVE",
"412 620 LINE"
);
},
{
closed = 1;
nodes = (
"280 -61 LINE",
"310 -61 LINE",
"310 294 LINE",
"280 302 LINE"
);
},
{
closed = 1;
nodes = (
"346 -61 LINE",
"376 -61 LINE",
"376 275 LINE",
"346 284 LINE"
);
},
{
closed = 1;
nodes = (
"545 41 OFFCURVE",
"631 129 OFFCURVE",
"631 240 CURVE SMOOTH",
"631 359 OFFCURVE",
"543 430 OFFCURVE",
"382 478 CURVE SMOOTH",
"325 495 LINE SMOOTH",
"248 518 OFFCURVE",
"196 534 OFFCURVE",
"196 571 CURVE SMOOTH",
"196 594 OFFCURVE",
"215 612 OFFCURVE",
"245 624 CURVE",
"245 655 LINE",
"197 640 OFFCURVE",
"166 610 OFFCURVE",
"166 570 CURVE SMOOTH",
"166 518 OFFCURVE",
"219 494 OFFCURVE",
"317 466 CURVE SMOOTH",
"376 449 LINE SMOOTH",
"519 408 OFFCURVE",
"601 344 OFFCURVE",
"601 242 CURVE SMOOTH",
"601 145 OFFCURVE",
"528 69 OFFCURVE",
"412 44 CURVE",
"412 15 LINE"
);
},
{
closed = 1;
nodes = (
"506 106 OFFCURVE",
"565 168 OFFCURVE",
"565 242 CURVE SMOOTH",
"565 327 OFFCURVE",
"492 379 OFFCURVE",
"368 414 CURVE SMOOTH",
"308 431 LINE SMOOTH",
"192 464 OFFCURVE",
"130 503 OFFCURVE",
"130 569 CURVE SMOOTH",
"130 624 OFFCURVE",
"175 671 OFFCURVE",
"245 692 CURVE",
"245 723 LINE",
"158 699 OFFCURVE",
"100 640 OFFCURVE",
"100 569 CURVE SMOOTH",
"100 488 OFFCURVE",
"172 438 OFFCURVE",
"301 402 CURVE SMOOTH",
"362 385 LINE SMOOTH",
"470 355 OFFCURVE",
"535 312 OFFCURVE",
"535 242 CURVE SMOOTH",
"535 183 OFFCURVE",
"489 134 OFFCURVE",
"412 113 CURVE",
"412 82 LINE"
);
},
{
closed = 1;
nodes = (
"466 166 OFFCURVE",
"499 199 OFFCURVE",
"499 242 CURVE SMOOTH",
"499 297 OFFCURVE",
"446 325 OFFCURVE",
"354 350 CURVE SMOOTH",
"292 367 LINE SMOOTH",
"141 408 OFFCURVE",
"64 470 OFFCURVE",
"64 569 CURVE SMOOTH",
"64 659 OFFCURVE",
"137 734 OFFCURVE",
"245 760 CURVE",
"245 790 LINE",
"120 764 OFFCURVE",
"34 676 OFFCURVE",
"34 571 CURVE SMOOTH",
"34 453 OFFCURVE",
"118 387 OFFCURVE",
"284 339 CURVE SMOOTH",
"346 321 LINE SMOOTH",
"422 299 OFFCURVE",
"469 279 OFFCURVE",
"469 240 CURVE SMOOTH",
"469 214 OFFCURVE",
"448 193 OFFCURVE",
"412 181 CURVE",
"412 149 LINE"
);
},
{
closed = 1;
nodes = (
"145 66 OFFCURVE",
"75 127 OFFCURVE",
"60 213 CURVE",
"31 205 LINE",
"50 106 OFFCURVE",
"130 37 OFFCURVE",
"244 14 CURVE",
"244 45 LINE"
);
},
{
closed = 1;
nodes = (
"176 131 OFFCURVE",
"132 173 OFFCURVE",
"125 230 CURVE",
"95 222 LINE",
"105 154 OFFCURVE",
"162 102 OFFCURVE",
"244 82 CURVE",
"244 112 LINE"
);
},
{
closed = 1;
nodes = (
"210 196 OFFCURVE",
"189 219 OFFCURVE",
"189 247 CURVE",
"160 239 LINE",
"164 198 OFFCURVE",
"195 166 OFFCURVE",
"244 150 CURVE",
"244 182 LINE"
);
},
{
closed = 1;
nodes = (
"310 865 LINE",
"280 865 LINE",
"280 544 LINE",
"310 535 LINE"
);
},
{
closed = 1;
nodes = (
"376 865 LINE",
"346 865 LINE",
"346 526 LINE",
"376 518 LINE"
);
}
);
};
layerId = master01;
paths = (
{
closed = 1;
nodes = (
"139 338 LINE",
"114 328 OFFCURVE",
"98 310 OFFCURVE",
"98 287 CURVE SMOOTH",
"98 258 OFFCURVE",
"122 241 OFFCURVE",
"168 229 CURVE SMOOTH",
"229 213 LINE SMOOTH",
"287 198 OFFCURVE",
"319 168 OFFCURVE",
"319 119 CURVE SMOOTH",
"319 72 OFFCURVE",
"289 40 OFFCURVE",
"241 27 CURVE",
"241 -4 LINE",
"306 10 OFFCURVE",
"349 55 OFFCURVE",
"349 119 CURVE SMOOTH",
"349 182 OFFCURVE",
"309 219 OFFCURVE",
"240 239 CURVE SMOOTH",
"187 254 LINE SMOOTH",
"137 268 OFFCURVE",
"128 275 OFFCURVE",
"128 287 CURVE SMOOTH",
"128 294 OFFCURVE",
"132 300 OFFCURVE",
"139 305 CURVE"
);
},
{
closed = 1;
nodes = (
"139 406 LINE",
"76 390 OFFCURVE",
"32 344 OFFCURVE",
"32 287 CURVE SMOOTH",
"32 224 OFFCURVE",
"79 189 OFFCURVE",
"142 170 CURVE SMOOTH",
"193 155 LINE SMOOTH",
"238 142 OFFCURVE",
"253 130 OFFCURVE",
"253 114 CURVE SMOOTH",
"253 105 OFFCURVE",
"249 99 OFFCURVE",
"241 95 CURVE",
"241 64 LINE",
"267 73 OFFCURVE",
"283 90 OFFCURVE",
"283 115 CURVE SMOOTH",
"283 145 OFFCURVE",
"260 166 OFFCURVE",
"209 181 CURVE SMOOTH",
"154 197 LINE SMOOTH",
"95 214 OFFCURVE",
"62 238 OFFCURVE",
"62 287 CURVE SMOOTH",
"62 328 OFFCURVE",
"93 361 OFFCURVE",
"139 375 CURVE"
);
},
{
closed = 1;
nodes = (
"175 -47 LINE",
"205 -47 LINE",
"205 123 LINE",
"175 129 LINE"
);
},
{
closed = 1;
nodes = (
"205 451 LINE",
"175 451 LINE",
"175 284 LINE",
"205 277 LINE"
);
},
{
closed = 1;
nodes = (
"139 95 LINE",
"130 100 OFFCURVE",
"125 106 OFFCURVE",
"125 114 CURVE",
"95 110 LINE",
"98 89 OFFCURVE",
"114 73 OFFCURVE",
"139 64 CURVE"
);
},
{
closed = 1;
nodes = (
"139 26 LINE",
"94 38 OFFCURVE",
"65 67 OFFCURVE",
"60 105 CURVE",
"30 101 LINE",
"36 48 OFFCURVE",
"78 9 OFFCURVE",
"139 -5 CURVE"
);
},
{
closed = 1;
nodes = (
"241 375 LINE",
"283 363 OFFCURVE",
"311 335 OFFCURVE",
"315 298 CURVE",
"345 301 LINE",
"339 352 OFFCURVE",
"299 391 OFFCURVE",
"241 406 CURVE"
);
},
{
closed = 1;
nodes = (
"241 304 LINE",
"246 300 OFFCURVE",
"249 295 OFFCURVE",
"250 290 CURVE",
"279 294 LINE",
"277 312 OFFCURVE",
"262 327 OFFCURVE",
"241 336 CURVE"
);
}
);
width = 379;
},
{
associatedMasterId = master01;
layerId = "76705C94-3436-4EC1-9557-28029A14A97D";
name = "Jul 18 20, 14:40";
paths = (
{
closed = 1;
nodes = (
"610 582 LINE",
"597 662 OFFCURVE",
"524 726 OFFCURVE",
"417 747 CURVE",
"417 778 LINE",
"537 756 OFFCURVE",
"625 684 OFFCURVE",
"640 587 CURVE"
);
},
{
closed = 1;
nodes = (
"545 569 LINE",
"538 620 OFFCURVE",
"490 663 OFFCURVE",
"417 681 CURVE",
"417 712 LINE",
"505 693 OFFCURVE",
"565 642 OFFCURVE",
"575 575 CURVE"
);
},
{
closed = 1;
nodes = (
"479 556 LINE",
"479 578 OFFCURVE",
"463 603 OFFCURVE",
"417 616 CURVE",
"417 648 LINE",
"481 632 OFFCURVE",
"507 597 OFFCURVE",
"510 562 CURVE"
);
},
{
closed = 1;
nodes = (
"363 512 LINE",
"355 514 LINE",
"355 866 LINE",
"386 866 LINE",
"386 508 LINE"
);
},
{
closed = 1;
nodes = (
"308 525 OFFCURVE",
"298 528 OFFCURVE",
"289 531 CURVE",
"289 866 LINE",
"320 866 LINE",
"320 522 LINE"
);
},
{
closed = 1;
nodes = (
"650 143 OFFCURVE",
"561 50 OFFCURVE",
"417 25 CURVE",
"417 57 LINE",
"543 81 OFFCURVE",
"619 160 OFFCURVE",
"619 248 CURVE SMOOTH",
"619 386 OFFCURVE",
"492 422 OFFCURVE",
"351 452 CURVE SMOOTH",
"213 481 OFFCURVE",
"167 508 OFFCURVE",
"167 556 CURVE SMOOTH",
"167 593 OFFCURVE",
"192 631 OFFCURVE",
"258 648 CURVE",
"258 616 LINE",
"214 603 OFFCURVE",
"198 578 OFFCURVE",
"198 556 CURVE SMOOTH",
"198 537 OFFCURVE",
"210 513 OFFCURVE",
"357 482 CURVE SMOOTH",
"473 458 OFFCURVE",
"650 422 OFFCURVE",
"650 248 CURVE SMOOTH"
);
},
{
closed = 1;
nodes = (
"583 181 OFFCURVE",
"526 113 OFFCURVE",
"417 91 CURVE",
"417 123 LINE",
"497 142 OFFCURVE",
"553 190 OFFCURVE",
"553 248 CURVE SMOOTH",
"553 321 OFFCURVE",
"494 359 OFFCURVE",
"337 392 CURVE SMOOTH",
"217 417 OFFCURVE",
"101 452 OFFCURVE",
"101 556 CURVE SMOOTH",
"101 632 OFFCURVE",
"163 691 OFFCURVE",
"258 712 CURVE",
"258 681 LINE",
"180 661 OFFCURVE",
"131 613 OFFCURVE",
"131 556 CURVE SMOOTH",
"131 492 OFFCURVE",
"189 455 OFFCURVE",
"343 422 CURVE SMOOTH",
"487 392 OFFCURVE",
"583 352 OFFCURVE",
"583 248 CURVE SMOOTH"
);
},
{
closed = 1;
nodes = (
"517 210 OFFCURVE",
"481 173 OFFCURVE",
"417 157 CURVE",
"417 189 LINE",
"458 201 OFFCURVE",
"486 223 OFFCURVE",
"486 248 CURVE SMOOTH",
"486 265 OFFCURVE",
"486 299 OFFCURVE",
"323 333 CURVE SMOOTH",
"180 363 OFFCURVE",
"34 414 OFFCURVE",
"34 556 CURVE SMOOTH",
"34 668 OFFCURVE",
"126 753 OFFCURVE",
"258 778 CURVE",
"258 746 LINE",
"141 723 OFFCURVE",
"65 648 OFFCURVE",
"65 556 CURVE SMOOTH",
"65 436 OFFCURVE",
"192 392 OFFCURVE",
"330 363 CURVE SMOOTH",
"464 335 OFFCURVE",
"517 303 OFFCURVE",
"517 248 CURVE SMOOTH"
);
},
{
closed = 1;
nodes = (
"355 -62 LINE",
"355 294 LINE",
"367 291 OFFCURVE",
"377 288 OFFCURVE",
"386 285 CURVE",
"386 -62 LINE"
);
},
{
closed = 1;
nodes = (
"289 -62 LINE",
"289 309 LINE",
"299 306 OFFCURVE",
"308 304 OFFCURVE",
"317 302 CURVE",
"320 302 LINE",
"320 -62 LINE"
);
},
{
closed = 1;
nodes = (
"198 173 OFFCURVE",
"164 207 OFFCURVE",
"160 242 CURVE",
"191 248 LINE",
"191 223 OFFCURVE",
"218 202 OFFCURVE",
"258 190 CURVE",
"258 157 LINE"
);
},
{
closed = 1;
nodes = (
"161 112 OFFCURVE",
"105 169 OFFCURVE",
"95 229 CURVE",
"125 235 LINE",
"133 184 OFFCURVE",
"185 142 OFFCURVE",
"258 124 CURVE",
"258 91 LINE"
);
},
{
closed = 1;
nodes = (
"130 49 OFFCURVE",
"46 126 OFFCURVE",
"30 217 CURVE",
"60 222 LINE",
"73 146 OFFCURVE",
"146 79 OFFCURVE",
"258 57 CURVE",
"258 26 LINE"
);
}
);
width = 680;
}
);
leftMetricsKey = s;
rightMetricsKey = s;
unicode = 0024;
},
{
color = 7;
glyphname = percent;
lastChange = "2021-03-20 13:51:49 +0000";
layers = (
{
background = {
paths = (
{
closed = 1;
nodes = (
"656 804 LINE",
"150 0 LINE",
"186 0 LINE",
"692 804 LINE"
);
},
{
closed = 1;
nodes = (
"72 0 LINE",
"108 0 LINE",
"362 403 LINE",
"326 403 LINE"
);
},
{
closed = 1;
nodes = (
"735 804 LINE",
"229 0 LINE",
"265 0 LINE",
"771 804 LINE"
);
},
{
closed = 1;
nodes = (
"849 804 LINE",
"813 804 LINE",
"560 402 LINE",
"596 402 LINE"
);
},
{
closed = 1;
nodes = (
"351 467 OFFCURVE",
"430 540 OFFCURVE",
"430 643 CURVE SMOOTH",
"430 746 OFFCURVE",
"351 819 OFFCURVE",
"253 819 CURVE SMOOTH",
"156 819 OFFCURVE",
"77 746 OFFCURVE",
"77 643 CURVE SMOOTH",
"77 540 OFFCURVE",
"156 467 OFFCURVE",
"253 467 CURVE SMOOTH"
);
},
{
closed = 1;
nodes = (
"173 497 OFFCURVE",
"108 558 OFFCURVE",
"108 643 CURVE SMOOTH",
"108 728 OFFCURVE",
"173 789 OFFCURVE",
"253 789 CURVE SMOOTH",
"334 789 OFFCURVE",
"399 728 OFFCURVE",
"399 643 CURVE SMOOTH",
"399 558 OFFCURVE",
"334 497 OFFCURVE",
"253 497 CURVE SMOOTH"
);
},
{
closed = 1;
nodes = (
"314 533 OFFCURVE",
"363 577 OFFCURVE",
"363 643 CURVE SMOOTH",
"363 709 OFFCURVE",
"314 753 OFFCURVE",
"253 753 CURVE SMOOTH",
"193 753 OFFCURVE",
"143 709 OFFCURVE",
"143 643 CURVE SMOOTH",
"143 577 OFFCURVE",
"193 533 OFFCURVE",
"253 533 CURVE SMOOTH"
);
},
{
closed = 1;
nodes = (
"210 564 OFFCURVE",
"174 594 OFFCURVE",
"174 643 CURVE SMOOTH",
"174 692 OFFCURVE",
"210 722 OFFCURVE",
"253 722 CURVE SMOOTH",
"297 722 OFFCURVE",
"333 692 OFFCURVE",
"333 643 CURVE SMOOTH",
"333 594 OFFCURVE",
"297 564 OFFCURVE",
"253 564 CURVE SMOOTH"
);
},
{
closed = 1;
nodes = (
"765 -15 OFFCURVE",
"844 58 OFFCURVE",
"844 161 CURVE SMOOTH",
"844 264 OFFCURVE",
"765 337 OFFCURVE",
"667 337 CURVE SMOOTH",
"570 337 OFFCURVE",
"491 264 OFFCURVE",
"491 161 CURVE SMOOTH",
"491 58 OFFCURVE",
"570 -15 OFFCURVE",
"667 -15 CURVE SMOOTH"
);
},
{
closed = 1;
nodes = (
"587 15 OFFCURVE",
"522 76 OFFCURVE",
"522 161 CURVE SMOOTH",
"522 246 OFFCURVE",
"587 307 OFFCURVE",
"667 307 CURVE SMOOTH",
"748 307 OFFCURVE",
"813 246 OFFCURVE",
"813 161 CURVE SMOOTH",
"813 76 OFFCURVE",
"748 15 OFFCURVE",
"667 15 CURVE SMOOTH"
);
},
{
closed = 1;
nodes = (
"728 51 OFFCURVE",
"777 95 OFFCURVE",
"777 161 CURVE SMOOTH",
"777 227 OFFCURVE",
"728 271 OFFCURVE",
"667 271 CURVE SMOOTH",
"607 271 OFFCURVE",
"557 227 OFFCURVE",
"557 161 CURVE SMOOTH",
"557 95 OFFCURVE",
"607 51 OFFCURVE",
"667 51 CURVE SMOOTH"
);
},
{
closed = 1;
nodes = (
"624 82 OFFCURVE",
"588 112 OFFCURVE",
"588 161 CURVE SMOOTH",
"588 210 OFFCURVE",
"624 240 OFFCURVE",
"667 240 CURVE SMOOTH",
"711 240 OFFCURVE",
"747 210 OFFCURVE",
"747 161 CURVE SMOOTH",
"747 112 OFFCURVE",
"711 82 OFFCURVE",
"667 82 CURVE SMOOTH"
);
}
);
};
guideLines = (
{
position = "{-29, 250}";
},
{
position = "{-29, 178}";
}
);
layerId = master01;
paths = (
{
closed = 1;
nodes = (
"159 0 LINE",
"435 402 LINE",
"403 402 LINE",
"127 0 LINE"
);
},
{
closed = 1;
nodes = (
"89 0 LINE",
"365 402 LINE",
"333 402 LINE",
"57 0 LINE"
);
},
{
closed = 1;
nodes = (
"425 -8 OFFCURVE",
"468 38 OFFCURVE",
"468 94 CURVE SMOOTH",
"468 150 OFFCURVE",
"425 195 OFFCURVE",
"367 195 CURVE SMOOTH",
"309 195 OFFCURVE",
"266 150 OFFCURVE",
"266 94 CURVE SMOOTH",
"266 38 OFFCURVE",
"309 -8 OFFCURVE",
"367 -8 CURVE SMOOTH"
);
},
{
closed = 1;
nodes = (
"328 23 OFFCURVE",
"296 55 OFFCURVE",
"296 95 CURVE SMOOTH",
"296 133 OFFCURVE",
"328 165 OFFCURVE",
"368 165 CURVE SMOOTH",
"406 165 OFFCURVE",
"438 133 OFFCURVE",
"438 95 CURVE SMOOTH",
"438 55 OFFCURVE",
"406 23 OFFCURVE",
"368 23 CURVE SMOOTH"
);
},
{
closed = 1;
nodes = (
"389 56 OFFCURVE",
"407 74 OFFCURVE",
"407 96 CURVE SMOOTH",
"407 117 OFFCURVE",
"389 135 OFFCURVE",
"368 135 CURVE SMOOTH",
"346 135 OFFCURVE",
"328 117 OFFCURVE",
"328 96 CURVE SMOOTH",
"328 74 OFFCURVE",
"346 56 OFFCURVE",
"368 56 CURVE SMOOTH"
);
},
{
closed = 1;
nodes = (
"360 83 OFFCURVE",
"354 89 OFFCURVE",
"354 96 CURVE SMOOTH",
"354 103 OFFCURVE",
"360 109 OFFCURVE",
"367 109 CURVE SMOOTH",
"374 109 OFFCURVE",
"380 103 OFFCURVE",
"380 96 CURVE SMOOTH",
"380 89 OFFCURVE",
"374 83 OFFCURVE",
"367 83 CURVE SMOOTH"
);
},
{
closed = 1;
nodes = (
"184 214 OFFCURVE",
"227 260 OFFCURVE",
"227 316 CURVE SMOOTH",
"227 372 OFFCURVE",
"184 417 OFFCURVE",
"126 417 CURVE SMOOTH",
"68 417 OFFCURVE",
"25 372 OFFCURVE",
"25 316 CURVE SMOOTH",
"25 260 OFFCURVE",
"68 214 OFFCURVE",
"126 214 CURVE SMOOTH"
);
},
{
closed = 1;
nodes = (
"87 245 OFFCURVE",
"55 277 OFFCURVE",
"55 317 CURVE SMOOTH",
"55 355 OFFCURVE",
"87 387 OFFCURVE",
"127 387 CURVE SMOOTH",
"165 387 OFFCURVE",
"197 355 OFFCURVE",
"197 317 CURVE SMOOTH",
"197 277 OFFCURVE",
"165 245 OFFCURVE",
"127 245 CURVE SMOOTH"
);
},
{
closed = 1;
nodes = (
"148 278 OFFCURVE",
"166 296 OFFCURVE",
"166 318 CURVE SMOOTH",
"166 339 OFFCURVE",
"148 357 OFFCURVE",
"127 357 CURVE SMOOTH",
"105 357 OFFCURVE",
"87 339 OFFCURVE",
"87 318 CURVE SMOOTH",
"87 296 OFFCURVE",
"105 278 OFFCURVE",
"127 278 CURVE SMOOTH"
);
},
{
closed = 1;
nodes = (
"119 305 OFFCURVE",
"113 311 OFFCURVE",
"113 318 CURVE SMOOTH",
"113 325 OFFCURVE",
"119 331 OFFCURVE",
"126 331 CURVE SMOOTH",
"133 331 OFFCURVE",
"139 325 OFFCURVE",
"139 318 CURVE SMOOTH",
"139 311 OFFCURVE",
"133 305 OFFCURVE",
"126 305 CURVE SMOOTH"
);
}
);
width = 493;
},
{
associatedMasterId = master01;
layerId = "477D8E45-A355-40E2-8C08-6D4E60D5789B";
name = "Jul 18 20, 14:46";
paths = (
{
closed = 1;
nodes = (
"383 546 OFFCURVE",
"304 467 OFFCURVE",
"206 467 CURVE SMOOTH",
"109 467 OFFCURVE",
"30 546 OFFCURVE",
"30 643 CURVE SMOOTH",
"30 741 OFFCURVE",
"109 819 OFFCURVE",
"206 819 CURVE SMOOTH",
"304 819 OFFCURVE",
"383 741 OFFCURVE",
"383 643 CURVE SMOOTH"
);
},
{
closed = 1;
nodes = (
"179 0 LINE",
"143 0 LINE",
"649 804 LINE",
"685 804 LINE"
);
},
{
closed = 1;
nodes = (
"101 0 LINE",
"64 0 LINE",
"571 804 LINE",
"607 804 LINE"
);
},
{
closed = 1;
nodes = (
"720 63 OFFCURVE",
"641 -15 OFFCURVE",
"543 -15 CURVE SMOOTH",
"446 -15 OFFCURVE",
"367 63 OFFCURVE",
"367 161 CURVE SMOOTH",
"367 258 OFFCURVE",
"446 337 OFFCURVE",
"543 337 CURVE SMOOTH",
"641 337 OFFCURVE",
"720 258 OFFCURVE",
"720 161 CURVE SMOOTH"
);
},
{
closed = 1;
nodes = (
"352 723 OFFCURVE",
"287 789 OFFCURVE",
"206 789 CURVE SMOOTH",
"126 789 OFFCURVE",
"61 723 OFFCURVE",
"61 643 CURVE SMOOTH",
"61 563 OFFCURVE",
"126 498 OFFCURVE",
"206 498 CURVE SMOOTH",
"287 498 OFFCURVE",
"352 563 OFFCURVE",
"352 643 CURVE SMOOTH"
);
},
{
closed = 1;
nodes = (
"689 241 OFFCURVE",
"624 306 OFFCURVE",
"543 306 CURVE SMOOTH",
"463 306 OFFCURVE",
"398 241 OFFCURVE",
"398 161 CURVE SMOOTH",
"398 81 OFFCURVE",
"463 15 OFFCURVE",
"543 15 CURVE SMOOTH",
"624 15 OFFCURVE",
"689 81 OFFCURVE",
"689 161 CURVE SMOOTH"
);
},
{
closed = 1;
nodes = (
"316 582 OFFCURVE",
"267 533 OFFCURVE",
"206 533 CURVE SMOOTH",
"146 533 OFFCURVE",
"96 582 OFFCURVE",
"96 643 CURVE SMOOTH",
"96 704 OFFCURVE",
"146 753 OFFCURVE",
"206 753 CURVE SMOOTH",
"267 753 OFFCURVE",
"316 704 OFFCURVE",
"316 643 CURVE SMOOTH"
);
},
{
closed = 1;
nodes = (
"653 100 OFFCURVE",
"604 51 OFFCURVE",
"543 51 CURVE SMOOTH",
"482 51 OFFCURVE",
"433 100 OFFCURVE",
"433 161 CURVE SMOOTH",
"433 222 OFFCURVE",
"482 271 OFFCURVE",
"543 271 CURVE SMOOTH",
"604 271 OFFCURVE",
"653 222 OFFCURVE",
"653 161 CURVE SMOOTH"
);
},
{
closed = 1;
nodes = (
"286 687 OFFCURVE",
"250 722 OFFCURVE",
"206 722 CURVE SMOOTH",
"163 722 OFFCURVE",
"127 687 OFFCURVE",
"127 643 CURVE SMOOTH",
"127 599 OFFCURVE",
"163 564 OFFCURVE",
"206 564 CURVE SMOOTH",
"250 564 OFFCURVE",
"286 599 OFFCURVE",
"286 643 CURVE SMOOTH"
);
},
{
closed = 1;
nodes = (
"622 205 OFFCURVE",
"587 240 OFFCURVE",
"543 240 CURVE SMOOTH",
"499 240 OFFCURVE",
"464 205 OFFCURVE",
"464 161 CURVE SMOOTH",
"464 117 OFFCURVE",
"499 82 OFFCURVE",
"543 82 CURVE SMOOTH",
"587 82 OFFCURVE",
"622 117 OFFCURVE",
"622 161 CURVE SMOOTH"
);
}
);
width = 750;
},
{
associatedMasterId = master01;
background = {
paths = (
{
closed = 1;
nodes = (
"649 804 LINE",
"143 0 LINE",
"179 0 LINE",
"685 804 LINE"
);
},
{
closed = 1;
nodes = (
"65 0 LINE",
"101 0 LINE",
"355 403 LINE",
"319 403 LINE"
);
},
{
closed = 1;
nodes = (
"728 804 LINE",
"222 0 LINE",
"258 0 LINE",
"764 804 LINE"
);
},
{
closed = 1;
nodes = (
"842 804 LINE",
"806 804 LINE",
"553 402 LINE",
"589 402 LINE"
);
}
);
};
layerId = "9A042894-E26F-41DA-B128-F70B119B6BB4";
name = "Jul 31 20, 13:39";
paths = (
{
closed = 1;
nodes = (
"649 804 LINE",
"143 0 LINE",
"179 0 LINE",
"685 804 LINE"
);
},
{
closed = 1;
nodes = (
"571 804 LINE",
"65 0 LINE",
"101 0 LINE",
"607 804 LINE"
);
},
{
closed = 1;
nodes = (
"304 467 OFFCURVE",
"383 540 OFFCURVE",
"383 643 CURVE SMOOTH",
"383 746 OFFCURVE",
"304 819 OFFCURVE",
"206 819 CURVE SMOOTH",
"109 819 OFFCURVE",
"30 746 OFFCURVE",
"30 643 CURVE SMOOTH",
"30 540 OFFCURVE",
"109 467 OFFCURVE",
"206 467 CURVE SMOOTH"
);
},
{
closed = 1;
nodes = (
"126 497 OFFCURVE",
"61 558 OFFCURVE",
"61 643 CURVE SMOOTH",
"61 728 OFFCURVE",
"126 789 OFFCURVE",
"206 789 CURVE SMOOTH",
"287 789 OFFCURVE",
"352 728 OFFCURVE",
"352 643 CURVE SMOOTH",
"352 558 OFFCURVE",
"287 497 OFFCURVE",
"206 497 CURVE SMOOTH"
);
},
{
closed = 1;
nodes = (
"267 533 OFFCURVE",
"316 577 OFFCURVE",
"316 643 CURVE SMOOTH",
"316 709 OFFCURVE",
"267 753 OFFCURVE",
"206 753 CURVE SMOOTH",
"146 753 OFFCURVE",
"96 709 OFFCURVE",
"96 643 CURVE SMOOTH",
"96 577 OFFCURVE",
"146 533 OFFCURVE",
"206 533 CURVE SMOOTH"
);
},
{
closed = 1;
nodes = (
"163 564 OFFCURVE",
"127 594 OFFCURVE",
"127 643 CURVE SMOOTH",
"127 692 OFFCURVE",
"163 722 OFFCURVE",
"206 722 CURVE SMOOTH",
"250 722 OFFCURVE",
"286 692 OFFCURVE",
"286 643 CURVE SMOOTH",
"286 594 OFFCURVE",
"250 564 OFFCURVE",
"206 564 CURVE SMOOTH"
);
},
{
closed = 1;
nodes = (
"728 804 LINE",
"222 0 LINE",
"258 0 LINE",
"764 804 LINE"
);
},
{
closed = 1;
nodes = (
"718 -15 OFFCURVE",
"797 58 OFFCURVE",
"797 161 CURVE SMOOTH",
"797 264 OFFCURVE",
"718 337 OFFCURVE",
"620 337 CURVE SMOOTH",
"523 337 OFFCURVE",
"444 264 OFFCURVE",
"444 161 CURVE SMOOTH",
"444 58 OFFCURVE",
"523 -15 OFFCURVE",
"620 -15 CURVE SMOOTH"
);
},
{
closed = 1;
nodes = (
"540 15 OFFCURVE",
"475 76 OFFCURVE",
"475 161 CURVE SMOOTH",
"475 246 OFFCURVE",
"540 307 OFFCURVE",
"620 307 CURVE SMOOTH",
"701 307 OFFCURVE",
"766 246 OFFCURVE",
"766 161 CURVE SMOOTH",
"766 76 OFFCURVE",
"701 15 OFFCURVE",
"620 15 CURVE SMOOTH"
);
},
{
closed = 1;
nodes = (
"681 51 OFFCURVE",
"730 95 OFFCURVE",
"730 161 CURVE SMOOTH",
"730 227 OFFCURVE",
"681 271 OFFCURVE",
"620 271 CURVE SMOOTH",
"560 271 OFFCURVE",
"510 227 OFFCURVE",
"510 161 CURVE SMOOTH",
"510 95 OFFCURVE",
"560 51 OFFCURVE",
"620 51 CURVE SMOOTH"
);
},
{
closed = 1;
nodes = (
"577 82 OFFCURVE",
"541 112 OFFCURVE",
"541 161 CURVE SMOOTH",
"541 210 OFFCURVE",
"577 240 OFFCURVE",
"620 240 CURVE SMOOTH",
"664 240 OFFCURVE",
"700 210 OFFCURVE",
"700 161 CURVE SMOOTH",
"700 112 OFFCURVE",
"664 82 OFFCURVE",
"620 82 CURVE SMOOTH"
);
}
);
width = 827;
}
);
rightMetricsKey = "=|";
unicode = 0025;
},
{
color = 7;
glyphname = ampersand;
lastChange = "2021-03-20 13:51:49 +0000";
layers = (
{
background = {
paths = (
{
closed = 1;
nodes = (
"501 150 OFFCURVE",
"477 146 OFFCURVE",
"453 146 CURVE SMOOTH",
"394 146 OFFCURVE",
"357 174 OFFCURVE",
"357 219 CURVE SMOOTH",
"357 250 OFFCURVE",
"374 275 OFFCURVE",
"418 294 CURVE",
"401 319 LINE",
"348 295 OFFCURVE",
"327 259 OFFCURVE",
"327 219 CURVE SMOOTH",
"327 158 OFFCURVE",
"378 116 OFFCURVE",
"453 116 CURVE SMOOTH",
"481 116 OFFCURVE",
"510 122 OFFCURVE",
"541 133 CURVE",
"523 159 LINE"
);
},
{
closed = 1;
nodes = (
"523 87 OFFCURVE",
"485 80 OFFCURVE",
"455 80 CURVE SMOOTH",
"357 80 OFFCURVE",
"291 140 OFFCURVE",
"291 222 CURVE SMOOTH",
"291 269 OFFCURVE",
"314 304 OFFCURVE",
"379 350 CURVE",
"363 374 LINE",
"292 338 OFFCURVE",
"261 283 OFFCURVE",
"261 222 CURVE SMOOTH",
"261 124 OFFCURVE",
"341 50 OFFCURVE",
"455 50 CURVE SMOOTH",
"491 50 OFFCURVE",
"533 58 OFFCURVE",
"581 79 CURVE",
"563 106 LINE"
);
},
{
closed = 1;
nodes = (
"552 24 OFFCURVE",
"501 14 OFFCURVE",
"455 14 CURVE SMOOTH",
"319 14 OFFCURVE",
"225 104 OFFCURVE",
"225 226 CURVE SMOOTH",
"225 300 OFFCURVE",
"260 358 OFFCURVE",
"342 404 CURVE",
"325 429 LINE",
"236 379 OFFCURVE",
"195 309 OFFCURVE",
"195 226 CURVE SMOOTH",
"195 88 OFFCURVE",
"303 -16 OFFCURVE",
"455 -16 CURVE SMOOTH",
"505 -16 OFFCURVE",
"562 -5 OFFCURVE",
"620 24 CURVE",
"602 49 LINE"
);
},
{
closed = 1;
nodes = (
"891 303 LINE",
"865 264 OFFCURVE",
"831 224 OFFCURVE",
"795 187 CURVE",
"813 162 LINE",
"852 203 OFFCURVE",
"887 245 OFFCURVE",
"915 285 CURVE"
);
},
{
closed = 1;
nodes = (
"836 340 LINE",
"813 306 OFFCURVE",
"785 272 OFFCURVE",
"754 240 CURVE",
"772 216 LINE",
"806 249 OFFCURVE",
"836 287 OFFCURVE",
"862 323 CURVE"
);
},
{
closed = 1;
nodes = (
"782 377 LINE",
"763 349 OFFCURVE",
"739 321 OFFCURVE",
"714 294 CURVE",
"732 269 LINE",
"761 299 OFFCURVE",
"786 329 OFFCURVE",
"807 361 CURVE"
);
},
{
closed = 1;
nodes = (
"602 535 OFFCURVE",
"619 562 OFFCURVE",
"619 601 CURVE SMOOTH",
"619 656 OFFCURVE",
"579 687 OFFCURVE",
"528 687 CURVE SMOOTH",
"478 687 OFFCURVE",
"438 656 OFFCURVE",
"438 598 CURVE SMOOTH",
"438 553 OFFCURVE",
"465 513 OFFCURVE",
"519 442 CURVE SMOOTH",
"851 0 LINE",
"889 0 LINE",
"549 454 LINE SMOOTH",
"498 522 OFFCURVE",
"468 560 OFFCURVE",
"468 598 CURVE SMOOTH",
"468 635 OFFCURVE",
"493 657 OFFCURVE",
"528 657 CURVE SMOOTH",
"564 657 OFFCURVE",
"589 636 OFFCURVE",
"589 600 CURVE SMOOTH",
"589 571 OFFCURVE",
"574 551 OFFCURVE",
"534 535 CURVE",
"552 511 LINE"
);
},
{
closed = 1;
nodes = (
"656 497 OFFCURVE",
"685 541 OFFCURVE",
"685 603 CURVE SMOOTH",
"685 691 OFFCURVE",
"616 753 OFFCURVE",
"528 753 CURVE SMOOTH",
"441 753 OFFCURVE",
"372 693 OFFCURVE",
"372 599 CURVE SMOOTH",
"372 545 OFFCURVE",
"395 499 OFFCURVE",
"455 419 CURVE SMOOTH",
"767 0 LINE",
"806 0 LINE",
"484 431 LINE SMOOTH",
"431 501 OFFCURVE",
"402 549 OFFCURVE",
"402 601 CURVE SMOOTH",
"402 676 OFFCURVE",
"457 723 OFFCURVE",
"528 723 CURVE SMOOTH",
"601 723 OFFCURVE",
"655 676 OFFCURVE",
"655 603 CURVE SMOOTH",
"655 553 OFFCURVE",
"631 517 OFFCURVE",
"568 489 CURVE",
"587 464 LINE"
);
},
{
closed = 1;
nodes = (
"713 467 OFFCURVE",
"751 524 OFFCURVE",
"751 604 CURVE SMOOTH",
"751 729 OFFCURVE",
"652 819 OFFCURVE",
"528 819 CURVE SMOOTH",
"405 819 OFFCURVE",
"306 731 OFFCURVE",
"306 602 CURVE SMOOTH",
"306 532 OFFCURVE",
"333 474 OFFCURVE",
"394 391 CURVE SMOOTH",
"686 -2 LINE",
"723 0 LINE",
"421 405 LINE SMOOTH",
"363 483 OFFCURVE",
"336 540 OFFCURVE",
"336 602 CURVE SMOOTH",
"336 715 OFFCURVE",
"421 789 OFFCURVE",
"528 789 CURVE SMOOTH",
"636 789 OFFCURVE",
"721 713 OFFCURVE",
"721 604 CURVE SMOOTH",
"721 536 OFFCURVE",
"686 485 OFFCURVE",
"602 444 CURVE",
"620 419 LINE"
);
}
);
};
guideLines = (
{
angle = 126.8295;
position = "{440, 27}";
}
);
layerId = master01;
paths = (
{
closed = 1;
nodes = (
"412 0 LINE",
"234 242 LINE SMOOTH",
"218 263 OFFCURVE",
"210 283 OFFCURVE",
"210 296 CURVE",
"180 296 LINE",
"180 277 OFFCURVE",
"189 251 OFFCURVE",
"208 226 CURVE SMOOTH",
"374 0 LINE"
);
},
{
closed = 1;
nodes = (
"190 -15 OFFCURVE",
"227 -5 OFFCURVE",
"247 4 CURVE",
"228 30 LINE",
"216 24 OFFCURVE",
"186 16 OFFCURVE",
"167 16 CURVE SMOOTH",
"108 16 OFFCURVE",
"78 52 OFFCURVE",
"78 92 CURVE SMOOTH",
"78 121 OFFCURVE",
"104 149 OFFCURVE",
"128 163 CURVE",
"110 187 LINE",
"70 164 OFFCURVE",
"47 130 OFFCURVE",
"47 92 CURVE SMOOTH",
"47 31 OFFCURVE",
"90 -15 OFFCURVE",
"167 -15 CURVE SMOOTH"
);
},
{
closed = 1;
nodes = (
"177 50 OFFCURVE",
"192 54 OFFCURVE",
"206 59 CURVE",
"186 86 LINE",
"183 84 OFFCURVE",
"175 80 OFFCURVE",
"163 80 CURVE SMOOTH",
"150 80 OFFCURVE",
"145 84 OFFCURVE",
"145 90 CURVE SMOOTH",
"145 97 OFFCURVE",
"158 105 OFFCURVE",
"166 109 CURVE",
"149 134 LINE",
"128 125 OFFCURVE",
"114 107 OFFCURVE",
"114 92 CURVE SMOOTH",
"114 70 OFFCURVE",
"132 50 OFFCURVE",
"163 50 CURVE SMOOTH"
);
},
{
closed = 1;
nodes = (
"329 0 LINE",
"173 211 LINE SMOOTH",
"153 238 OFFCURVE",
"144 271 OFFCURVE",
"144 296 CURVE",
"114 296 LINE",
"114 265 OFFCURVE",
"124 227 OFFCURVE",
"145 199 CURVE SMOOTH",
"291 0 LINE"
);
},
{
closed = 1;
nodes = (
"376 150 OFFCURVE",
"385 165 OFFCURVE",
"387 182 CURVE",
"355 183 LINE",
"355 175 OFFCURVE",
"350 169 OFFCURVE",
"340 161 CURVE",
"358 136 LINE"
);
},
{
closed = 1;
nodes = (
"288 258 OFFCURVE",
"294 273 OFFCURVE",
"294 296 CURVE",
"264 296 LINE",
"264 283 OFFCURVE",
"262 277 OFFCURVE",
"256 272 CURVE",
"275 247 LINE"
);
},
{
closed = 1;
nodes = (
"434 111 OFFCURVE",
"459 149 OFFCURVE",
"457 182 CURVE",
"424 182 LINE",
"423 155 OFFCURVE",
"407 130 OFFCURVE",
"379 109 CURVE",
"397 84 LINE"
);
},
{
closed = 1;
nodes = (
"344 208 OFFCURVE",
"360 249 OFFCURVE",
"360 296 CURVE",
"330 296 LINE",
"330 261 OFFCURVE",
"318 234 OFFCURVE",
"297 217 CURVE",
"316 191 LINE"
);
},
{
closed = 1;
nodes = (
"360 363 OFFCURVE",
"314 417 OFFCURVE",
"237 417 CURVE SMOOTH",
"160 417 OFFCURVE",
"114 363 OFFCURVE",
"114 296 CURVE",
"144 296 LINE",
"144 346 OFFCURVE",
"176 387 OFFCURVE",
"237 387 CURVE SMOOTH",
"298 387 OFFCURVE",
"330 346 OFFCURVE",
"330 296 CURVE",
"360 296 LINE"
);
},
{
closed = 1;
nodes = (
"294 329 OFFCURVE",
"271 351 OFFCURVE",
"237 351 CURVE SMOOTH",
"203 351 OFFCURVE",
"180 329 OFFCURVE",
"180 296 CURVE",
"210 296 LINE",
"210 310 OFFCURVE",
"218 321 OFFCURVE",
"237 321 CURVE SMOOTH",
"256 321 OFFCURVE",
"264 310 OFFCURVE",
"264 296 CURVE",
"294 296 LINE"
);
}
);
width = 487;
},
{
associatedMasterId = master01;
layerId = "D10A57C3-D33A-4E76-9F20-5F4C4EE2E5F1";
name = "Jul 18 20, 14:49";
paths = (
{
closed = 1;
nodes = (
"725 248 OFFCURVE",
"693 209 OFFCURVE",
"657 171 CURVE",
"636 193 LINE",
"670 229 OFFCURVE",
"701 267 OFFCURVE",
"726 303 CURVE",
"751 285 LINE"
);
},
{
closed = 1;
nodes = (
"672 288 OFFCURVE",
"643 252 OFFCURVE",
"611 219 CURVE",
"604 227 OFFCURVE",
"597 234 OFFCURVE",
"590 241 CURVE",
"621 273 OFFCURVE",
"648 307 OFFCURVE",
"671 340 CURVE",
"697 323 LINE"
);
},
{
closed = 1;
nodes = (
"621 329 OFFCURVE",
"595 298 OFFCURVE",
"566 268 CURVE",
"559 275 OFFCURVE",
"552 283 OFFCURVE",
"545 291 CURVE",
"572 319 OFFCURVE",
"597 349 OFFCURVE",
"617 378 CURVE",
"642 361 LINE"
);
},
{
closed = 1;
nodes = (
"742 0 LINE",
"609 128 OFFCURVE",
"506 238 OFFCURVE",
"431 330 CURVE SMOOTH",
"332 451 OFFCURVE",
"283 541 OFFCURVE",
"283 598 CURVE SMOOTH",
"283 649 OFFCURVE",
"321 687 OFFCURVE",
"373 687 CURVE SMOOTH",
"426 687 OFFCURVE",
"464 649 OFFCURVE",
"464 598 CURVE SMOOTH",
"464 560 OFFCURVE",
"430 534 OFFCURVE",
"379 507 CURVE",
"374 517 OFFCURVE",
"369 526 OFFCURVE",
"365 534 CURVE",
"404 555 OFFCURVE",
"433 576 OFFCURVE",
"433 598 CURVE SMOOTH",
"433 633 OFFCURVE",
"409 656 OFFCURVE",
"373 656 CURVE SMOOTH",
"338 656 OFFCURVE",
"314 633 OFFCURVE",
"314 598 CURVE SMOOTH",
"314 564 OFFCURVE",
"336 493 OFFCURVE",
"459 343 CURVE SMOOTH",
"530 257 OFFCURVE",
"634 145 OFFCURVE",
"787 0 CURVE"
);
},
{
closed = 1;
nodes = (
"650 0 LINE",
"556 96 OFFCURVE",
"459 202 OFFCURVE",
"380 301 CURVE SMOOTH",
"285 421 OFFCURVE",
"217 531 OFFCURVE",
"217 598 CURVE SMOOTH",
"217 686 OFFCURVE",
"284 753 OFFCURVE",
"373 753 CURVE SMOOTH",
"463 753 OFFCURVE",
"530 686 OFFCURVE",
"530 598 CURVE SMOOTH",
"530 538 OFFCURVE",
"479 496 OFFCURVE",
"411 459 CURVE",
"404 468 OFFCURVE",
"399 477 OFFCURVE",
"394 485 CURVE",
"454 518 OFFCURVE",
"499 553 OFFCURVE",
"499 598 CURVE SMOOTH",
"499 674 OFFCURVE",
"441 722 OFFCURVE",
"373 722 CURVE SMOOTH",
"306 722 OFFCURVE",
"248 674 OFFCURVE",
"248 598 CURVE SMOOTH",
"248 545 OFFCURVE",
"303 447 OFFCURVE",
"407 316 CURVE SMOOTH",
"480 225 OFFCURVE",
"576 119 OFFCURVE",
"693 0 CURVE"
);
},
{
closed = 1;
nodes = (
"559 0 LINE",
"466 99 OFFCURVE",
"389 188 OFFCURVE",
"328 266 CURVE SMOOTH",
"209 417 OFFCURVE",
"151 528 OFFCURVE",
"151 598 CURVE SMOOTH",
"151 722 OFFCURVE",
"248 819 OFFCURVE",
"373 819 CURVE SMOOTH",
"498 819 OFFCURVE",
"596 722 OFFCURVE",
"596 598 CURVE SMOOTH",
"596 513 OFFCURVE",
"526 460 OFFCURVE",
"443 413 CURVE",
"437 422 OFFCURVE",
"430 430 OFFCURVE",
"425 438 CURVE",
"501 481 OFFCURVE",
"565 528 OFFCURVE",
"565 598 CURVE SMOOTH",
"565 705 OFFCURVE",
"482 789 OFFCURVE",
"373 789 CURVE SMOOTH",
"265 789 OFFCURVE",
"181 705 OFFCURVE",
"181 598 CURVE SMOOTH",
"181 536 OFFCURVE",
"240 429 OFFCURVE",
"352 285 CURVE SMOOTH",
"417 202 OFFCURVE",
"501 106 OFFCURVE",
"602 0 CURVE"
);
},
{
closed = 1;
nodes = (
"357 125 OFFCURVE",
"322 116 OFFCURVE",
"288 116 CURVE SMOOTH",
"250 116 OFFCURVE",
"214 130 OFFCURVE",
"190 154 CURVE SMOOTH",
"172 172 OFFCURVE",
"162 195 OFFCURVE",
"162 222 CURVE SMOOTH",
"162 268 OFFCURVE",
"193 304 OFFCURVE",
"238 335 CURVE",
"243 327 OFFCURVE",
"249 319 OFFCURVE",
"255 310 CURVE",
"218 284 OFFCURVE",
"193 255 OFFCURVE",
"193 222 CURVE SMOOTH",
"193 203 OFFCURVE",
"199 188 OFFCURVE",
"212 175 CURVE SMOOTH",
"230 157 OFFCURVE",
"258 147 OFFCURVE",
"288 147 CURVE SMOOTH",
"315 147 OFFCURVE",
"343 154 OFFCURVE",
"370 165 CURVE",
"377 157 OFFCURVE",
"384 148 OFFCURVE",
"391 140 CURVE"
);
},
{
closed = 1;
nodes = (
"388 65 OFFCURVE",
"338 50 OFFCURVE",
"288 50 CURVE SMOOTH",
"232 50 OFFCURVE",
"180 71 OFFCURVE",
"144 107 CURVE SMOOTH",
"113 138 OFFCURVE",
"96 178 OFFCURVE",
"96 222 CURVE SMOOTH",
"96 293 OFFCURVE",
"143 344 OFFCURVE",
"204 385 CURVE",
"209 377 OFFCURVE",
"215 369 OFFCURVE",
"221 360 CURVE",
"166 323 OFFCURVE",
"127 280 OFFCURVE",
"127 222 CURVE SMOOTH",
"127 186 OFFCURVE",
"140 154 OFFCURVE",
"165 129 CURVE SMOOTH",
"196 98 OFFCURVE",
"241 81 OFFCURVE",
"288 81 CURVE SMOOTH",
"330 81 OFFCURVE",
"373 93 OFFCURVE",
"415 112 CURVE",
"422 104 OFFCURVE",
"429 96 OFFCURVE",
"436 88 CURVE"
);
},
{
closed = 1;
nodes = (
"421 5 OFFCURVE",
"355 -16 OFFCURVE",
"288 -16 CURVE SMOOTH",
"215 -16 OFFCURVE",
"145 12 OFFCURVE",
"97 60 CURVE SMOOTH",
"54 103 OFFCURVE",
"30 161 OFFCURVE",
"30 222 CURVE SMOOTH",
"30 324 OFFCURVE",
"95 389 OFFCURVE",
"173 438 CURVE",
"178 429 OFFCURVE",
"183 420 OFFCURVE",
"188 411 CURVE",
"118 366 OFFCURVE",
"61 308 OFFCURVE",
"61 222 CURVE SMOOTH",
"61 169 OFFCURVE",
"81 119 OFFCURVE",
"119 82 CURVE SMOOTH",
"161 39 OFFCURVE",
"223 15 OFFCURVE",
"288 15 CURVE SMOOTH",
"348 15 OFFCURVE",
"406 32 OFFCURVE",
"461 61 CURVE",
"482 37 LINE"
);
}
);
width = 797;
}
);
unicode = 0026;
},
{
color = 7;
glyphname = quotesingle;
lastChange = "2021-03-20 13:51:49 +0000";
layers = (
{
background = {
components = (
{
alignment = -1;
name = _v_stem_uc;
transform = "{1, 0, 0, 0.32592, -15, 542}";
}
);
};
layerId = master01;
paths = (
{
closed = 1;
nodes = (
"121 271 LINE",
"121 402.02 LINE",
"91 402.02 LINE",
"91 271 LINE"
);
},
{
closed = 1;
nodes = (
"55 271 LINE",
"55 402.02 LINE",
"25 402.02 LINE",
"25 271 LINE"
);
}
);
width = 146;
},
{
associatedMasterId = master01;
layerId = "B2AE8DF1-F019-4376-968E-D1A64DF56732";
name = "Jul 18 20, 10:48";
paths = (
{
closed = 1;
nodes = (
"183 543 LINE",
"183 804 LINE",
"214 804 LINE",
"214 543 LINE"
);
},
{
closed = 1;
nodes = (
"116 543 LINE",
"116 804 LINE",
"147 804 LINE",
"147 543 LINE"
);
},
{
closed = 1;
nodes = (
"50 543 LINE",
"50 804 LINE",
"81 804 LINE",
"81 543 LINE"
);
}
);
width = 264;
}
);
leftMetricsKey = "=H/2";
rightMetricsKey = "=H/2";
unicode = 0027;
},
{
color = 7;
glyphname = parenleft;
lastChange = "2021-03-20 13:51:49 +0000";
layers = (
{
background = {
paths = (
{
closed = 1;
nodes = (
"82 260 OFFCURVE",
"120 100 OFFCURVE",
"200 -60 CURVE",
"235 -60 LINE",
"153 91 OFFCURVE",
"112 258 OFFCURVE",
"112 402 CURVE SMOOTH",
"112 546 OFFCURVE",
"153 714 OFFCURVE",
"235 864 CURVE",
"200 864 LINE",
"120 705 OFFCURVE",
"82 544 OFFCURVE",
"82 402 CURVE SMOOTH"
);
},
{
closed = 1;
nodes = (
"16 260 OFFCURVE",
"54 100 OFFCURVE",
"134 -60 CURVE",
"169 -60 LINE",
"87 91 OFFCURVE",
"46 258 OFFCURVE",
"46 402 CURVE SMOOTH",
"46 546 OFFCURVE",
"87 714 OFFCURVE",
"169 864 CURVE",
"134 864 LINE",
"54 705 OFFCURVE",
"16 544 OFFCURVE",
"16 402 CURVE SMOOTH"
);
},
{
closed = 1;
nodes = (
"-50 260 OFFCURVE",
"-12 100 OFFCURVE",
"68 -60 CURVE",
"103 -60 LINE",
"21 91 OFFCURVE",
"-20 258 OFFCURVE",
"-20 402 CURVE SMOOTH",
"-20 546 OFFCURVE",
"21 714 OFFCURVE",
"103 864 CURVE",
"68 864 LINE",
"-12 705 OFFCURVE",
"-50 544 OFFCURVE",
"-50 402 CURVE SMOOTH"
);
}
);
};
layerId = master01;
paths = (
{
closed = 1;
nodes = (
"188 -27 LINE",
"147 48 OFFCURVE",
"126 130 OFFCURVE",
"126 202 CURVE SMOOTH",
"126 274 OFFCURVE",
"147 356 OFFCURVE",
"188 431 CURVE",
"156 431 LINE",
"115 352 OFFCURVE",
"96 273 OFFCURVE",
"96 202 CURVE SMOOTH",
"96 131 OFFCURVE",
"115 52 OFFCURVE",
"156 -27 CURVE"
);
},
{
closed = 1;
nodes = (
"122 -27 LINE",
"81 48 OFFCURVE",
"60 130 OFFCURVE",
"60 202 CURVE SMOOTH",
"60 274 OFFCURVE",
"81 356 OFFCURVE",
"122 431 CURVE",
"90 431 LINE",
"49 352 OFFCURVE",
"30 273 OFFCURVE",
"30 202 CURVE SMOOTH",
"30 131 OFFCURVE",
"49 52 OFFCURVE",
"90 -27 CURVE"
);
}
);
width = 210;
},
{
associatedMasterId = master01;
layerId = "C8119AC3-0B2B-4B40-BB7C-873963016458";
name = "Jul 18 20, 10:51";
paths = (
{
closed = 1;
nodes = (
"200 0 LINE",
"157 94 OFFCURVE",
"117 255 OFFCURVE",
"117 402 CURVE SMOOTH",
"117 549 OFFCURVE",
"157 710 OFFCURVE",
"200 804 CURVE",
"235 804 LINE",
"191 715 OFFCURVE",
"148 551 OFFCURVE",
"148 402 CURVE SMOOTH",
"148 253 OFFCURVE",
"191 89 OFFCURVE",
"235 0 CURVE"
);
},
{
closed = 1;
nodes = (
"120 707 OFFCURVE",
"81 552 OFFCURVE",
"81 402 CURVE SMOOTH",
"81 252 OFFCURVE",
"120 97 OFFCURVE",
"161 0 CURVE",
"128 0 LINE",
"87 101 OFFCURVE",
"50 253 OFFCURVE",
"50 402 CURVE SMOOTH",
"50 551 OFFCURVE",
"87 703 OFFCURVE",
"128 804 CURVE",
"161 804 LINE"
);
}
);
width = 275;
}
);
leftMetricsKey = O;
unicode = 0028;
},
{
color = 7;
glyphname = parenright;
lastChange = "2021-03-20 13:51:49 +0000";
layers = (
{
background = {
components = (
{
name = parenleft;
transform = "{-1, 0, 0, -1, 224, 804}";
}
);
};
layerId = master01;
paths = (
{
closed = 1;
nodes = (
"22 431 LINE",
"63 356 OFFCURVE",
"84 274 OFFCURVE",
"84 202 CURVE SMOOTH",
"84 130 OFFCURVE",
"63 48 OFFCURVE",
"22 -27 CURVE",
"54 -27 LINE",
"95 52 OFFCURVE",
"114 131 OFFCURVE",
"114 202 CURVE SMOOTH",
"114 273 OFFCURVE",
"95 352 OFFCURVE",
"54 431 CURVE"
);
},
{
closed = 1;
nodes = (
"88 431 LINE",
"129 356 OFFCURVE",
"150 274 OFFCURVE",
"150 202 CURVE SMOOTH",
"150 130 OFFCURVE",
"129 48 OFFCURVE",
"88 -27 CURVE",
"120 -27 LINE",
"161 52 OFFCURVE",
"180 131 OFFCURVE",
"180 202 CURVE SMOOTH",
"180 273 OFFCURVE",
"161 352 OFFCURVE",
"120 431 CURVE"
);
}
);
width = 210;
},
{
associatedMasterId = master01;
layerId = "EDCC949F-D2D7-43DC-8B38-287C77053D41";
name = "Jul 18 20, 10:57";
paths = (
{
closed = 1;
nodes = (
"225 253 OFFCURVE",
"187 101 OFFCURVE",
"147 0 CURVE",
"114 0 LINE",
"155 97 OFFCURVE",
"194 252 OFFCURVE",
"194 402 CURVE SMOOTH",
"194 552 OFFCURVE",
"155 707 OFFCURVE",
"114 804 CURVE",
"147 804 LINE",
"187 703 OFFCURVE",
"225 551 OFFCURVE",
"225 402 CURVE SMOOTH"
);
},
{
closed = 1;
nodes = (
"158 255 OFFCURVE",
"117 94 OFFCURVE",
"74 0 CURVE",
"40 0 LINE",
"84 89 OFFCURVE",
"127 253 OFFCURVE",
"127 402 CURVE SMOOTH",
"127 551 OFFCURVE",
"84 715 OFFCURVE",
"40 804 CURVE",
"74 804 LINE",
"117 710 OFFCURVE",
"158 549 OFFCURVE",
"158 402 CURVE SMOOTH"
);
}
);
width = 275;
}
);
leftMetricsKey = "=|parenleft";
rightMetricsKey = "=|parenleft";
unicode = 0029;
},
{
color = 7;
glyphname = asterisk;
lastChange = "2021-03-20 13:51:49 +0000";
layers = (
{
background = {
paths = (
{
closed = 1;
nodes = (
"232 804 LINE",
"202 804 LINE",
"202 699 LINE",
"232 699 LINE"
);
},
{
closed = 1;
nodes = (
"166 804 LINE",
"136 804 LINE",
"136 699 LINE",
"166 699 LINE"
);
},
{
closed = 1;
nodes = (
"375 629 LINE",
"367 658 LINE",
"267 627 LINE",
"275 598 LINE"
);
},
{
closed = 1;
nodes = (
"355 692 LINE",
"347 721 LINE",
"247 690 LINE",
"255 661 LINE"
);
},
{
closed = 1;
nodes = (
"101 627 LINE",
"1 658 LINE",
"-7 629 LINE",
"93 598 LINE"
);
},
{
closed = 1;
nodes = (
"121 690 LINE",
"21 721 LINE",
"13 692 LINE",
"113 661 LINE"
);
},
{
closed = 1;
nodes = (
"246 562 LINE",
"309 478 LINE",
"332 496 LINE",
"270 581 LINE"
);
},
{
closed = 1;
nodes = (
"194 523 LINE",
"256 438 LINE",
"280 457 LINE",
"217 541 LINE"
);
},
{
closed = 1;
nodes = (
"35 496 LINE",
"58 478 LINE",
"121 562 LINE",
"97 581 LINE"
);
},
{
closed = 1;
nodes = (
"87 457 LINE",
"111 438 LINE",
"173 523 LINE",
"150 541 LINE"
);
}
);
};
layerId = master01;
paths = (
{
closed = 1;
nodes = (
"284 215 LINE",
"242 269 LINE",
"224 256 LINE",
"266 202 LINE"
);
},
{
closed = 1;
nodes = (
"137 256 LINE",
"119 269 LINE",
"79 214 LINE",
"97 201 LINE"
);
},
{
closed = 1;
nodes = (
"173 230 LINE",
"155 243 LINE",
"115 188 LINE",
"133 175 LINE"
);
},
{
closed = 1;
nodes = (
"121 301 LINE",
"57 321 LINE",
"50 300 LINE",
"115 280 LINE"
);
},
{
closed = 1;
nodes = (
"246 188 LINE",
"205 243 LINE",
"187 230 LINE",
"228 175 LINE"
);
},
{
closed = 1;
nodes = (
"135 347 LINE",
"70 366 LINE",
"63 345 LINE",
"129 326 LINE"
);
},
{
closed = 1;
nodes = (
"166 352 LINE",
"166 419 LINE",
"144 419 LINE",
"144 352 LINE"
);
},
{
closed = 1;
nodes = (
"308 301 LINE",
"301 322 LINE",
"238 300 LINE",
"244 279 LINE"
);
},
{
closed = 1;
nodes = (
"214 352 LINE",
"214 419 LINE",
"192 419 LINE",
"192 352 LINE"
);
},
{
closed = 1;
nodes = (
"294 347 LINE",
"287 368 LINE",
"224 346 LINE",
"230 325 LINE"
);
}
);
width = 358;
},
{
associatedMasterId = master01;
layerId = "E6490C5A-0D41-4C8E-89BA-0B23DFF307B6";
name = "Jul 18 20, 15:07";
paths = (
{
closed = 1;
nodes = (
"303 660 LINE",
"294 690 LINE",
"393 722 LINE",
"403 693 LINE"
);
},
{
closed = 1;
nodes = (
"250 699 LINE",
"250 804 LINE",
"280 804 LINE",
"280 699 LINE"
);
},
{
closed = 1;
nodes = (
"324 597 LINE",
"314 626 LINE",
"414 659 LINE",
"423 629 LINE"
);
},
{
closed = 1;
nodes = (
"183 699 LINE",
"183 804 LINE",
"214 804 LINE",
"214 699 LINE"
);
},
{
closed = 1;
nodes = (
"355 478 LINE",
"294 563 LINE",
"319 581 LINE",
"380 497 LINE"
);
},
{
closed = 1;
nodes = (
"160 660 LINE",
"61 693 LINE",
"70 722 LINE",
"170 690 LINE"
);
},
{
closed = 1;
nodes = (
"302 439 LINE",
"240 524 LINE",
"265 542 LINE",
"327 458 LINE"
);
},
{
closed = 1;
nodes = (
"140 597 LINE",
"40 629 LINE",
"50 659 LINE",
"149 626 LINE"
);
},
{
closed = 1;
nodes = (
"162 439 LINE",
"137 458 LINE",
"199 542 LINE",
"223 524 LINE"
);
},
{
closed = 1;
nodes = (
"108 478 LINE",
"83 497 LINE",
"145 581 LINE",
"170 563 LINE"
);
}
);
width = 463;
}
);
leftMetricsKey = H;
rightMetricsKey = H;
unicode = 002A;
},
{
color = 7;
glyphname = plus;
lastChange = "2021-03-20 13:51:49 +0000";
layers = (
{
background = {
components = (
{
alignment = -1;
name = _h_stem_UC;
transform = "{0, 1.81221, -1, 0, 703, 144}";
}
);
paths = (
{
closed = 1;
nodes = (
"559 387 LINE",
"559 417 LINE",
"418 417 LINE",
"418 387 LINE"
);
},
{
closed = 1;
nodes = (
"559 453 LINE",
"559 483 LINE",
"418 483 LINE",
"418 453 LINE"
);
},
{
closed = 1;
nodes = (
"559 321 LINE",
"559 351 LINE",
"418 351 LINE",
"418 321 LINE"
);
},
{
closed = 1;
nodes = (
"43 351 LINE",
"43 321 LINE",
"184 321 LINE",
"184 351 LINE"
);
},
{
closed = 1;
nodes = (
"43 417 LINE",
"43 387 LINE",
"184 387 LINE",
"184 417 LINE"
);
},
{
closed = 1;
nodes = (
"43 483 LINE",
"43 453 LINE",
"184 453 LINE",
"184 483 LINE"
);
}
);
};
guideLines = (
{
angle = 90;
position = "{325, 276}";
}
);
layerId = master01;
paths = (
{
closed = 1;
nodes = (
"179 346.059 LINE",
"149 346.059 LINE",
"149 52 LINE",
"179 52 LINE"
);
},
{
closed = 1;
nodes = (
"245 346.059 LINE",
"215 346.059 LINE",
"215 52 LINE",
"245 52 LINE"
);
},
{
closed = 1;
nodes = (
"354.08 217 LINE",
"354.08 247 LINE",
"281 247 LINE",
"281 217 LINE"
);
},
{
closed = 1;
nodes = (
"354.08 151 LINE",
"354.08 181 LINE",
"281 181 LINE",
"281 151 LINE"
);
},
{
closed = 1;
nodes = (
"113.08 217 LINE",
"113.08 247 LINE",
"40 247 LINE",
"40 217 LINE"
);
},
{
closed = 1;
nodes = (
"113.08 151 LINE",
"113.08 181 LINE",
"40 181 LINE",
"40 151 LINE"
);
}
);
width = 394;
},
{
associatedMasterId = master01;
layerId = "42B07DAD-40C4-490D-8AD0-9721FAC1994B";
name = "Jul 18 20, 15:10";
paths = (
{
closed = 1;
nodes = (
"405 303 LINE",
"405 334 LINE",
"610 334 LINE",
"610 303 LINE"
);
},
{
closed = 1;
nodes = (
"405 236 LINE",
"405 267 LINE",
"610 267 LINE",
"610 236 LINE"
);
},
{
closed = 1;
nodes = (
"343 0 LINE",
"343 570 LINE",
"374 570 LINE",
"374 0 LINE"
);
},
{
closed = 1;
nodes = (
"277 0 LINE",
"277 570 LINE",
"307 570 LINE",
"307 0 LINE"
);
},
{
closed = 1;
nodes = (
"40 303 LINE",
"40 334 LINE",
"246 334 LINE",
"246 303 LINE"
);
},
{
closed = 1;
nodes = (
"40 236 LINE",
"40 267 LINE",
"246 267 LINE",
"246 236 LINE"
);
}
);
width = 650;
}
);
rightMetricsKey = "=|";
unicode = 002B;
},
{
color = 7;
glyphname = comma;
lastChange = "2021-03-20 13:51:49 +0000";
layers = (
{
background = {
paths = (
{
closed = 1;
nodes = (
"194 -98 LINE",
"163 -98 LINE",
"233 164 LINE",
"264 164 LINE"
);
},
{
closed = 1;
nodes = (
"126 -98 LINE",
"95 -98 LINE",
"165 164 LINE",
"196 164 LINE"
);
},
{
closed = 1;
nodes = (
"57 -98 LINE",
"26 -98 LINE",
"97 164 LINE",
"128 164 LINE"
);
}
);
};
layerId = master01;
paths = (
{
closed = 1;
nodes = (
"71 -42 LINE",
"108 82 LINE",
"77 82 LINE",
"40 -42 LINE"
);
},
{
closed = 1;
nodes = (
"140 -42 LINE",
"176 82 LINE",
"145 82 LINE",
"109 -42 LINE"
);
}
);
width = 216;
},
{
associatedMasterId = master01;
layerId = "FB3EC8E8-3224-402E-9AF6-D7EAC4AB01BF";
name = "Jul 18 20, 10:57";
paths = (
{
closed = 1;
nodes = (
"190 -98 LINE",
"158 -98 LINE",
"228 164 LINE",
"260 164 LINE"
);
},
{
closed = 1;
nodes = (
"121 -98 LINE",
"89 -98 LINE",
"159 164 LINE",
"191 164 LINE"
);
},
{
closed = 1;
nodes = (
"52 -98 LINE",
"20 -98 LINE",
"91 164 LINE",
"123 164 LINE"
);
}
);
width = 310;
}
);
leftMetricsKey = period;
rightMetricsKey = period;
unicode = 002C;
},
{
color = 7;
glyphname = hyphen;
lastChange = "2021-03-20 13:51:49 +0000";
layers = (
{
background = {
components = (
{
alignment = -1;
name = _h_stem_UC;
transform = "{1.20988, 0, 0, 1, 50, 0}";
}
);
};
layerId = master01;
paths = (
{
closed = 1;
nodes = (
"276.248 219 LINE",
"276.248 249 LINE",
"50 249 LINE",
"50 219 LINE"
);
},
{
closed = 1;
nodes = (
"276.248 153 LINE",
"276.248 183 LINE",
"50 183 LINE",
"50 153 LINE"
);
}
);
width = 326;
},
{
associatedMasterId = master01;
layerId = "E6692B7B-75AA-44B4-830A-00DAEA6BD088";
name = "Jul 18 20, 10:58";
paths = (
{
closed = 1;
nodes = (
"40 303 LINE",
"40 334 LINE",
"386 334 LINE",
"386 303 LINE"
);
},
{
closed = 1;
nodes = (
"40 236 LINE",
"40 267 LINE",
"386 267 LINE",
"386 236 LINE"
);
}
);
width = 426;
}
);
leftMetricsKey = H;
rightMetricsKey = H;
unicode = 002D;
},
{
color = 7;
glyphname = period;
lastChange = "2021-03-20 13:51:49 +0000";
layers = (
{
background = {
components = (
{
name = _v_stem_uc;
transform = "{1, 0, 0, 0.20396, 0, 0}";
}
);
};
layerId = master01;
paths = (
{
closed = 1;
nodes = (
"136 0 LINE",
"136 81.992 LINE",
"106 81.992 LINE",
"106 0 LINE"
);
},
{
closed = 1;
nodes = (
"70 0 LINE",
"70 81.992 LINE",
"40 81.992 LINE",
"40 0 LINE"
);
}
);
width = 176;
},
{
associatedMasterId = master01;
layerId = "00CA1DAF-F10A-4CBD-8655-9A8F1FF7059B";
name = "Jul 18 20, 10:58";
paths = (
{
closed = 1;
nodes = (
"183 0 LINE",
"183 164 LINE",
"214 164 LINE",
"214 0 LINE"
);
},
{
closed = 1;
nodes = (
"116 0 LINE",
"116 164 LINE",
"147 164 LINE",
"147 0 LINE"
);
},
{
closed = 1;
nodes = (
"50 0 LINE",
"50 164 LINE",
"81 164 LINE",
"81 0 LINE"
);
}
);
width = 264;
}
);
rightMetricsKey = "=|";
unicode = 002E;
},
{
color = 7;
glyphname = slash;
lastChange = "2021-03-20 13:51:49 +0000";
layers = (
{
background = {
paths = (
{
closed = 1;
nodes = (
"412 864 LINE",
"100 -60 LINE",
"132 -60 LINE",
"444 864 LINE"
);
},
{
closed = 1;
nodes = (
"342 864 LINE",
"30 -60 LINE",
"62 -60 LINE",
"374 864 LINE"
);
},
{
closed = 1;
nodes = (
"272 864 LINE",
"-40 -60 LINE",
"-8 -60 LINE",
"304 864 LINE"
);
}
);
};
guideLines = (
{
position = "{374, -60}";
}
);
layerId = master01;
paths = (
{
closed = 1;
nodes = (
"132 0 LINE",
"268 402 LINE",
"236 402 LINE",
"100 0 LINE"
);
},
{
closed = 1;
nodes = (
"62 0 LINE",
"198 402 LINE",
"166 402 LINE",
"30 0 LINE"
);
}
);
width = 298;
},
{
associatedMasterId = master01;
layerId = "146E5C6B-CF02-4DAB-9ED9-489EF4B838BF";
name = "Jul 18 20, 10:59";
paths = (
{
closed = 1;
nodes = (
"143 0 LINE",
"110 0 LINE",
"382 804 LINE",
"415 804 LINE"
);
},
{
closed = 1;
nodes = (
"73 0 LINE",
"40 0 LINE",
"312 804 LINE",
"345 804 LINE"
);
}
);
width = 455;
}
);
rightMetricsKey = "=|";
unicode = 002F;
},
{
color = 7;
glyphname = zero;
lastChange = "2021-03-20 13:51:49 +0000";
layers = (
{
background = {
components = (
{
alignment = -1;
name = _figure_round;
transform = "{1, 0, 0, 1, 86, 0}";
},
{
alignment = -1;
name = _figure_round;
transform = "{1, 0, 0, -1, 86, 804}";
},
{
name = _v_stem_uc;
transform = "{1, 0, 0, 0.41615, 58, 235}";
},
{
name = _v_stem_uc;
transform = "{1, 0, 0, 0.41615, 394, 235}";
}
);
};
layerId = master01;
paths = (
{
closed = 1;
nodes = (
"30 39 OFFCURVE",
"76 -15 OFFCURVE",
"153 -15 CURVE SMOOTH",
"230 -15 OFFCURVE",
"276 39 OFFCURVE",
"276 106 CURVE",
"246 106 LINE",
"246 56 OFFCURVE",
"214 15 OFFCURVE",
"153 15 CURVE SMOOTH",
"92 15 OFFCURVE",
"60 56 OFFCURVE",
"60 106 CURVE",
"30 106 LINE"
);
},
{
closed = 1;
nodes = (
"96 73 OFFCURVE",
"119 51 OFFCURVE",
"153 51 CURVE SMOOTH",
"187 51 OFFCURVE",
"210 73 OFFCURVE",
"210 106 CURVE",
"180 106 LINE",
"180 92 OFFCURVE",
"172 81 OFFCURVE",
"153 81 CURVE SMOOTH",
"134 81 OFFCURVE",
"126 92 OFFCURVE",
"126 106 CURVE",
"96 106 LINE"
);
},
{
closed = 1;
nodes = (
"126 106 LINE",
"126 296.092 LINE",
"96 296.092 LINE",
"96 106 LINE"
);
},
{
closed = 1;
nodes = (
"60 106 LINE",
"60 296.092 LINE",
"30 296.092 LINE",
"30 106 LINE"
);
},
{
closed = 1;
nodes = (
"60 296 LINE",
"60 346 OFFCURVE",
"92 387 OFFCURVE",
"153 387 CURVE SMOOTH",
"214 387 OFFCURVE",
"246 346 OFFCURVE",
"246 296 CURVE",
"276 296 LINE",
"276 363 OFFCURVE",
"230 417 OFFCURVE",
"153 417 CURVE SMOOTH",
"76 417 OFFCURVE",
"30 363 OFFCURVE",
"30 296 CURVE"
);
},
{
closed = 1;
nodes = (
"126 296 LINE",
"126 310 OFFCURVE",
"134 321 OFFCURVE",
"153 321 CURVE SMOOTH",
"172 321 OFFCURVE",
"180 310 OFFCURVE",
"180 296 CURVE",
"210 296 LINE",
"210 329 OFFCURVE",
"187 351 OFFCURVE",
"153 351 CURVE SMOOTH",
"119 351 OFFCURVE",
"96 329 OFFCURVE",
"96 296 CURVE"
);
},
{
closed = 1;
nodes = (
"276 106 LINE",
"276 296.092 LINE",
"246 296.092 LINE",
"246 106 LINE"
);
},
{
closed = 1;
nodes = (
"210 106 LINE",
"210 296.092 LINE",
"180 296.092 LINE",
"180 106 LINE"
);
}
);
width = 306;
},
{
associatedMasterId = master01;
layerId = "A76718DD-68CB-43AF-93FE-A36BB6C26867";
name = "Jul 17 20, 15:17";
paths = (
{
closed = 1;
nodes = (
"538 96 OFFCURVE",
"426 -15 OFFCURVE",
"289 -15 CURVE SMOOTH",
"151 -15 OFFCURVE",
"40 96 OFFCURVE",
"40 233 CURVE SMOOTH",
"40 571 LINE SMOOTH",
"40 708 OFFCURVE",
"151 819 OFFCURVE",
"289 819 CURVE SMOOTH",
"426 819 OFFCURVE",
"538 708 OFFCURVE",
"538 571 CURVE SMOOTH",
"538 233 LINE SMOOTH"
);
},
{
closed = 1;
nodes = (
"507 571 LINE SMOOTH",
"507 691 OFFCURVE",
"409 789 OFFCURVE",
"289 789 CURVE SMOOTH",
"168 789 OFFCURVE",
"71 691 OFFCURVE",
"71 571 CURVE SMOOTH",
"71 233 LINE SMOOTH",
"71 113 OFFCURVE",
"168 15 OFFCURVE",
"289 15 CURVE SMOOTH",
"409 15 OFFCURVE",
"507 113 OFFCURVE",
"507 233 CURVE SMOOTH"
);
},
{
closed = 1;
nodes = (
"471 133 OFFCURVE",
"390 51 OFFCURVE",
"289 51 CURVE SMOOTH",
"188 51 OFFCURVE",
"106 133 OFFCURVE",
"106 233 CURVE SMOOTH",
"106 571 LINE SMOOTH",
"106 671 OFFCURVE",
"188 753 OFFCURVE",
"289 753 CURVE SMOOTH",
"390 753 OFFCURVE",
"471 671 OFFCURVE",
"471 571 CURVE SMOOTH",
"471 233 LINE SMOOTH"
);
},
{
closed = 1;
nodes = (
"441 571 LINE SMOOTH",
"441 654 OFFCURVE",
"373 722 OFFCURVE",
"289 722 CURVE SMOOTH",
"205 722 OFFCURVE",
"137 654 OFFCURVE",
"137 571 CURVE SMOOTH",
"137 233 LINE SMOOTH",
"137 150 OFFCURVE",
"205 82 OFFCURVE",
"289 82 CURVE SMOOTH",
"373 82 OFFCURVE",
"441 150 OFFCURVE",
"441 233 CURVE SMOOTH"
);
},
{
closed = 1;
nodes = (
"405 169 OFFCURVE",
"353 117 OFFCURVE",
"289 117 CURVE SMOOTH",
"225 117 OFFCURVE",
"173 169 OFFCURVE",
"173 233 CURVE SMOOTH",
"173 571 LINE SMOOTH",
"173 635 OFFCURVE",
"225 687 OFFCURVE",
"289 687 CURVE SMOOTH",
"353 687 OFFCURVE",
"405 635 OFFCURVE",
"405 571 CURVE SMOOTH",
"405 233 LINE SMOOTH"
);
},
{
closed = 1;
nodes = (
"374 571 LINE SMOOTH",
"374 618 OFFCURVE",
"336 656 OFFCURVE",
"289 656 CURVE SMOOTH",
"242 656 OFFCURVE",
"204 618 OFFCURVE",
"204 571 CURVE SMOOTH",
"204 233 LINE SMOOTH",
"204 186 OFFCURVE",
"242 148 OFFCURVE",
"289 148 CURVE SMOOTH",
"336 148 OFFCURVE",
"374 186 OFFCURVE",
"374 233 CURVE SMOOTH"
);
}
);
width = 578;
}
);
leftMetricsKey = O;
rightMetricsKey = O;
unicode = 0030;
},
{
color = 7;
glyphname = one;
lastChange = "2021-03-20 13:51:49 +0000";
layers = (
{
background = {
components = (
{
alignment = -1;
name = _v_stem_uc;
transform = "{1, 0, 0, 1, 116, 0}";
},
{
alignment = -1;
name = _h_stem_UC;
transform = "{0.4, 0, 0, 1, 16, 321}";
}
);
};
layerId = master01;
paths = (
{
closed = 1;
nodes = (
"256 0 LINE",
"256 402 LINE",
"226 402 LINE",
"226 0 LINE"
);
},
{
closed = 1;
nodes = (
"190 0 LINE",
"190 402 LINE",
"160 402 LINE",
"160 0 LINE"
);
},
{
closed = 1;
nodes = (
"124 305 LINE",
"124 335 LINE",
"50 335 LINE",
"50 305 LINE"
);
},
{
closed = 1;
nodes = (
"124 371 LINE",
"124 401 LINE",
"50 401 LINE",
"50 371 LINE"
);
}
);
width = 306;
},
{
associatedMasterId = master01;
background = {
paths = (
{
closed = 1;
nodes = (
"20 773 LINE",
"20 804 LINE",
"133 804 LINE",
"133 773 LINE"
);
},
{
closed = 1;
nodes = (
"20 707 LINE",
"20 738 LINE",
"133 738 LINE",
"133 707 LINE"
);
},
{
closed = 1;
nodes = (
"20 640 LINE",
"20 671 LINE",
"133 671 LINE",
"133 640 LINE"
);
},
{
closed = 1;
nodes = (
"297 0 LINE",
"297 804 LINE",
"328 804 LINE",
"328 0 LINE"
);
},
{
closed = 1;
nodes = (
"230 0 LINE",
"230 804 LINE",
"261 804 LINE",
"261 0 LINE"
);
},
{
closed = 1;
nodes = (
"164 0 LINE",
"164 804 LINE",
"195 804 LINE",
"195 0 LINE"
);
}
);
};
layerId = "8CE84360-553E-4753-BBF0-2F057D8E4C70";
name = "Jul 17 20, 15:25";
paths = (
{
closed = 1;
nodes = (
"20 773 LINE",
"20 804 LINE",
"133 804 LINE",
"133 773 LINE"
);
},
{
closed = 1;
nodes = (
"20 707 LINE",
"20 738 LINE",
"133 738 LINE",
"133 707 LINE"
);
},
{
closed = 1;
nodes = (
"20 640 LINE",
"20 671 LINE",
"133 671 LINE",
"133 640 LINE"
);
},
{
closed = 1;
nodes = (
"297 0 LINE",
"297 804 LINE",
"328 804 LINE",
"328 0 LINE"
);
},
{
closed = 1;
nodes = (
"230 0 LINE",
"230 804 LINE",
"261 804 LINE",
"261 0 LINE"
);
},
{
closed = 1;
nodes = (
"164 0 LINE",
"164 804 LINE",
"195 804 LINE",
"195 0 LINE"
);
}
);
width = 398;
}
);
rightMetricsKey = H;
unicode = 0031;
},
{
color = 7;
glyphname = two;
lastChange = "2021-03-20 13:51:49 +0000";
layers = (
{
background = {
components = (
{
name = _figure_round;
transform = "{1, 0, 0, -1, -32, 804}";
},
{
name = _h_stem_UC;
transform = "{1.58802, 0, 0, 1, 12, -321}";
}
);
paths = (
{
closed = 1;
nodes = (
"342 301 LINE SMOOTH",
"454 419 OFFCURVE",
"488 482 OFFCURVE",
"488 569 CURVE",
"458 569 LINE",
"458 495 OFFCURVE",
"430 443 OFFCURVE",
"334 341 CURVE SMOOTH",
"202 198 LINE",
"244 198 LINE"
);
},
{
closed = 1;
nodes = (
"315 373 LINE SMOOTH",
"402 468 OFFCURVE",
"422 505 OFFCURVE",
"422 569 CURVE",
"392 569 LINE",
"392 516 OFFCURVE",
"376 486 OFFCURVE",
"307 411 CURVE SMOOTH",
"114 198 LINE",
"155 198 LINE"
);
},
{
closed = 1;
nodes = (
"301 457 LINE SMOOTH",
"339 499 OFFCURVE",
"356 533 OFFCURVE",
"356 569 CURVE",
"326 569 LINE",
"326 545 OFFCURVE",
"313 517 OFFCURVE",
"291 493 CURVE SMOOTH",
"24 198 LINE",
"65 198 LINE"
);
}
);
};
layerId = master01;
paths = (
{
closed = 1;
nodes = (
"71 133 LINE",
"168 247 LINE SMOOTH",
"186 269 OFFCURVE",
"203 283 OFFCURVE",
"203 306 CURVE",
"173 305 LINE",
"173 292 OFFCURVE",
"158 282 OFFCURVE",
"142 263 CURVE SMOOTH",
"31 133 LINE"
);
},
{
closed = 1;
nodes = (
"263 0 LINE",
"263 30 LINE",
"30 30 LINE",
"30 0 LINE"
);
},
{
closed = 1;
nodes = (
"263 66 LINE",
"263 96 LINE",
"30 96 LINE",
"30 66 LINE"
);
},
{
closed = 1;
nodes = (
"156 133 LINE",
"219 204 LINE SMOOTH",
"243 231 OFFCURVE",
"269 270 OFFCURVE",
"269 306 CURVE",
"239 304 LINE",
"239 274 OFFCURVE",
"218 247 OFFCURVE",
"188 213 CURVE SMOOTH",
"116 133 LINE"
);
},
{
closed = 1;
nodes = (
"131 297 LINE",
"131 313 OFFCURVE",
"135 321 OFFCURVE",
"152 321 CURVE SMOOTH",
"166 321 OFFCURVE",
"173 314 OFFCURVE",
"173 305 CURVE",
"203 306 LINE",
"203 334 OFFCURVE",
"184 351 OFFCURVE",
"153 351 CURVE SMOOTH",
"118 351 OFFCURVE",
"101 332 OFFCURVE",
"101 297 CURVE"
);
},
{
closed = 1;
nodes = (
"65 294 LINE",
"65 353 OFFCURVE",
"95 387 OFFCURVE",
"152 387 CURVE SMOOTH",
"206 387 OFFCURVE",
"239 355 OFFCURVE",
"239 304 CURVE",
"269 306 LINE",
"269 371 OFFCURVE",
"220 417 OFFCURVE",
"152 417 CURVE SMOOTH",
"80 417 OFFCURVE",
"35 367 OFFCURVE",
"35 294 CURVE"
);
}
);
width = 299;
},
{
associatedMasterId = master01;
layerId = "38DF1B7E-DAB1-46B4-AF25-AEB0380ADBDF";
name = "Jul 17 20, 15:26";
paths = (
{
closed = 1;
nodes = (
"528 497 OFFCURVE",
"506 455 OFFCURVE",
"469 407 CURVE SMOOTH",
"456 390 OFFCURVE",
"365 288 OFFCURVE",
"280 194 CURVE",
"239 194 LINE",
"327 293 OFFCURVE",
"432 409 OFFCURVE",
"444 426 CURVE",
"479 471 OFFCURVE",
"497 505 OFFCURVE",
"497 571 CURVE SMOOTH",
"497 691 OFFCURVE",
"399 789 OFFCURVE",
"279 789 CURVE SMOOTH",
"158 789 OFFCURVE",
"61 691 OFFCURVE",
"61 571 CURVE",
"30 571 LINE",
"30 708 OFFCURVE",
"141 819 OFFCURVE",
"279 819 CURVE SMOOTH",
"416 819 OFFCURVE",
"528 708 OFFCURVE",
"528 571 CURVE SMOOTH"
);
},
{
closed = 1;
nodes = (
"461 521 OFFCURVE",
"451 492 OFFCURVE",
"416 448 CURVE SMOOTH",
"403 431 OFFCURVE",
"282 296 OFFCURVE",
"190 194 CURVE",
"149 194 LINE",
"241 297 OFFCURVE",
"378 449 OFFCURVE",
"392 467 CURVE SMOOTH",
"422 505 OFFCURVE",
"431 528 OFFCURVE",
"431 571 CURVE SMOOTH",
"431 654 OFFCURVE",
"363 722 OFFCURVE",
"279 722 CURVE SMOOTH",
"195 722 OFFCURVE",
"127 654 OFFCURVE",
"127 571 CURVE",
"96 571 LINE",
"96 671 OFFCURVE",
"178 753 OFFCURVE",
"279 753 CURVE SMOOTH",
"380 753 OFFCURVE",
"461 671 OFFCURVE",
"461 571 CURVE SMOOTH"
);
},
{
closed = 1;
nodes = (
"395 535 OFFCURVE",
"390 522 OFFCURVE",
"364 488 CURVE SMOOTH",
"355 477 OFFCURVE",
"195 298 OFFCURVE",
"102 194 CURVE",
"60 194 LINE",
"148 291 OFFCURVE",
"331 497 OFFCURVE",
"340 507 CURVE",
"361 535 OFFCURVE",
"364 543 OFFCURVE",
"364 571 CURVE SMOOTH",
"364 618 OFFCURVE",
"326 656 OFFCURVE",
"279 656 CURVE SMOOTH",
"232 656 OFFCURVE",
"194 618 OFFCURVE",
"194 571 CURVE",
"163 571 LINE",
"163 635 OFFCURVE",
"215 687 OFFCURVE",
"279 687 CURVE SMOOTH",
"343 687 OFFCURVE",
"395 635 OFFCURVE",
"395 571 CURVE SMOOTH"
);
},
{
closed = 1;
nodes = (
"58 133 LINE",
"58 164 LINE",
"505 164 LINE",
"505 133 LINE"
);
},
{
closed = 1;
nodes = (
"58 66 LINE",
"58 97 LINE",
"505 97 LINE",
"505 66 LINE"
);
},
{
closed = 1;
nodes = (
"58 0 LINE",
"58 31 LINE",
"505 31 LINE",
"505 0 LINE"
);
}
);
width = 558;
},
{
associatedMasterId = master01;
background = {
paths = (
{
closed = 1;
nodes = (
"382 301 LINE SMOOTH",
"457 376 OFFCURVE",
"528 451 OFFCURVE",
"528 569 CURVE",
"498 569 LINE",
"498 467 OFFCURVE",
"435 403 OFFCURVE",
"374 341 CURVE SMOOTH",
"342 308 LINE",
"348 267 LINE"
);
},
{
closed = 1;
nodes = (
"355 373 LINE SMOOTH",
"410 432 OFFCURVE",
"462 481 OFFCURVE",
"462 569 CURVE",
"432 569 LINE",
"432 497 OFFCURVE",
"391 456 OFFCURVE",
"347 411 CURVE SMOOTH",
"319 382 LINE",
"322 338 LINE"
);
},
{
closed = 1;
nodes = (
"341 457 LINE SMOOTH",
"372 488 OFFCURVE",
"396 527 OFFCURVE",
"396 569 CURVE",
"366 569 LINE",
"366 543 OFFCURVE",
"351 513 OFFCURVE",
"331 493 CURVE SMOOTH",
"307 469 LINE",
"312 428 LINE"
);
}
);
};
components = (
{
name = _figure_round;
transform = "{1, 0, 0, -1, 8, 804}";
},
{
name = _h_stem_UC;
transform = "{1.58802, 0, 0, 1, 52, -321}";
}
);
layerId = "3B59135D-C78F-4559-81CB-1B87BA60BCCB";
name = "Jul 18 20, 11:11";
paths = (
{
closed = 1;
nodes = (
"465 397 LINE SMOOTH",
"506 441 OFFCURVE",
"528 504 OFFCURVE",
"528 569 CURVE",
"498 569 LINE",
"498 510 OFFCURVE",
"480 461 OFFCURVE",
"441 417 CURVE SMOOTH",
"243 198 LINE",
"284 198 LINE"
);
},
{
closed = 1;
nodes = (
"412 437 LINE SMOOTH",
"446 475 OFFCURVE",
"462 519 OFFCURVE",
"462 569 CURVE",
"432 569 LINE",
"432 525 OFFCURVE",
"419 489 OFFCURVE",
"389 457 CURVE SMOOTH",
"153 198 LINE",
"194 198 LINE"
);
},
{
closed = 1;
nodes = (
"355 473 LINE SMOOTH",
"386 507 OFFCURVE",
"396 533 OFFCURVE",
"396 569 CURVE",
"366 569 LINE",
"366 540 OFFCURVE",
"359 522 OFFCURVE",
"332 492 CURVE SMOOTH",
"64 198 LINE",
"104 198 LINE"
);
}
);
width = 558;
}
);
leftMetricsKey = zero;
rightMetricsKey = zero;
unicode = 0032;
},
{
color = 7;
glyphname = three;
lastChange = "2021-03-20 13:51:49 +0000";
layers = (
{
layerId = master01;
paths = (
{
closed = 1;
nodes = (
"60 293 LINE",
"60 344 OFFCURVE",
"101 386 OFFCURVE",
"162 386 CURVE SMOOTH",
"227 386 OFFCURVE",
"265 344 OFFCURVE",
"265 293 CURVE",
"294 293 LINE",
"294 360 OFFCURVE",
"243 416 OFFCURVE",
"162 416 CURVE SMOOTH",
"84 416 OFFCURVE",
"30 360 OFFCURVE",
"30 287 CURVE"
);
},
{
closed = 1;
nodes = (
"243 -15 OFFCURVE",
"294 41 OFFCURVE",
"294 114 CURVE",
"265 114 LINE",
"265 60 OFFCURVE",
"223 14 OFFCURVE",
"162 14 CURVE SMOOTH",
"103 14 OFFCURVE",
"60 60 OFFCURVE",
"60 114 CURVE",
"30 114 LINE",
"30 41 OFFCURVE",
"84 -15 OFFCURVE",
"162 -15 CURVE SMOOTH"
);
},
{
closed = 1;
nodes = (
"197 60 OFFCURVE",
"219 83 OFFCURVE",
"219 114 CURVE",
"189 114 LINE",
"188 99 OFFCURVE",
"177 90 OFFCURVE",
"162 90 CURVE SMOOTH",
"144 90 OFFCURVE",
"135 102 OFFCURVE",
"135 114 CURVE",
"105 114 LINE",
"105 83 OFFCURVE",
"128 60 OFFCURVE",
"162 60 CURVE SMOOTH"
);
},
{
closed = 1;
nodes = (
"219 114 LINE",
"219 144 OFFCURVE",
"197 168 OFFCURVE",
"162 168 CURVE",
"162 138 LINE",
"178 138 OFFCURVE",
"189 129 OFFCURVE",
"189 114 CURVE"
);
},
{
closed = 1;
nodes = (
"294 114 LINE",
"294 188 OFFCURVE",
"252 244 OFFCURVE",
"162 244 CURVE",
"162 214 LINE",
"226 214 OFFCURVE",
"265 171 OFFCURVE",
"265 114 CURVE"
);
},
{
closed = 1;
nodes = (
"137 287 LINE",
"137 298 OFFCURVE",
"146 307 OFFCURVE",
"163 307 CURVE SMOOTH",
"180 307 OFFCURVE",
"190 300 OFFCURVE",
"190 290 CURVE",
"219 290 LINE",
"219 316 OFFCURVE",
"197 340 OFFCURVE",
"162 340 CURVE SMOOTH",
"129 340 OFFCURVE",
"106 316 OFFCURVE",
"106 287 CURVE"
);
},
{
closed = 1;
nodes = (
"218 278 OFFCURVE",
"219 283 OFFCURVE",
"219 290 CURVE",
"190 290 LINE",
"190 287 OFFCURVE",
"189 282 OFFCURVE",
"188 280 CURVE",
"217 273 LINE"
);
},
{
closed = 1;
nodes = (
"291 260 OFFCURVE",
"294 274 OFFCURVE",
"294 293 CURVE",
"265 293 LINE",
"265 282 OFFCURVE",
"262 271 OFFCURVE",
"259 263 CURVE",
"284 242 LINE"
);
}
);
width = 324;
},
{
associatedMasterId = master01;
layerId = "8EB582A6-5D60-4ACB-B1B3-28869F13085F";
name = "Jul 17 20, 15:22";
paths = (
{
closed = 1;
nodes = (
"520 518 OFFCURVE",
"503 469 OFFCURVE",
"475 429 CURVE",
"453 451 LINE",
"476 485 OFFCURVE",
"489 526 OFFCURVE",
"489 571 CURVE SMOOTH",
"489 691 OFFCURVE",
"391 789 OFFCURVE",
"271 789 CURVE SMOOTH",
"150 789 OFFCURVE",
"53 691 OFFCURVE",
"53 571 CURVE",
"22 571 LINE",
"22 708 OFFCURVE",
"133 819 OFFCURVE",
"271 819 CURVE SMOOTH",
"408 819 OFFCURVE",
"520 708 OFFCURVE",
"520 571 CURVE SMOOTH"
);
},
{
closed = 1;
nodes = (
"453 534 OFFCURVE",
"442 500 OFFCURVE",
"424 472 CURVE",
"415 477 OFFCURVE",
"406 482 OFFCURVE",
"397 487 CURVE",
"413 511 OFFCURVE",
"422 540 OFFCURVE",
"422 571 CURVE SMOOTH",
"422 654 OFFCURVE",
"354 722 OFFCURVE",
"271 722 CURVE SMOOTH",
"187 722 OFFCURVE",
"119 654 OFFCURVE",
"119 571 CURVE",
"88 571 LINE",
"88 671 OFFCURVE",
"170 753 OFFCURVE",
"271 753 CURVE SMOOTH",
"371 753 OFFCURVE",
"453 671 OFFCURVE",
"453 571 CURVE SMOOTH"
);
},
{
closed = 1;
nodes = (
"387 544 OFFCURVE",
"378 520 OFFCURVE",
"364 501 CURVE",
"353 505 OFFCURVE",
"342 508 OFFCURVE",
"331 510 CURVE",
"346 526 OFFCURVE",
"356 547 OFFCURVE",
"356 571 CURVE SMOOTH",
"356 618 OFFCURVE",
"318 656 OFFCURVE",
"271 656 CURVE SMOOTH",
"224 656 OFFCURVE",
"185 618 OFFCURVE",
"185 571 CURVE",
"155 571 LINE",
"155 635 OFFCURVE",
"207 687 OFFCURVE",
"271 687 CURVE SMOOTH",
"335 687 OFFCURVE",
"387 635 OFFCURVE",
"387 571 CURVE SMOOTH"
);
},
{
closed = 1;
nodes = (
"521 93 OFFCURVE",
"408 -15 OFFCURVE",
"271 -15 CURVE SMOOTH",
"133 -15 OFFCURVE",
"20 93 OFFCURVE",
"20 235 CURVE",
"51 235 LINE",
"51 110 OFFCURVE",
"150 15 OFFCURVE",
"271 15 CURVE SMOOTH",
"391 15 OFFCURVE",
"491 110 OFFCURVE",
"491 235 CURVE SMOOTH",
"491 360 OFFCURVE",
"391 454 OFFCURVE",
"271 454 CURVE SMOOTH",
"214 454 LINE",
"214 485 LINE",
"271 485 LINE SMOOTH",
"408 485 OFFCURVE",
"521 377 OFFCURVE",
"521 235 CURVE SMOOTH"
);
},
{
closed = 1;
nodes = (
"389 166 OFFCURVE",
"335 117 OFFCURVE",
"271 117 CURVE SMOOTH",
"207 117 OFFCURVE",
"153 166 OFFCURVE",
"153 235 CURVE",
"184 235 LINE",
"184 183 OFFCURVE",
"224 148 OFFCURVE",
"271 148 CURVE SMOOTH",
"318 148 OFFCURVE",
"358 183 OFFCURVE",
"358 235 CURVE SMOOTH",
"358 287 OFFCURVE",
"318 322 OFFCURVE",
"271 322 CURVE SMOOTH",
"214 322 LINE",
"214 352 LINE",
"271 352 LINE SMOOTH",
"335 352 OFFCURVE",
"389 304 OFFCURVE",
"389 235 CURVE SMOOTH"
);
},
{
closed = 1;
nodes = (
"455 130 OFFCURVE",
"371 51 OFFCURVE",
"271 51 CURVE SMOOTH",
"170 51 OFFCURVE",
"86 130 OFFCURVE",
"86 235 CURVE",
"117 235 LINE",
"117 147 OFFCURVE",
"187 82 OFFCURVE",
"271 82 CURVE SMOOTH",
"354 82 OFFCURVE",
"424 147 OFFCURVE",
"424 235 CURVE SMOOTH",
"424 324 OFFCURVE",
"354 388 OFFCURVE",
"271 388 CURVE SMOOTH",
"214 388 LINE",
"214 419 LINE",
"271 419 LINE SMOOTH",
"371 419 OFFCURVE",
"455 341 OFFCURVE",
"455 235 CURVE SMOOTH"
);
}
);
width = 551;
}
);
leftMetricsKey = zero;
rightMetricsKey = zero;
unicode = 0033;
},
{
color = 7;
glyphname = four;
lastChange = "2021-03-20 13:51:49 +0000";
layers = (
{
background = {
components = (
{
name = _v_stem_uc;
transform = "{1, 0, 0, 0.5, 247, 0}";
},
{
name = _h_stem_UC;
transform = "{0.82, 0, 0, 1, 26, -185}";
},
{
name = _h_stem_UC;
transform = "{0.19705, 0, 0, 1, 495, -185}";
}
);
paths = (
{
closed = 1;
nodes = (
"216 335 LINE",
"183 335 LINE",
"411 804 LINE",
"444 804 LINE"
);
},
{
closed = 1;
nodes = (
"143 335 LINE",
"110 335 LINE",
"338 804 LINE",
"371 804 LINE"
);
},
{
closed = 1;
nodes = (
"70 335 LINE",
"37 335 LINE",
"265 804 LINE",
"298 804 LINE"
);
}
);
};
layerId = master01;
paths = (
{
closed = 1;
nodes = (
"161 197 LINE",
"265 411 LINE",
"232 411 LINE",
"127 197 LINE"
);
},
{
closed = 1;
nodes = (
"165 54 LINE",
"165 84 LINE",
"30 84 LINE",
"30 54 LINE"
);
},
{
closed = 1;
nodes = (
"165 126 LINE",
"165 156 LINE",
"30 156 LINE",
"30 126 LINE"
);
},
{
closed = 1;
nodes = (
"237 0 LINE",
"237 206 LINE",
"207 206 LINE",
"207 0 LINE"
);
},
{
closed = 1;
nodes = (
"309 0 LINE",
"309 206 LINE",
"279 206 LINE",
"279 0 LINE"
);
},
{
closed = 1;
nodes = (
"81 197 LINE",
"185 411 LINE",
"152 411 LINE",
"47 197 LINE"
);
}
);
width = 339;
},
{
associatedMasterId = master01;
layerId = "62EC9CCC-4946-4032-A992-00DF683C7106";
name = "Jul 17 20, 15:38";
paths = (
{
closed = 1;
nodes = (
"213 330 LINE",
"179 330 LINE",
"409 804 LINE",
"443 804 LINE"
);
},
{
closed = 1;
nodes = (
"140 330 LINE",
"105 330 LINE",
"335 804 LINE",
"370 804 LINE"
);
},
{
closed = 1;
nodes = (
"490 268 LINE",
"490 299 LINE",
"545 299 LINE",
"545 268 LINE"
);
},
{
closed = 1;
nodes = (
"490 202 LINE",
"490 233 LINE",
"545 233 LINE",
"545 202 LINE"
);
},
{
closed = 1;
nodes = (
"66 330 LINE",
"31 330 LINE",
"261 804 LINE",
"296 804 LINE"
);
},
{
closed = 1;
nodes = (
"428 0 LINE",
"428 470 LINE",
"459 470 LINE",
"459 0 LINE"
);
},
{
closed = 1;
nodes = (
"490 135 LINE",
"490 166 LINE",
"545 166 LINE",
"545 135 LINE"
);
},
{
closed = 1;
nodes = (
"362 0 LINE",
"362 470 LINE",
"392 470 LINE",
"392 0 LINE"
);
},
{
closed = 1;
nodes = (
"295 0 LINE",
"295 470 LINE",
"326 470 LINE",
"326 0 LINE"
);
},
{
closed = 1;
nodes = (
"30 268 LINE",
"30 299 LINE",
"264 299 LINE",
"264 268 LINE"
);
},
{
closed = 1;
nodes = (
"30 202 LINE",
"30 233 LINE",
"264 233 LINE",
"264 202 LINE"
);
},
{
closed = 1;
nodes = (
"30 135 LINE",
"30 166 LINE",
"264 166 LINE",
"264 135 LINE"
);
}
);
width = 585;
}
);
leftMetricsKey = zero;
rightMetricsKey = zero;
unicode = 0034;
},
{
color = 7;
glyphname = five;
lastChange = "2021-03-20 13:51:49 +0000";
layers = (
{
background = {
components = (
{
name = _figure_round;
transform = "{1, 0, 0, 1, 8, 0}";
},
{
name = _v_stem_uc;
transform = "{1, 0, 0, 0.36796, 3, 310}";
},
{
name = _h_stem_UC;
transform = "{1.58802, 0, 0, 1, 53, 321}";
}
);
paths = (
{
closed = 1;
nodes = (
"260 455 OFFCURVE",
"270 455 OFFCURVE",
"279 455 CURVE SMOOTH",
"411 455 OFFCURVE",
"498 360 OFFCURVE",
"498 235 CURVE",
"528 235 LINE",
"528 377 OFFCURVE",
"428 485 OFFCURVE",
"279 485 CURVE SMOOTH",
"270 485 OFFCURVE",
"260 485 OFFCURVE",
"251 484 CURVE",
"251 454 LINE"
);
},
{
closed = 1;
nodes = (
"260 322 OFFCURVE",
"269 323 OFFCURVE",
"279 323 CURVE SMOOTH",
"336 323 OFFCURVE",
"366 288 OFFCURVE",
"366 235 CURVE",
"396 235 LINE",
"396 304 OFFCURVE",
"353 353 OFFCURVE",
"279 353 CURVE SMOOTH",
"269 353 OFFCURVE",
"260 352 OFFCURVE",
"251 351 CURVE",
"251 320 LINE"
);
},
{
closed = 1;
nodes = (
"260 388 OFFCURVE",
"269 389 OFFCURVE",
"279 389 CURVE SMOOTH",
"373 389 OFFCURVE",
"432 324 OFFCURVE",
"432 235 CURVE",
"462 235 LINE",
"462 340 OFFCURVE",
"390 419 OFFCURVE",
"279 419 CURVE SMOOTH",
"269 419 OFFCURVE",
"260 418 OFFCURVE",
"251 417 CURVE",
"251 387 LINE"
);
}
);
};
guideLines = (
{
angle = 90;
position = "{302, 582}";
}
);
layerId = master01;
paths = (
{
closed = 1;
nodes = (
"313 105 LINE",
"313 166 OFFCURVE",
"275 217 OFFCURVE",
"208 225 CURVE",
"208 195 LINE",
"257 188 OFFCURVE",
"283 150 OFFCURVE",
"283 105 CURVE"
);
},
{
closed = 1;
nodes = (
"106 141 LINE",
"106 269 LINE",
"76 269 LINE",
"76 141 LINE"
);
},
{
closed = 1;
nodes = (
"247 105 LINE",
"247 132 OFFCURVE",
"232 151 OFFCURVE",
"208 157 CURVE",
"208 125 LINE",
"214 121 OFFCURVE",
"217 114 OFFCURVE",
"217 105 CURVE"
);
},
{
closed = 1;
nodes = (
"172 141 LINE",
"172 269 LINE",
"142 269 LINE",
"142 141 LINE"
);
},
{
closed = 1;
nodes = (
"304.883 372 LINE",
"304.883 402 LINE",
"76 402 LINE",
"76 372 LINE"
);
},
{
closed = 1;
nodes = (
"304.883 306 LINE",
"304.883 336 LINE",
"76 336 LINE",
"76 306 LINE"
);
},
{
closed = 1;
nodes = (
"67 38 OFFCURVE",
"113 -16 OFFCURVE",
"190 -16 CURVE SMOOTH",
"267 -16 OFFCURVE",
"313 38 OFFCURVE",
"313 105 CURVE",
"283 105 LINE",
"283 55 OFFCURVE",
"251 14 OFFCURVE",
"190 14 CURVE SMOOTH",
"129 14 OFFCURVE",
"97 55 OFFCURVE",
"97 105 CURVE",
"67 105 LINE"
);
},
{
closed = 1;
nodes = (
"133 72 OFFCURVE",
"156 50 OFFCURVE",
"190 50 CURVE SMOOTH",
"224 50 OFFCURVE",
"247 72 OFFCURVE",
"247 105 CURVE",
"217 105 LINE",
"217 91 OFFCURVE",
"209 80 OFFCURVE",
"190 80 CURVE SMOOTH",
"171 80 OFFCURVE",
"163 91 OFFCURVE",
"163 105 CURVE",
"133 105 LINE"
);
}
);
width = 363;
},
{
associatedMasterId = master01;
layerId = "FCD010E0-994D-4B99-8CB4-A136F284EBF4";
name = "Jul 17 20, 15:41";
paths = (
{
closed = 1;
nodes = (
"58 773 LINE",
"58 804 LINE",
"493 804 LINE",
"493 773 LINE"
);
},
{
closed = 1;
nodes = (
"58 707 LINE",
"58 738 LINE",
"493 738 LINE",
"493 707 LINE"
);
},
{
closed = 1;
nodes = (
"58 640 LINE",
"58 671 LINE",
"493 671 LINE",
"493 640 LINE"
);
},
{
closed = 1;
nodes = (
"191 312 LINE",
"191 610 LINE",
"222 610 LINE",
"222 312 LINE"
);
},
{
closed = 1;
nodes = (
"124 312 LINE",
"124 610 LINE",
"155 610 LINE",
"155 312 LINE"
);
},
{
closed = 1;
nodes = (
"58 312 LINE",
"58 610 LINE",
"89 610 LINE",
"89 312 LINE"
);
},
{
closed = 1;
nodes = (
"528 96 OFFCURVE",
"416 -16 OFFCURVE",
"279 -16 CURVE SMOOTH",
"141 -16 OFFCURVE",
"30 96 OFFCURVE",
"30 233 CURVE",
"61 233 LINE",
"61 113 OFFCURVE",
"158 15 OFFCURVE",
"279 15 CURVE SMOOTH",
"399 15 OFFCURVE",
"497 113 OFFCURVE",
"497 233 CURVE SMOOTH",
"497 354 OFFCURVE",
"399 451 OFFCURVE",
"279 451 CURVE SMOOTH",
"270 451 OFFCURVE",
"261 451 OFFCURVE",
"253 450 CURVE",
"253 481 LINE",
"261 482 OFFCURVE",
"270 482 OFFCURVE",
"279 482 CURVE SMOOTH",
"416 482 OFFCURVE",
"528 371 OFFCURVE",
"528 233 CURVE SMOOTH"
);
},
{
closed = 1;
nodes = (
"461 132 OFFCURVE",
"380 51 OFFCURVE",
"279 51 CURVE SMOOTH",
"178 51 OFFCURVE",
"96 132 OFFCURVE",
"96 233 CURVE",
"127 233 LINE",
"127 149 OFFCURVE",
"195 82 OFFCURVE",
"279 82 CURVE SMOOTH",
"363 82 OFFCURVE",
"431 149 OFFCURVE",
"431 233 CURVE SMOOTH",
"431 317 OFFCURVE",
"363 385 OFFCURVE",
"279 385 CURVE SMOOTH",
"270 385 OFFCURVE",
"261 384 OFFCURVE",
"253 382 CURVE",
"253 414 LINE",
"261 415 OFFCURVE",
"270 416 OFFCURVE",
"279 416 CURVE SMOOTH",
"380 416 OFFCURVE",
"461 334 OFFCURVE",
"461 233 CURVE SMOOTH"
);
},
{
closed = 1;
nodes = (
"395 169 OFFCURVE",
"343 117 OFFCURVE",
"279 117 CURVE SMOOTH",
"215 117 OFFCURVE",
"163 169 OFFCURVE",
"163 233 CURVE",
"194 233 LINE",
"194 186 OFFCURVE",
"232 148 OFFCURVE",
"279 148 CURVE SMOOTH",
"326 148 OFFCURVE",
"364 186 OFFCURVE",
"364 233 CURVE SMOOTH",
"364 280 OFFCURVE",
"326 318 OFFCURVE",
"279 318 CURVE SMOOTH",
"270 318 OFFCURVE",
"261 317 OFFCURVE",
"253 314 CURVE",
"253 346 LINE",
"261 348 OFFCURVE",
"270 349 OFFCURVE",
"279 349 CURVE SMOOTH",
"343 349 OFFCURVE",
"395 297 OFFCURVE",
"395 233 CURVE SMOOTH"
);
}
);
width = 558;
}
);
unicode = 0035;
},
{
color = 7;
glyphname = six;
lastChange = "2021-03-20 13:51:49 +0000";
layers = (
{
background = {
components = (
{
name = _figure_round;
transform = "{1, 0, 0, 1, -33, 0}";
},
{
name = _v_stem_uc;
transform = "{1, 0, 0, 0.41596, -61, 235}";
},
{
name = _figure_round;
transform = "{1, 0, 0, -1, -33, 804}";
}
);
paths = (
{
closed = 1;
nodes = (
"201 454 OFFCURVE",
"219 455 OFFCURVE",
"238 455 CURVE SMOOTH",
"370 455 OFFCURVE",
"457 360 OFFCURVE",
"457 235 CURVE",
"487 235 LINE",
"487 377 OFFCURVE",
"387 485 OFFCURVE",
"238 485 CURVE SMOOTH",
"219 485 OFFCURVE",
"201 484 OFFCURVE",
"187 482 CURVE",
"187 451 LINE"
);
},
{
closed = 1;
nodes = (
"198 318 OFFCURVE",
"216 323 OFFCURVE",
"238 323 CURVE SMOOTH",
"295 323 OFFCURVE",
"325 288 OFFCURVE",
"325 235 CURVE",
"355 235 LINE",
"355 304 OFFCURVE",
"312 353 OFFCURVE",
"238 353 CURVE SMOOTH",
"218 353 OFFCURVE",
"200 350 OFFCURVE",
"187 345 CURVE",
"187 313 LINE"
);
},
{
closed = 1;
nodes = (
"201 387 OFFCURVE",
"219 389 OFFCURVE",
"238 389 CURVE SMOOTH",
"332 389 OFFCURVE",
"391 324 OFFCURVE",
"391 235 CURVE",
"421 235 LINE",
"421 340 OFFCURVE",
"349 419 OFFCURVE",
"238 419 CURVE SMOOTH",
"219 419 OFFCURVE",
"201 418 OFFCURVE",
"187 414 CURVE",
"187 383 LINE"
);
}
);
};
layerId = master01;
paths = (
{
closed = 1;
nodes = (
"276 107 LINE",
"276 173 OFFCURVE",
"231 227 OFFCURVE",
"156 228 CURVE",
"156 198 LINE",
"215 197 OFFCURVE",
"246 156 OFFCURVE",
"246 107 CURVE"
);
},
{
closed = 1;
nodes = (
"210 107 LINE",
"210 139 OFFCURVE",
"188 161 OFFCURVE",
"156 162 CURVE",
"156 132 LINE",
"173 131 OFFCURVE",
"180 120 OFFCURVE",
"180 107 CURVE"
);
},
{
closed = 1;
nodes = (
"126 107 LINE",
"126 296.56 LINE",
"96 296.56 LINE",
"96 107 LINE"
);
},
{
closed = 1;
nodes = (
"60 107 LINE",
"60 296.56 LINE",
"30 296.56 LINE",
"30 107 LINE"
);
},
{
closed = 1;
nodes = (
"30 40 OFFCURVE",
"76 -14 OFFCURVE",
"153 -14 CURVE SMOOTH",
"230 -14 OFFCURVE",
"276 40 OFFCURVE",
"276 107 CURVE",
"246 107 LINE",
"246 57 OFFCURVE",
"214 16 OFFCURVE",
"153 16 CURVE SMOOTH",
"92 16 OFFCURVE",
"60 57 OFFCURVE",
"60 107 CURVE",
"30 107 LINE"
);
},
{
closed = 1;
nodes = (
"96 74 OFFCURVE",
"119 52 OFFCURVE",
"153 52 CURVE SMOOTH",
"187 52 OFFCURVE",
"210 74 OFFCURVE",
"210 107 CURVE",
"180 107 LINE",
"180 93 OFFCURVE",
"172 82 OFFCURVE",
"153 82 CURVE SMOOTH",
"134 82 OFFCURVE",
"126 93 OFFCURVE",
"126 107 CURVE",
"96 107 LINE"
);
},
{
closed = 1;
nodes = (
"60 296 LINE",
"60 346 OFFCURVE",
"92 387 OFFCURVE",
"153 387 CURVE SMOOTH",
"214 387 OFFCURVE",
"246 346 OFFCURVE",
"246 296 CURVE",
"276 296 LINE",
"276 363 OFFCURVE",
"230 417 OFFCURVE",
"153 417 CURVE SMOOTH",
"76 417 OFFCURVE",
"30 363 OFFCURVE",
"30 296 CURVE"
);
},
{
closed = 1;
nodes = (
"126 296 LINE",
"126 310 OFFCURVE",
"134 321 OFFCURVE",
"153 321 CURVE SMOOTH",
"172 321 OFFCURVE",
"180 310 OFFCURVE",
"180 296 CURVE",
"210 296 LINE",
"210 329 OFFCURVE",
"187 351 OFFCURVE",
"153 351 CURVE SMOOTH",
"119 351 OFFCURVE",
"96 329 OFFCURVE",
"96 296 CURVE"
);
}
);
width = 306;
},
{
associatedMasterId = master01;
layerId = "F193841B-B370-4140-A174-054C065F57E2";
name = "Jul 17 20, 15:43";
paths = (
{
closed = 1;
nodes = (
"471 133 OFFCURVE",
"390 51 OFFCURVE",
"289 51 CURVE SMOOTH",
"188 51 OFFCURVE",
"106 133 OFFCURVE",
"106 233 CURVE SMOOTH",
"106 571 LINE SMOOTH",
"106 671 OFFCURVE",
"188 753 OFFCURVE",
"289 753 CURVE SMOOTH",
"390 753 OFFCURVE",
"471 671 OFFCURVE",
"471 571 CURVE",
"441 571 LINE",
"441 654 OFFCURVE",
"373 722 OFFCURVE",
"289 722 CURVE SMOOTH",
"205 722 OFFCURVE",
"137 654 OFFCURVE",
"137 571 CURVE SMOOTH",
"137 233 LINE SMOOTH",
"137 150 OFFCURVE",
"205 82 OFFCURVE",
"289 82 CURVE SMOOTH",
"373 82 OFFCURVE",
"441 150 OFFCURVE",
"441 233 CURVE SMOOTH",
"441 317 OFFCURVE",
"373 385 OFFCURVE",
"289 385 CURVE SMOOTH",
"270 385 OFFCURVE",
"251 381 OFFCURVE",
"235 375 CURVE",
"235 408 LINE",
"252 413 OFFCURVE",
"270 416 OFFCURVE",
"289 416 CURVE SMOOTH",
"390 416 OFFCURVE",
"471 334 OFFCURVE",
"471 233 CURVE SMOOTH"
);
},
{
closed = 1;
nodes = (
"405 169 OFFCURVE",
"353 117 OFFCURVE",
"289 117 CURVE SMOOTH",
"225 117 OFFCURVE",
"173 169 OFFCURVE",
"173 233 CURVE SMOOTH",
"173 571 LINE SMOOTH",
"173 635 OFFCURVE",
"225 687 OFFCURVE",
"289 687 CURVE SMOOTH",
"353 687 OFFCURVE",
"405 635 OFFCURVE",
"405 571 CURVE",
"374 571 LINE",
"374 618 OFFCURVE",
"336 656 OFFCURVE",
"289 656 CURVE SMOOTH",
"242 656 OFFCURVE",
"204 618 OFFCURVE",
"204 571 CURVE SMOOTH",
"204 233 LINE SMOOTH",
"204 186 OFFCURVE",
"242 148 OFFCURVE",
"289 148 CURVE SMOOTH",
"336 148 OFFCURVE",
"374 186 OFFCURVE",
"374 233 CURVE SMOOTH",
"374 281 OFFCURVE",
"336 319 OFFCURVE",
"289 319 CURVE SMOOTH",
"268 319 OFFCURVE",
"249 311 OFFCURVE",
"235 299 CURVE",
"235 336 LINE",
"251 345 OFFCURVE",
"269 350 OFFCURVE",
"289 350 CURVE SMOOTH",
"353 350 OFFCURVE",
"405 298 OFFCURVE",
"405 233 CURVE SMOOTH"
);
},
{
closed = 1;
nodes = (
"538 96 OFFCURVE",
"426 -15 OFFCURVE",
"289 -15 CURVE SMOOTH",
"151 -15 OFFCURVE",
"40 96 OFFCURVE",
"40 233 CURVE SMOOTH",
"40 571 LINE SMOOTH",
"40 708 OFFCURVE",
"151 819 OFFCURVE",
"289 819 CURVE SMOOTH",
"426 819 OFFCURVE",
"538 708 OFFCURVE",
"538 571 CURVE",
"507 571 LINE",
"507 691 OFFCURVE",
"409 789 OFFCURVE",
"289 789 CURVE SMOOTH",
"168 789 OFFCURVE",
"71 691 OFFCURVE",
"71 571 CURVE SMOOTH",
"71 233 LINE SMOOTH",
"71 113 OFFCURVE",
"168 15 OFFCURVE",
"289 15 CURVE SMOOTH",
"409 15 OFFCURVE",
"507 113 OFFCURVE",
"507 233 CURVE SMOOTH",
"507 354 OFFCURVE",
"409 452 OFFCURVE",
"289 452 CURVE SMOOTH",
"270 452 OFFCURVE",
"252 449 OFFCURVE",
"235 444 CURVE",
"235 476 LINE",
"252 480 OFFCURVE",
"270 482 OFFCURVE",
"289 482 CURVE SMOOTH",
"426 482 OFFCURVE",
"538 371 OFFCURVE",
"538 233 CURVE SMOOTH"
);
}
);
width = 568;
}
);
leftMetricsKey = zero;
rightMetricsKey = zero;
unicode = 0036;
},
{
color = 7;
glyphname = seven;
lastChange = "2021-03-20 13:51:49 +0000";
layers = (
{
background = {
components = (
{
name = _h_stem_UC;
transform = "{1.53, 0, 0, 1, -74, 321}";
}
);
paths = (
{
closed = 1;
nodes = (
"180 0 LINE",
"149 0 LINE",
"320 606 LINE",
"351 606 LINE"
);
},
{
closed = 1;
nodes = (
"112 0 LINE",
"81 0 LINE",
"252 606 LINE",
"283 606 LINE"
);
},
{
closed = 1;
nodes = (
"44 0 LINE",
"13 0 LINE",
"184 606 LINE",
"215 606 LINE"
);
}
);
};
layerId = master01;
paths = (
{
closed = 1;
nodes = (
"180 6 LINE",
"255 271 LINE",
"224 271 LINE",
"149 6 LINE"
);
},
{
closed = 1;
nodes = (
"112 6 LINE",
"187 271 LINE",
"156 271 LINE",
"81 6 LINE"
);
},
{
closed = 1;
nodes = (
"269 306 LINE",
"269 336 LINE",
"37 336 LINE",
"37 306 LINE"
);
},
{
closed = 1;
nodes = (
"269 372 LINE",
"269 402 LINE",
"37 402 LINE",
"37 372 LINE"
);
}
);
width = 298;
},
{
associatedMasterId = master01;
layerId = "5A66A43B-396B-480C-83BC-F2F83138EF2A";
name = "Jul 17 20, 15:45";
paths = (
{
closed = 1;
nodes = (
"30 773 LINE",
"30 804 LINE",
"465 804 LINE",
"465 773 LINE"
);
},
{
closed = 1;
nodes = (
"30 707 LINE",
"30 738 LINE",
"465 738 LINE",
"465 707 LINE"
);
},
{
closed = 1;
nodes = (
"30 640 LINE",
"30 671 LINE",
"465 671 LINE",
"465 640 LINE"
);
},
{
closed = 1;
nodes = (
"284 0 LINE",
"252 0 LINE",
"424 610 LINE",
"456 610 LINE"
);
},
{
closed = 1;
nodes = (
"215 0 LINE",
"183 0 LINE",
"355 610 LINE",
"387 610 LINE"
);
},
{
closed = 1;
nodes = (
"146 0 LINE",
"114 0 LINE",
"286 610 LINE",
"318 610 LINE"
);
}
);
width = 505;
}
);
unicode = 0037;
},
{
color = 7;
glyphname = eight;
lastChange = "2021-03-20 13:51:49 +0000";
layers = (
{
layerId = master01;
paths = (
{
closed = 1;
nodes = (
"276 106 LINE",
"276 166 OFFCURVE",
"242 183 OFFCURVE",
"198 219 CURVE SMOOTH",
"172 240 LINE SMOOTH",
"153 255 OFFCURVE",
"126 272 OFFCURVE",
"126 296 CURVE",
"96 296 LINE",
"96 258 OFFCURVE",
"134 230 OFFCURVE",
"154 215 CURVE SMOOTH",
"176 198 LINE SMOOTH",
"211 171 OFFCURVE",
"246 146 OFFCURVE",
"246 106 CURVE"
);
},
{
closed = 1;
nodes = (
"60 106 LINE",
"59 126 OFFCURVE",
"67 139 OFFCURVE",
"72 147 CURVE",
"45 169 LINE",
"30 147 OFFCURVE",
"30 131 OFFCURVE",
"30 106 CURVE"
);
},
{
closed = 1;
nodes = (
"230 -15 OFFCURVE",
"276 39 OFFCURVE",
"276 106 CURVE",
"246 106 LINE",
"246 56 OFFCURVE",
"214 15 OFFCURVE",
"153 15 CURVE SMOOTH",
"92 15 OFFCURVE",
"60 56 OFFCURVE",
"60 106 CURVE",
"30 106 LINE",
"30 39 OFFCURVE",
"76 -15 OFFCURVE",
"153 -15 CURVE SMOOTH"
);
},
{
closed = 1;
nodes = (
"126 106 LINE",
"126 108 OFFCURVE",
"126 109 OFFCURVE",
"126 111 CURVE",
"101 128 LINE",
"97 123 OFFCURVE",
"96 117 OFFCURVE",
"96 106 CURVE"
);
},
{
closed = 1;
nodes = (
"187 51 OFFCURVE",
"210 73 OFFCURVE",
"210 106 CURVE",
"180 106 LINE",
"180 92 OFFCURVE",
"172 81 OFFCURVE",
"153 81 CURVE SMOOTH",
"134 81 OFFCURVE",
"126 92 OFFCURVE",
"126 106 CURVE",
"96 106 LINE",
"96 73 OFFCURVE",
"119 51 OFFCURVE",
"153 51 CURVE SMOOTH"
);
},
{
closed = 1;
nodes = (
"210 106 LINE",
"210 136 OFFCURVE",
"173 157 OFFCURVE",
"137 183 CURVE SMOOTH",
"108 204 LINE SMOOTH",
"75 228 OFFCURVE",
"60 257 OFFCURVE",
"60 296 CURVE",
"30 296 LINE",
"30 242 OFFCURVE",
"46 209 OFFCURVE",
"90 179 CURVE SMOOTH",
"113 163 LINE SMOOTH",
"142 143 OFFCURVE",
"180 121 OFFCURVE",
"180 106 CURVE"
);
},
{
closed = 1;
nodes = (
"206 269 OFFCURVE",
"210 276 OFFCURVE",
"210 296 CURVE",
"180 296 LINE",
"180 289 OFFCURVE",
"179 283 OFFCURVE",
"177 280 CURVE",
"200 262 LINE"
);
},
{
closed = 1;
nodes = (
"126 296 LINE",
"126 310 OFFCURVE",
"134 321 OFFCURVE",
"153 321 CURVE SMOOTH",
"172 321 OFFCURVE",
"180 310 OFFCURVE",
"180 296 CURVE",
"210 296 LINE",
"210 329 OFFCURVE",
"187 351 OFFCURVE",
"153 351 CURVE SMOOTH",
"119 351 OFFCURVE",
"96 329 OFFCURVE",
"96 296 CURVE"
);
},
{
closed = 1;
nodes = (
"60 296 LINE",
"60 346 OFFCURVE",
"92 387 OFFCURVE",
"153 387 CURVE SMOOTH",
"214 387 OFFCURVE",
"246 346 OFFCURVE",
"246 296 CURVE",
"276 296 LINE",
"276 363 OFFCURVE",
"230 417 OFFCURVE",
"153 417 CURVE SMOOTH",
"76 417 OFFCURVE",
"30 363 OFFCURVE",
"30 296 CURVE"
);
},
{
closed = 1;
nodes = (
"275 247 OFFCURVE",
"276 271 OFFCURVE",
"276 296 CURVE",
"246 296 LINE",
"246 274 OFFCURVE",
"237 253 OFFCURVE",
"227 243 CURVE",
"252 222 LINE"
);
}
);
width = 306;
},
{
associatedMasterId = master01;
layerId = "BA1F7923-8F4D-4730-A3E6-D56B3B9DE2BA";
name = "Jul 17 20, 15:48";
paths = (
{
closed = 1;
nodes = (
"530 518 OFFCURVE",
"513 469 OFFCURVE",
"485 429 CURVE",
"463 451 LINE",
"486 485 OFFCURVE",
"499 526 OFFCURVE",
"499 571 CURVE SMOOTH",
"499 691 OFFCURVE",
"401 789 OFFCURVE",
"281 789 CURVE SMOOTH",
"160 789 OFFCURVE",
"63 691 OFFCURVE",
"63 571 CURVE SMOOTH",
"63 450 OFFCURVE",
"160 352 OFFCURVE",
"281 352 CURVE SMOOTH",
"345 352 OFFCURVE",
"399 304 OFFCURVE",
"399 235 CURVE SMOOTH",
"399 166 OFFCURVE",
"345 117 OFFCURVE",
"281 117 CURVE SMOOTH",
"217 117 OFFCURVE",
"163 166 OFFCURVE",
"163 235 CURVE SMOOTH",
"163 263 OFFCURVE",
"172 288 OFFCURVE",
"187 307 CURVE",
"197 303 OFFCURVE",
"208 300 OFFCURVE",
"219 298 CURVE",
"204 282 OFFCURVE",
"194 261 OFFCURVE",
"194 235 CURVE SMOOTH",
"194 183 OFFCURVE",
"234 148 OFFCURVE",
"281 148 CURVE SMOOTH",
"328 148 OFFCURVE",
"368 183 OFFCURVE",
"368 235 CURVE SMOOTH",
"368 287 OFFCURVE",
"328 322 OFFCURVE",
"281 322 CURVE SMOOTH",
"143 322 OFFCURVE",
"32 433 OFFCURVE",
"32 571 CURVE SMOOTH",
"32 708 OFFCURVE",
"143 819 OFFCURVE",
"281 819 CURVE SMOOTH",
"418 819 OFFCURVE",
"530 708 OFFCURVE",
"530 571 CURVE SMOOTH"
);
},
{
closed = 1;
nodes = (
"465 130 OFFCURVE",
"381 51 OFFCURVE",
"281 51 CURVE SMOOTH",
"180 51 OFFCURVE",
"96 130 OFFCURVE",
"96 235 CURVE SMOOTH",
"96 274 OFFCURVE",
"108 308 OFFCURVE",
"126 337 CURVE",
"135 331 OFFCURVE",
"144 326 OFFCURVE",
"153 322 CURVE",
"137 297 OFFCURVE",
"127 268 OFFCURVE",
"127 235 CURVE SMOOTH",
"127 147 OFFCURVE",
"197 82 OFFCURVE",
"281 82 CURVE SMOOTH",
"364 82 OFFCURVE",
"434 147 OFFCURVE",
"434 235 CURVE SMOOTH",
"434 324 OFFCURVE",
"364 388 OFFCURVE",
"281 388 CURVE SMOOTH",
"180 388 OFFCURVE",
"98 470 OFFCURVE",
"98 571 CURVE SMOOTH",
"98 671 OFFCURVE",
"180 753 OFFCURVE",
"281 753 CURVE SMOOTH",
"381 753 OFFCURVE",
"463 671 OFFCURVE",
"463 571 CURVE SMOOTH",
"463 534 OFFCURVE",
"452 500 OFFCURVE",
"434 472 CURVE",
"425 477 OFFCURVE",
"416 482 OFFCURVE",
"407 487 CURVE",
"423 511 OFFCURVE",
"432 540 OFFCURVE",
"432 571 CURVE SMOOTH",
"432 654 OFFCURVE",
"364 722 OFFCURVE",
"281 722 CURVE SMOOTH",
"197 722 OFFCURVE",
"129 654 OFFCURVE",
"129 571 CURVE SMOOTH",
"129 487 OFFCURVE",
"197 419 OFFCURVE",
"281 419 CURVE SMOOTH",
"381 419 OFFCURVE",
"465 341 OFFCURVE",
"465 235 CURVE SMOOTH"
);
},
{
closed = 1;
nodes = (
"531 93 OFFCURVE",
"418 -15 OFFCURVE",
"281 -15 CURVE SMOOTH",
"143 -15 OFFCURVE",
"30 93 OFFCURVE",
"30 235 CURVE SMOOTH",
"30 290 OFFCURVE",
"47 340 OFFCURVE",
"76 381 CURVE",
"98 359 LINE",
"75 324 OFFCURVE",
"61 282 OFFCURVE",
"61 235 CURVE SMOOTH",
"61 110 OFFCURVE",
"160 15 OFFCURVE",
"281 15 CURVE SMOOTH",
"401 15 OFFCURVE",
"501 110 OFFCURVE",
"501 235 CURVE SMOOTH",
"501 360 OFFCURVE",
"401 454 OFFCURVE",
"281 454 CURVE SMOOTH",
"217 454 OFFCURVE",
"165 506 OFFCURVE",
"165 571 CURVE SMOOTH",
"165 635 OFFCURVE",
"217 687 OFFCURVE",
"281 687 CURVE SMOOTH",
"345 687 OFFCURVE",
"397 635 OFFCURVE",
"397 571 CURVE SMOOTH",
"397 544 OFFCURVE",
"388 520 OFFCURVE",
"374 501 CURVE",
"363 505 OFFCURVE",
"352 508 OFFCURVE",
"341 510 CURVE",
"356 526 OFFCURVE",
"366 547 OFFCURVE",
"366 571 CURVE SMOOTH",
"366 618 OFFCURVE",
"328 656 OFFCURVE",
"281 656 CURVE SMOOTH",
"234 656 OFFCURVE",
"195 618 OFFCURVE",
"195 571 CURVE SMOOTH",
"195 523 OFFCURVE",
"234 485 OFFCURVE",
"281 485 CURVE SMOOTH",
"418 485 OFFCURVE",
"531 377 OFFCURVE",
"531 235 CURVE SMOOTH"
);
}
);
width = 561;
}
);
unicode = 0038;
},
{
color = 7;
glyphname = nine;
lastChange = "2021-03-20 13:51:49 +0000";
layers = (
{
background = {
components = (
{
name = six;
transform = "{-1, 0, 0, -1, 383, 804}";
}
);
};
layerId = master01;
paths = (
{
closed = 1;
nodes = (
"30 295 LINE",
"30 229 OFFCURVE",
"75 175 OFFCURVE",
"150 174 CURVE",
"150 204 LINE",
"91 205 OFFCURVE",
"60 246 OFFCURVE",
"60 295 CURVE"
);
},
{
closed = 1;
nodes = (
"96 295 LINE",
"96 263 OFFCURVE",
"118 241 OFFCURVE",
"150 240 CURVE",
"150 270 LINE",
"133 271 OFFCURVE",
"126 282 OFFCURVE",
"126 295 CURVE"
);
},
{
closed = 1;
nodes = (
"180 295 LINE",
"180 105 LINE",
"210 105 LINE",
"210 295 LINE"
);
},
{
closed = 1;
nodes = (
"246 295 LINE",
"246 105 LINE",
"276 105 LINE",
"276 295 LINE"
);
},
{
closed = 1;
nodes = (
"276 362 OFFCURVE",
"230 416 OFFCURVE",
"153 416 CURVE SMOOTH",
"76 416 OFFCURVE",
"30 362 OFFCURVE",
"30 295 CURVE",
"60 295 LINE",
"60 345 OFFCURVE",
"92 386 OFFCURVE",
"153 386 CURVE SMOOTH",
"214 386 OFFCURVE",
"246 345 OFFCURVE",
"246 295 CURVE",
"276 295 LINE"
);
},
{
closed = 1;
nodes = (
"210 328 OFFCURVE",
"187 350 OFFCURVE",
"153 350 CURVE SMOOTH",
"119 350 OFFCURVE",
"96 328 OFFCURVE",
"96 295 CURVE",
"126 295 LINE",
"126 309 OFFCURVE",
"134 320 OFFCURVE",
"153 320 CURVE SMOOTH",
"172 320 OFFCURVE",
"180 309 OFFCURVE",
"180 295 CURVE",
"210 295 LINE"
);
},
{
closed = 1;
nodes = (
"246 106 LINE",
"246 56 OFFCURVE",
"214 15 OFFCURVE",
"153 15 CURVE SMOOTH",
"92 15 OFFCURVE",
"60 56 OFFCURVE",
"60 106 CURVE",
"30 106 LINE",
"30 39 OFFCURVE",
"76 -15 OFFCURVE",
"153 -15 CURVE SMOOTH",
"230 -15 OFFCURVE",
"276 39 OFFCURVE",
"276 106 CURVE"
);
},
{
closed = 1;
nodes = (
"180 106 LINE",
"180 92 OFFCURVE",
"172 81 OFFCURVE",
"153 81 CURVE SMOOTH",
"134 81 OFFCURVE",
"126 92 OFFCURVE",
"126 106 CURVE",
"96 106 LINE",
"96 73 OFFCURVE",
"119 51 OFFCURVE",
"153 51 CURVE SMOOTH",
"187 51 OFFCURVE",
"210 73 OFFCURVE",
"210 106 CURVE"
);
}
);
width = 306;
},
{
associatedMasterId = master01;
layerId = "4EA49DBA-2441-41DD-AA19-30FEA623110D";
name = "Jul 17 20, 16:08";
paths = (
{
closed = 1;
nodes = (
"461 133 OFFCURVE",
"380 51 OFFCURVE",
"279 51 CURVE SMOOTH",
"178 51 OFFCURVE",
"96 133 OFFCURVE",
"96 233 CURVE",
"127 233 LINE",
"127 150 OFFCURVE",
"195 82 OFFCURVE",
"279 82 CURVE SMOOTH",
"363 82 OFFCURVE",
"431 150 OFFCURVE",
"431 233 CURVE SMOOTH",
"431 571 LINE SMOOTH",
"431 654 OFFCURVE",
"363 722 OFFCURVE",
"279 722 CURVE SMOOTH",
"195 722 OFFCURVE",
"127 654 OFFCURVE",
"127 571 CURVE SMOOTH",
"127 487 OFFCURVE",
"195 419 OFFCURVE",
"279 419 CURVE SMOOTH",
"298 419 OFFCURVE",
"316 423 OFFCURVE",
"333 429 CURVE",
"333 396 LINE",
"316 391 OFFCURVE",
"298 388 OFFCURVE",
"279 388 CURVE SMOOTH",
"178 388 OFFCURVE",
"96 470 OFFCURVE",
"96 571 CURVE SMOOTH",
"96 671 OFFCURVE",
"178 753 OFFCURVE",
"279 753 CURVE SMOOTH",
"380 753 OFFCURVE",
"461 671 OFFCURVE",
"461 571 CURVE SMOOTH",
"461 233 LINE SMOOTH"
);
},
{
closed = 1;
nodes = (
"528 96 OFFCURVE",
"416 -15 OFFCURVE",
"279 -15 CURVE SMOOTH",
"141 -15 OFFCURVE",
"30 96 OFFCURVE",
"30 233 CURVE",
"61 233 LINE",
"61 113 OFFCURVE",
"158 15 OFFCURVE",
"279 15 CURVE SMOOTH",
"399 15 OFFCURVE",
"497 113 OFFCURVE",
"497 233 CURVE SMOOTH",
"497 571 LINE SMOOTH",
"497 691 OFFCURVE",
"399 789 OFFCURVE",
"279 789 CURVE SMOOTH",
"158 789 OFFCURVE",
"61 691 OFFCURVE",
"61 571 CURVE SMOOTH",
"61 450 OFFCURVE",
"158 352 OFFCURVE",
"279 352 CURVE SMOOTH",
"298 352 OFFCURVE",
"316 355 OFFCURVE",
"333 360 CURVE",
"333 328 LINE",
"316 324 OFFCURVE",
"298 322 OFFCURVE",
"279 322 CURVE SMOOTH",
"141 322 OFFCURVE",
"30 433 OFFCURVE",
"30 571 CURVE SMOOTH",
"30 708 OFFCURVE",
"141 819 OFFCURVE",
"279 819 CURVE SMOOTH",
"416 819 OFFCURVE",
"528 708 OFFCURVE",
"528 571 CURVE SMOOTH",
"528 233 LINE SMOOTH"
);
},
{
closed = 1;
nodes = (
"395 169 OFFCURVE",
"343 117 OFFCURVE",
"279 117 CURVE SMOOTH",
"215 117 OFFCURVE",
"163 169 OFFCURVE",
"163 233 CURVE",
"194 233 LINE",
"194 186 OFFCURVE",
"232 148 OFFCURVE",
"279 148 CURVE SMOOTH",
"326 148 OFFCURVE",
"364 186 OFFCURVE",
"364 233 CURVE SMOOTH",
"364 571 LINE SMOOTH",
"364 618 OFFCURVE",
"326 656 OFFCURVE",
"279 656 CURVE SMOOTH",
"232 656 OFFCURVE",
"194 618 OFFCURVE",
"194 571 CURVE SMOOTH",
"194 523 OFFCURVE",
"232 485 OFFCURVE",
"279 485 CURVE SMOOTH",
"300 485 OFFCURVE",
"319 493 OFFCURVE",
"333 505 CURVE",
"333 468 LINE",
"317 459 OFFCURVE",
"299 454 OFFCURVE",
"279 454 CURVE SMOOTH",
"215 454 OFFCURVE",
"163 506 OFFCURVE",
"163 571 CURVE SMOOTH",
"163 635 OFFCURVE",
"215 687 OFFCURVE",
"279 687 CURVE SMOOTH",
"343 687 OFFCURVE",
"395 635 OFFCURVE",
"395 571 CURVE SMOOTH",
"395 233 LINE SMOOTH"
);
}
);
width = 568;
}
);
leftMetricsKey = "=|six";
rightMetricsKey = "=|six";
unicode = 0039;
},
{
color = 7;
glyphname = colon;
lastChange = "2021-03-20 13:51:49 +0000";
layers = (
{
background = {
components = (
{
name = _v_stem_uc;
transform = "{1, 0, 0, 0.20396, -10, 0}";
},
{
alignment = -1;
name = _v_stem_uc;
transform = "{1, 0, 0, 0.20396, -10, 376}";
}
);
};
layerId = master01;
paths = (
{
closed = 1;
nodes = (
"136 0 LINE",
"136 81.992 LINE",
"106 81.992 LINE",
"106 0 LINE"
);
},
{
closed = 1;
nodes = (
"70 0 LINE",
"70 81.992 LINE",
"40 81.992 LINE",
"40 0 LINE"
);
},
{
closed = 1;
nodes = (
"136 152 LINE",
"136 233.992 LINE",
"106 233.992 LINE",
"106 152 LINE"
);
},
{
closed = 1;
nodes = (
"70 152 LINE",
"70 233.992 LINE",
"40 233.992 LINE",
"40 152 LINE"
);
}
);
width = 176;
},
{
associatedMasterId = master01;
layerId = "55F57662-1067-4C4D-B682-15F0C86AD6DA";
name = "Jul 18 20, 11:00";
paths = (
{
closed = 1;
nodes = (
"183 407 LINE",
"183 570 LINE",
"214 570 LINE",
"214 407 LINE"
);
},
{
closed = 1;
nodes = (
"116 407 LINE",
"116 570 LINE",
"147 570 LINE",
"147 407 LINE"
);
},
{
closed = 1;
nodes = (
"50 407 LINE",
"50 570 LINE",
"81 570 LINE",
"81 407 LINE"
);
},
{
closed = 1;
nodes = (
"183 0 LINE",
"183 164 LINE",
"214 164 LINE",
"214 0 LINE"
);
},
{
closed = 1;
nodes = (
"116 0 LINE",
"116 164 LINE",
"147 164 LINE",
"147 0 LINE"
);
},
{
closed = 1;
nodes = (
"50 0 LINE",
"50 164 LINE",
"81 164 LINE",
"81 0 LINE"
);
}
);
width = 264;
}
);
leftMetricsKey = period;
rightMetricsKey = period;
unicode = 003A;
},
{
color = 7;
glyphname = semicolon;
lastChange = "2021-03-20 13:51:49 +0000";
layers = (
{
background = {
components = (
{
name = comma;
},
{
name = _v_stem_uc;
transform = "{1, 0, 0, 0.20396, 75, 376}";
}
);
};
guideLines = (
{
angle = 90;
position = "{286, 235}";
}
);
layerId = master01;
paths = (
{
closed = 1;
nodes = (
"71 -42 LINE",
"108 82 LINE",
"77 82 LINE",
"40 -42 LINE"
);
},
{
closed = 1;
nodes = (
"140 -42 LINE",
"176 82 LINE",
"145 82 LINE",
"109 -42 LINE"
);
},
{
closed = 1;
nodes = (
"177 154 LINE",
"177 235.992 LINE",
"147 235.992 LINE",
"147 154 LINE"
);
},
{
closed = 1;
nodes = (
"111 154 LINE",
"111 235.992 LINE",
"81 235.992 LINE",
"81 154 LINE"
);
}
);
width = 217;
},
{
associatedMasterId = master01;
layerId = "35E96130-9273-4621-8BE5-27E9C5DB9B1A";
name = "Jul 18 20, 11:01";
paths = (
{
closed = 1;
nodes = (
"224 407 LINE",
"224 570 LINE",
"255 570 LINE",
"255 407 LINE"
);
},
{
closed = 1;
nodes = (
"158 407 LINE",
"158 570 LINE",
"189 570 LINE",
"189 407 LINE"
);
},
{
closed = 1;
nodes = (
"91 407 LINE",
"91 570 LINE",
"122 570 LINE",
"122 407 LINE"
);
},
{
closed = 1;
nodes = (
"190 -98 LINE",
"158 -98 LINE",
"228 164 LINE",
"260 164 LINE"
);
},
{
closed = 1;
nodes = (
"121 -98 LINE",
"89 -98 LINE",
"159 164 LINE",
"191 164 LINE"
);
},
{
closed = 1;
nodes = (
"52 -98 LINE",
"20 -98 LINE",
"91 164 LINE",
"123 164 LINE"
);
}
);
width = 310;
}
);
leftMetricsKey = period;
rightMetricsKey = period;
unicode = 003B;
},
{
color = 7;
glyphname = less;
lastChange = "2021-03-20 13:51:49 +0000";
layers = (
{
guideLines = (
{
angle = 30;
position = "{407, 423}";
},
{
angle = -90;
position = "{613, 481}";
}
);
layerId = master01;
paths = (
{
closed = 1;
nodes = (
"410 20 LINE",
"71 216 LINE",
"40 199 LINE",
"410 -15 LINE"
);
},
{
closed = 1;
nodes = (
"410 98 LINE",
"139 255 LINE",
"108 238 LINE",
"410 63 LINE"
);
},
{
closed = 1;
nodes = (
"410 301 LINE",
"410 336 LINE",
"241 238 LINE",
"271 220 LINE"
);
},
{
closed = 1;
nodes = (
"410 378 LINE",
"410 413 LINE",
"174 276 LINE",
"204 258 LINE"
);
}
);
width = 450;
}
);
rightMetricsKey = "=|";
unicode = 003C;
},
{
color = 7;
glyphname = equal;
lastChange = "2021-03-20 13:51:49 +0000";
layers = (
{
layerId = master01;
paths = (
{
closed = 1;
nodes = (
"264.4 278 LINE",
"264.4 308 LINE",
"40 308 LINE",
"40 278 LINE"
);
},
{
closed = 1;
nodes = (
"264.4 212 LINE",
"264.4 242 LINE",
"40 242 LINE",
"40 212 LINE"
);
},
{
closed = 1;
nodes = (
"264.4 113 LINE",
"264.4 143 LINE",
"40 143 LINE",
"40 113 LINE"
);
},
{
closed = 1;
nodes = (
"264.4 47 LINE",
"264.4 77 LINE",
"40 77 LINE",
"40 47 LINE"
);
}
);
width = 304;
},
{
associatedMasterId = master01;
layerId = "AC249F44-FAD5-46C2-A966-24C729A66950";
name = "Jul 18 20, 15:13";
paths = (
{
closed = 1;
nodes = (
"40 400 LINE",
"40 431 LINE",
"610 431 LINE",
"610 400 LINE"
);
},
{
closed = 1;
nodes = (
"40 334 LINE",
"40 365 LINE",
"610 365 LINE",
"610 334 LINE"
);
},
{
closed = 1;
nodes = (
"40 206 LINE",
"40 236 LINE",
"610 236 LINE",
"610 206 LINE"
);
},
{
closed = 1;
nodes = (
"40 139 LINE",
"40 170 LINE",
"610 170 LINE",
"610 139 LINE"
);
}
);
width = 650;
}
);
leftMetricsKey = plus;
rightMetricsKey = plus;
unicode = 003D;
},
{
color = 7;
glyphname = greater;
lastChange = "2021-03-20 13:51:49 +0000";
layers = (
{
background = {
components = (
{
name = less;
transform = "{-1, 0, 0, -1, 444, 804}";
}
);
};
layerId = master01;
paths = (
{
closed = 1;
nodes = (
"40 388 LINE",
"379 192 LINE",
"410 209 LINE",
"40 423 LINE"
);
},
{
closed = 1;
nodes = (
"40 310 LINE",
"311 153 LINE",
"342 170 LINE",
"40 345 LINE"
);
},
{
closed = 1;
nodes = (
"40 107 LINE",
"40 72 LINE",
"209 170 LINE",
"179 188 LINE"
);
},
{
closed = 1;
nodes = (
"40 30 LINE",
"40 -5 LINE",
"276 132 LINE",
"246 150 LINE"
);
}
);
width = 450;
},
{
associatedMasterId = master01;
layerId = "38CEB985-ACD5-4A75-80C7-853767FD0996";
name = "Jul 18 20, 15:24";
paths = (
{
closed = 1;
nodes = (
"412 341 LINE",
"40 557 LINE",
"40 592 LINE",
"443 359 LINE"
);
},
{
closed = 1;
nodes = (
"346 303 LINE",
"40 480 LINE",
"40 516 LINE",
"377 321 LINE"
);
},
{
closed = 1;
nodes = (
"40 54 LINE",
"40 90 LINE",
"474 341 LINE",
"504 323 LINE"
);
},
{
closed = 1;
nodes = (
"40 -22 LINE",
"40 13 LINE",
"540 303 LINE",
"571 285 LINE"
);
}
);
width = 611;
}
);
leftMetricsKey = less;
rightMetricsKey = less;
unicode = 003E;
},
{
color = 7;
glyphname = question;
lastChange = "2021-03-20 13:51:49 +0000";
layers = (
{
background = {
components = (
{
name = _v_stem_uc;
transform = "{1, 0, 0, 0.2057, 179, 0}";
},
{
name = _figure_round;
transform = "{1, 0, 0, -1, 40, 804}";
}
);
paths = (
{
closed = 1;
nodes = (
"447 368 LINE SMOOTH",
"524 422 OFFCURVE",
"560 486 OFFCURVE",
"560 569 CURVE",
"530 569 LINE",
"530 501 OFFCURVE",
"500 444 OFFCURVE",
"446 405 CURVE SMOOTH",
"422 388 LINE SMOOTH",
"377 356 OFFCURVE",
"360 326 OFFCURVE",
"360 279 CURVE SMOOTH",
"360 220 LINE",
"390 220 LINE",
"390 279 LINE SMOOTH",
"390 316 OFFCURVE",
"405 339 OFFCURVE",
"437 361 CURVE SMOOTH"
);
},
{
closed = 1;
nodes = (
"406 420 LINE SMOOTH",
"469 469 OFFCURVE",
"494 505 OFFCURVE",
"494 569 CURVE",
"464 569 LINE",
"464 519 OFFCURVE",
"445 488 OFFCURVE",
"402 455 CURVE SMOOTH",
"369 430 LINE SMOOTH",
"317 391 OFFCURVE",
"294 347 OFFCURVE",
"294 279 CURVE SMOOTH",
"294 220 LINE",
"324 220 LINE",
"324 279 LINE SMOOTH",
"324 332 OFFCURVE",
"345 373 OFFCURVE",
"384 403 CURVE SMOOTH"
);
},
{
closed = 1;
nodes = (
"352 462 LINE SMOOTH",
"406 505 OFFCURVE",
"428 535 OFFCURVE",
"428 569 CURVE",
"398 569 LINE",
"398 542 OFFCURVE",
"383 521 OFFCURVE",
"349 495 CURVE SMOOTH",
"324 476 LINE SMOOTH",
"256 424 OFFCURVE",
"228 373 OFFCURVE",
"228 279 CURVE SMOOTH",
"228 220 LINE",
"258 220 LINE",
"258 279 LINE SMOOTH",
"258 352 OFFCURVE",
"282 405 OFFCURVE",
"326 441 CURVE SMOOTH"
);
}
);
};
guideLines = (
{
angle = 90;
position = "{390, 156}";
},
{
position = "{459, 279}";
}
);
layerId = master01;
paths = (
{
closed = 1;
nodes = (
"155 92 LINE",
"155 119 OFFCURVE",
"149 184 OFFCURVE",
"180 213 CURVE SMOOTH",
"200 232 LINE SMOOTH",
"219 250 OFFCURVE",
"230 263 OFFCURVE",
"230 296 CURVE",
"200 296 LINE",
"200 287 OFFCURVE",
"198 273 OFFCURVE",
"182 257 CURVE SMOOTH",
"158 234 LINE SMOOTH",
"116 194 OFFCURVE",
"124 123 OFFCURVE",
"124 92 CURVE"
);
},
{
closed = 1;
nodes = (
"155 0 LINE",
"155 56 LINE",
"125 56 LINE",
"125 0 LINE"
);
},
{
closed = 1;
nodes = (
"221 0 LINE",
"221 56 LINE",
"191 56 LINE",
"191 0 LINE"
);
},
{
closed = 1;
nodes = (
"221 92 LINE",
"221 129 OFFCURVE",
"216 159 OFFCURVE",
"238 178 CURVE SMOOTH",
"259 196 LINE SMOOTH",
"288 221 OFFCURVE",
"296 254 OFFCURVE",
"296 296 CURVE",
"266 296 LINE",
"266 282 OFFCURVE",
"266 243 OFFCURVE",
"241 221 CURVE SMOOTH",
"217 200 LINE SMOOTH",
"185 172 OFFCURVE",
"190 128 OFFCURVE",
"190 92 CURVE"
);
},
{
closed = 1;
nodes = (
"296 363 OFFCURVE",
"250 417 OFFCURVE",
"173 417 CURVE SMOOTH",
"96 417 OFFCURVE",
"50 363 OFFCURVE",
"50 296 CURVE",
"80 296 LINE",
"80 346 OFFCURVE",
"112 387 OFFCURVE",
"173 387 CURVE SMOOTH",
"234 387 OFFCURVE",
"266 346 OFFCURVE",
"266 296 CURVE",
"296 296 LINE"
);
},
{
closed = 1;
nodes = (
"230 329 OFFCURVE",
"207 351 OFFCURVE",
"173 351 CURVE SMOOTH",
"139 351 OFFCURVE",
"116 329 OFFCURVE",
"116 296 CURVE",
"146 296 LINE",
"146 310 OFFCURVE",
"154 321 OFFCURVE",
"173 321 CURVE SMOOTH",
"192 321 OFFCURVE",
"200 310 OFFCURVE",
"200 296 CURVE",
"230 296 LINE"
);
}
);
width = 346;
},
{
associatedMasterId = master01;
layerId = "B7AA3E5F-F4E9-4AA9-95D1-D10F3F8FF9FD";
name = "Jul 18 20, 11:02";
paths = (
{
closed = 1;
nodes = (
"528 451 OFFCURVE",
"470 411 OFFCURVE",
"423 378 CURVE SMOOTH",
"387 353 OFFCURVE",
"359 334 OFFCURVE",
"359 283 CURVE SMOOTH",
"359 222 LINE",
"328 222 LINE",
"328 283 LINE SMOOTH",
"328 350 OFFCURVE",
"367 377 OFFCURVE",
"405 404 CURVE SMOOTH",
"451 435 OFFCURVE",
"497 467 OFFCURVE",
"497 571 CURVE SMOOTH",
"497 691 OFFCURVE",
"399 789 OFFCURVE",
"279 789 CURVE SMOOTH",
"158 789 OFFCURVE",
"61 691 OFFCURVE",
"61 571 CURVE",
"30 571 LINE",
"30 708 OFFCURVE",
"141 819 OFFCURVE",
"279 819 CURVE SMOOTH",
"416 819 OFFCURVE",
"528 708 OFFCURVE",
"528 571 CURVE SMOOTH"
);
},
{
closed = 1;
nodes = (
"461 480 OFFCURVE",
"414 449 OFFCURVE",
"373 422 CURVE SMOOTH",
"330 393 OFFCURVE",
"292 369 OFFCURVE",
"292 283 CURVE SMOOTH",
"292 222 LINE",
"262 222 LINE",
"262 283 LINE SMOOTH",
"262 385 OFFCURVE",
"312 418 OFFCURVE",
"356 448 CURVE SMOOTH",
"396 474 OFFCURVE",
"431 497 OFFCURVE",
"431 571 CURVE SMOOTH",
"431 654 OFFCURVE",
"363 722 OFFCURVE",
"279 722 CURVE SMOOTH",
"195 722 OFFCURVE",
"127 654 OFFCURVE",
"127 571 CURVE",
"96 571 LINE",
"96 671 OFFCURVE",
"178 753 OFFCURVE",
"279 753 CURVE SMOOTH",
"380 753 OFFCURVE",
"461 671 OFFCURVE",
"461 571 CURVE SMOOTH"
);
},
{
closed = 1;
nodes = (
"395 512 OFFCURVE",
"358 487 OFFCURVE",
"322 464 CURVE SMOOTH",
"275 433 OFFCURVE",
"226 400 OFFCURVE",
"226 283 CURVE SMOOTH",
"226 222 LINE",
"195 222 LINE",
"195 283 LINE SMOOTH",
"195 417 OFFCURVE",
"256 457 OFFCURVE",
"305 490 CURVE",
"340 512 OFFCURVE",
"364 528 OFFCURVE",
"364 571 CURVE SMOOTH",
"364 618 OFFCURVE",
"326 656 OFFCURVE",
"279 656 CURVE SMOOTH",
"232 656 OFFCURVE",
"194 618 OFFCURVE",
"194 571 CURVE",
"163 571 LINE",
"163 635 OFFCURVE",
"215 687 OFFCURVE",
"279 687 CURVE SMOOTH",
"343 687 OFFCURVE",
"395 635 OFFCURVE",
"395 571 CURVE SMOOTH"
);
},
{
closed = 1;
nodes = (
"328 0 LINE",
"328 164 LINE",
"359 164 LINE",
"359 0 LINE"
);
},
{
closed = 1;
nodes = (
"262 0 LINE",
"262 164 LINE",
"292 164 LINE",
"292 0 LINE"
);
},
{
closed = 1;
nodes = (
"195 0 LINE",
"195 164 LINE",
"226 164 LINE",
"226 0 LINE"
);
}
);
width = 578;
}
);
leftMetricsKey = H;
rightMetricsKey = H;
unicode = 003F;
},
{
color = 7;
glyphname = at;
lastChange = "2021-03-20 13:51:49 +0000";
layers = (
{
background = {
paths = (
{
closed = 1;
nodes = (
"344 536 OFFCURVE",
"306 552 OFFCURVE",
"264 552 CURVE SMOOTH",
"179 552 OFFCURVE",
"114 488 OFFCURVE",
"114 402 CURVE SMOOTH",
"114 317 OFFCURVE",
"179 252 OFFCURVE",
"264 252 CURVE SMOOTH",
"307 252 OFFCURVE",
"344 268 OFFCURVE",
"371 298 CURVE",
"371 345 LINE",
"350 305 OFFCURVE",
"310 282 OFFCURVE",
"264 282 CURVE SMOOTH",
"195 282 OFFCURVE",
"144 333 OFFCURVE",
"144 402 CURVE SMOOTH",
"144 471 OFFCURVE",
"195 522 OFFCURVE",
"264 522 CURVE SMOOTH",
"311 522 OFFCURVE",
"350 499 OFFCURVE",
"371 460 CURVE",
"371 508 LINE"
);
},
{
closed = 1;
nodes = (
"337 609 OFFCURVE",
"302 618 OFFCURVE",
"264 618 CURVE SMOOTH",
"143 618 OFFCURVE",
"48 524 OFFCURVE",
"48 402 CURVE SMOOTH",
"48 281 OFFCURVE",
"143 186 OFFCURVE",
"264 186 CURVE SMOOTH",
"302 186 OFFCURVE",
"348 196 OFFCURVE",
"386 222 CURVE",
"371 248 LINE",
"340 227 OFFCURVE",
"303 216 OFFCURVE",
"264 216 CURVE SMOOTH",
"159 216 OFFCURVE",
"78 297 OFFCURVE",
"78 402 CURVE SMOOTH",
"78 508 OFFCURVE",
"159 588 OFFCURVE",
"264 588 CURVE SMOOTH",
"303 588 OFFCURVE",
"340 577 OFFCURVE",
"371 556 CURVE",
"371 591 LINE"
);
},
{
closed = 1;
nodes = (
"420 272 OFFCURVE",
"455 238 OFFCURVE",
"510 238 CURVE SMOOTH",
"581 238 OFFCURVE",
"624 309 OFFCURVE",
"624 422 CURVE SMOOTH",
"624 613 OFFCURVE",
"475 753 OFFCURVE",
"272 753 CURVE SMOOTH",
"69 753 OFFCURVE",
"-79 605 OFFCURVE",
"-79 402 CURVE SMOOTH",
"-79 202 OFFCURVE",
"72 51 OFFCURVE",
"272 51 CURVE SMOOTH",
"336 51 OFFCURVE",
"394 67 OFFCURVE",
"455 100 CURVE",
"439 126 LINE",
"387 96 OFFCURVE",
"333 82 OFFCURVE",
"272 82 CURVE SMOOTH",
"89 82 OFFCURVE",
"-48 219 OFFCURVE",
"-48 402 CURVE SMOOTH",
"-48 588 OFFCURVE",
"86 722 OFFCURVE",
"272 722 CURVE SMOOTH",
"465 722 OFFCURVE",
"593 602 OFFCURVE",
"593 422 CURVE SMOOTH",
"593 324 OFFCURVE",
"562 268 OFFCURVE",
"508 268 CURVE SMOOTH",
"471 268 OFFCURVE",
"450 291 OFFCURVE",
"450 330 CURVE SMOOTH",
"450 615 LINE",
"420 615 LINE",
"420 330 LINE SMOOTH"
);
},
{
closed = 1;
nodes = (
"354 223 OFFCURVE",
"419 171 OFFCURVE",
"510 171 CURVE SMOOTH",
"622 171 OFFCURVE",
"690 267 OFFCURVE",
"690 422 CURVE SMOOTH",
"690 652 OFFCURVE",
"514 819 OFFCURVE",
"272 819 CURVE SMOOTH",
"31 819 OFFCURVE",
"-145 644 OFFCURVE",
"-145 402 CURVE SMOOTH",
"-145 163 OFFCURVE",
"33 -15 OFFCURVE",
"272 -15 CURVE SMOOTH",
"351 -15 OFFCURVE",
"424 5 OFFCURVE",
"491 44 CURVE",
"474 69 LINE",
"416 33 OFFCURVE",
"347 15 OFFCURVE",
"272 15 CURVE SMOOTH",
"51 15 OFFCURVE",
"-114 181 OFFCURVE",
"-114 402 CURVE SMOOTH",
"-114 626 OFFCURVE",
"49 789 OFFCURVE",
"272 789 CURVE SMOOTH",
"504 789 OFFCURVE",
"659 642 OFFCURVE",
"659 422 CURVE SMOOTH",
"659 281 OFFCURVE",
"604 201 OFFCURVE",
"507 201 CURVE SMOOTH",
"436 201 OFFCURVE",
"384 242 OFFCURVE",
"384 298 CURVE SMOOTH",
"384 615 LINE",
"354 615 LINE",
"354 298 LINE SMOOTH"
);
}
);
};
layerId = master01;
paths = (
{
closed = 1;
nodes = (
"288 -14 OFFCURVE",
"328 -2 OFFCURVE",
"361 18 CURVE",
"350 38 LINE",
"320 19 OFFCURVE",
"284 9 OFFCURVE",
"246 9 CURVE SMOOTH",
"135 9 OFFCURVE",
"53 92 OFFCURVE",
"53 202 CURVE SMOOTH",
"53 311 OFFCURVE",
"135 393 OFFCURVE",
"246 393 CURVE SMOOTH",
"359 393 OFFCURVE",
"437 320 OFFCURVE",
"437 211 CURVE SMOOTH",
"437 142 OFFCURVE",
"412 103 OFFCURVE",
"363 103 CURVE SMOOTH",
"331 103 OFFCURVE",
"303 123 OFFCURVE",
"303 148 CURVE SMOOTH",
"303 302 LINE",
"282 302 LINE",
"282 148 LINE SMOOTH",
"282 110 OFFCURVE",
"316 81 OFFCURVE",
"365 81 CURVE SMOOTH",
"424 81 OFFCURVE",
"460 129 OFFCURVE",
"460 211 CURVE SMOOTH",
"460 330 OFFCURVE",
"369 416 OFFCURVE",
"246 416 CURVE SMOOTH",
"121 416 OFFCURVE",
"30 324 OFFCURVE",
"30 202 CURVE SMOOTH",
"30 78 OFFCURVE",
"122 -14 OFFCURVE",
"246 -14 CURVE SMOOTH"
);
},
{
closed = 1;
nodes = (
"264 97 OFFCURVE",
"284 110 OFFCURVE",
"301 123 CURVE",
"292 137 LINE",
"279 126 OFFCURVE",
"262 120 OFFCURVE",
"242 120 CURVE SMOOTH",
"195 120 OFFCURVE",
"160 156 OFFCURVE",
"160 202 CURVE SMOOTH",
"160 248 OFFCURVE",
"195 282 OFFCURVE",
"242 282 CURVE SMOOTH",
"264 282 OFFCURVE",
"283 271 OFFCURVE",
"295 260 CURVE",
"296 279 LINE",
"287 289 OFFCURVE",
"266 304 OFFCURVE",
"242 304 CURVE SMOOTH",
"183 304 OFFCURVE",
"138 261 OFFCURVE",
"138 202 CURVE SMOOTH",
"138 143 OFFCURVE",
"183 97 OFFCURVE",
"242 97 CURVE SMOOTH"
);
},
{
closed = 1;
nodes = (
"258 139 OFFCURVE",
"274 146 OFFCURVE",
"286 160 CURVE",
"284 179 LINE",
"274 168 OFFCURVE",
"258 161 OFFCURVE",
"240 161 CURVE SMOOTH",
"215 161 OFFCURVE",
"199 178 OFFCURVE",
"199 202 CURVE SMOOTH",
"199 224 OFFCURVE",
"216 242 OFFCURVE",
"240 242 CURVE SMOOTH",
"258 242 OFFCURVE",
"273 234 OFFCURVE",
"283 220 CURVE",
"286 220 LINE",
"286 243 LINE",
"271 257 OFFCURVE",
"257 264 OFFCURVE",
"240 264 CURVE SMOOTH",
"205 264 OFFCURVE",
"177 235 OFFCURVE",
"177 202 CURVE SMOOTH",
"177 167 OFFCURVE",
"205 139 OFFCURVE",
"240 139 CURVE SMOOTH"
);
},
{
closed = 1;
nodes = (
"275 34 OFFCURVE",
"305 42 OFFCURVE",
"336 60 CURVE",
"325 81 LINE",
"300 66 OFFCURVE",
"274 59 OFFCURVE",
"246 59 CURVE SMOOTH",
"164 59 OFFCURVE",
"102 119 OFFCURVE",
"102 202 CURVE SMOOTH",
"102 284 OFFCURVE",
"163 345 OFFCURVE",
"246 345 CURVE SMOOTH",
"332 345 OFFCURVE",
"389 290 OFFCURVE",
"389 210 CURVE SMOOTH",
"389 169 OFFCURVE",
"384 144 OFFCURVE",
"362 144 CURVE SMOOTH",
"348 144 OFFCURVE",
"341 151 OFFCURVE",
"341 167 CURVE SMOOTH",
"341 302 LINE",
"320 302 LINE",
"320 167 LINE SMOOTH",
"320 138 OFFCURVE",
"335 121 OFFCURVE",
"362 121 CURVE SMOOTH",
"398 121 OFFCURVE",
"413 156 OFFCURVE",
"413 210 CURVE SMOOTH",
"413 300 OFFCURVE",
"341 368 OFFCURVE",
"246 368 CURVE SMOOTH",
"150 368 OFFCURVE",
"78 296 OFFCURVE",
"78 202 CURVE SMOOTH",
"78 107 OFFCURVE",
"151 34 OFFCURVE",
"246 34 CURVE SMOOTH"
);
}
);
width = 490;
},
{
associatedMasterId = master01;
layerId = "4BC198ED-620E-4A93-A58D-6990BA6F3ECE";
name = "Jul 18 20, 15:28";
paths = (
{
closed = 1;
nodes = (
"809 327 OFFCURVE",
"762 238 OFFCURVE",
"669 238 CURVE SMOOTH",
"627 238 OFFCURVE",
"612 252 OFFCURVE",
"612 288 CURVE SMOOTH",
"612 615 LINE",
"643 615 LINE",
"643 288 LINE SMOOTH",
"643 273 OFFCURVE",
"646 269 OFFCURVE",
"669 269 CURVE SMOOTH",
"731 269 OFFCURVE",
"778 326 OFFCURVE",
"778 402 CURVE SMOOTH",
"778 579 OFFCURVE",
"634 722 OFFCURVE",
"457 722 CURVE SMOOTH",
"281 722 OFFCURVE",
"137 579 OFFCURVE",
"137 402 CURVE SMOOTH",
"137 225 OFFCURVE",
"281 82 OFFCURVE",
"457 82 CURVE SMOOTH",
"520 82 OFFCURVE",
"578 100 OFFCURVE",
"627 130 CURVE",
"643 104 LINE",
"589 70 OFFCURVE",
"525 51 OFFCURVE",
"457 51 CURVE SMOOTH",
"264 51 OFFCURVE",
"106 208 OFFCURVE",
"106 402 CURVE SMOOTH",
"106 596 OFFCURVE",
"264 753 OFFCURVE",
"457 753 CURVE SMOOTH",
"651 753 OFFCURVE",
"809 596 OFFCURVE",
"809 402 CURVE SMOOTH"
);
},
{
closed = 1;
nodes = (
"875 289 OFFCURVE",
"798 171 OFFCURVE",
"669 171 CURVE SMOOTH",
"613 171 OFFCURVE",
"578 186 OFFCURVE",
"560 219 CURVE",
"532 199 OFFCURVE",
"492 185 OFFCURVE",
"456 185 CURVE SMOOTH",
"336 185 OFFCURVE",
"240 282 OFFCURVE",
"240 402 CURVE SMOOTH",
"240 522 OFFCURVE",
"336 619 OFFCURVE",
"456 619 CURVE SMOOTH",
"486 619 OFFCURVE",
"519 609 OFFCURVE",
"546 594 CURVE",
"546 615 LINE",
"577 615 LINE",
"577 288 LINE SMOOTH",
"577 228 OFFCURVE",
"598 202 OFFCURVE",
"669 202 CURVE SMOOTH",
"779 202 OFFCURVE",
"844 304 OFFCURVE",
"844 402 CURVE SMOOTH",
"844 616 OFFCURVE",
"671 789 OFFCURVE",
"457 789 CURVE SMOOTH",
"244 789 OFFCURVE",
"71 616 OFFCURVE",
"71 402 CURVE SMOOTH",
"71 188 OFFCURVE",
"244 15 OFFCURVE",
"457 15 CURVE SMOOTH",
"532 15 OFFCURVE",
"602 37 OFFCURVE",
"661 73 CURVE",
"677 47 LINE",
"613 7 OFFCURVE",
"538 -15 OFFCURVE",
"457 -15 CURVE SMOOTH",
"227 -15 OFFCURVE",
"40 171 OFFCURVE",
"40 402 CURVE SMOOTH",
"40 633 OFFCURVE",
"227 819 OFFCURVE",
"457 819 CURVE SMOOTH",
"688 819 OFFCURVE",
"875 633 OFFCURVE",
"875 402 CURVE SMOOTH"
);
},
{
closed = 1;
nodes = (
"546 480 LINE",
"525 506 OFFCURVE",
"490 521 OFFCURVE",
"456 521 CURVE SMOOTH",
"390 521 OFFCURVE",
"337 468 OFFCURVE",
"337 402 CURVE SMOOTH",
"337 336 OFFCURVE",
"390 283 OFFCURVE",
"456 283 CURVE SMOOTH",
"490 283 OFFCURVE",
"525 298 OFFCURVE",
"546 324 CURVE"
);
},
{
closed = 1;
nodes = (
"547 259 OFFCURVE",
"546 272 OFFCURVE",
"546 285 CURVE",
"521 265 OFFCURVE",
"488 252 OFFCURVE",
"456 252 CURVE SMOOTH",
"373 252 OFFCURVE",
"306 319 OFFCURVE",
"306 402 CURVE SMOOTH",
"306 485 OFFCURVE",
"373 552 OFFCURVE",
"456 552 CURVE SMOOTH",
"488 552 OFFCURVE",
"521 539 OFFCURVE",
"546 519 CURVE",
"546 559 LINE",
"521 578 OFFCURVE",
"487 588 OFFCURVE",
"456 588 CURVE SMOOTH",
"353 588 OFFCURVE",
"270 505 OFFCURVE",
"270 402 CURVE SMOOTH",
"270 299 OFFCURVE",
"353 216 OFFCURVE",
"456 216 CURVE SMOOTH",
"489 216 OFFCURVE",
"524 227 OFFCURVE",
"549 248 CURVE"
);
}
);
width = 915;
}
);
leftMetricsKey = o;
rightMetricsKey = o;
unicode = 0040;
},
{
glyphname = A;
lastChange = "2021-02-12 03:28:23 +0000";
layers = (
{
anchors = (
{
name = bottom;
position = "{399, 0}";
},
{
name = ogonek;
position = "{718, 0}";
},
{
name = top;
position = "{400, 804}";
},
{
name = top_left;
position = "{343, 804}";
},
{
name = top_right;
position = "{477, 804}";
}
);
background = {
anchors = (
{
name = bottom;
position = "{399, 0}";
},
{
name = ogonek;
position = "{718, 0}";
},
{
name = top;
position = "{400, 804}";
},
{
name = top_left;
position = "{343, 804}";
},
{
name = top_right;
position = "{477, 804}";
}
);
components = (
{
name = _double_diag_UC;
}
);
paths = (
{
closed = 1;
nodes = (
"477 266 LINE",
"466 296 LINE",
"334 296 LINE",
"323 266 LINE"
);
},
{
closed = 1;
nodes = (
"275 133 LINE",
"525 133 LINE",
"514 163 LINE",
"286 163 LINE"
);
},
{
closed = 1;
nodes = (
"299 199 LINE",
"501 199 LINE",
"490 229 LINE",
"310 229 LINE"
);
}
);
};
components = (
{
name = _double_diag_UC;
}
);
layerId = master01;
paths = (
{
closed = 1;
nodes = (
"525 133 LINE",
"514 163 LINE",
"286 163 LINE",
"275 133 LINE"
);
},
{
closed = 1;
nodes = (
"501 199 LINE",
"490 229 LINE",
"310 229 LINE",
"299 199 LINE"
);
},
{
closed = 1;
nodes = (
"477 266 LINE",
"466 296 LINE",
"334 296 LINE",
"323 266 LINE"
);
}
);
width = 798;
},
{
associatedMasterId = master01;
layerId = "D4D6DF61-8FB0-4AE9-B77A-72C7D3E614EC";
name = "Jun 26 20, 18:43";
paths = (
{
closed = 1;
nodes = (
"748 0 LINE",
"487 721 LINE",
"504 766 LINE",
"781 0 LINE"
);
},
{
closed = 1;
nodes = (
"677 0 LINE",
"452 623 LINE",
"468 669 LINE",
"710 0 LINE"
);
},
{
closed = 1;
nodes = (
"607 0 LINE",
"417 526 LINE",
"433 571 LINE",
"639 0 LINE"
);
},
{
closed = 1;
nodes = (
"194 0 LINE",
"161 0 LINE",
"452 804 LINE",
"485 804 LINE"
);
},
{
closed = 1;
nodes = (
"323 266 LINE",
"334 296 LINE",
"466 296 LINE",
"477 266 LINE"
);
},
{
closed = 1;
nodes = (
"123 0 LINE",
"91 0 LINE",
"381 804 LINE",
"414 804 LINE"
);
},
{
closed = 1;
nodes = (
"299 199 LINE",
"310 230 LINE",
"490 230 LINE",
"501 199 LINE"
);
},
{
closed = 1;
nodes = (
"53 0 LINE",
"20 0 LINE",
"311 804 LINE",
"343 804 LINE"
);
},
{
closed = 1;
nodes = (
"275 133 LINE",
"286 164 LINE",
"514 164 LINE",
"525 133 LINE"
);
}
);
width = 801;
}
);
rightMetricsKey = "=|";
unicode = 0041;
},
{
glyphname = B;
lastChange = "2021-02-12 03:28:20 +0000";
layers = (
{
anchors = (
{
name = bottom;
position = "{392, 0}";
},
{
name = top;
position = "{392, 804}";
}
);
background = {
anchors = (
{
name = bottom;
position = "{392, 0}";
},
{
name = top;
position = "{392, 804}";
}
);
components = (
{
name = _v_stem_uc;
},
{
name = _P_UC;
transform = "{1, 0, 0, 1, 248, 0}";
}
);
paths = (
{
closed = 1;
nodes = (
"488 0 LINE SMOOTH",
"650 0 OFFCURVE",
"753 106 OFFCURVE",
"753 249 CURVE SMOOTH",
"753 313 OFFCURVE",
"737 367 OFFCURVE",
"705 409 CURVE",
"699 400 OFFCURVE",
"692 393 OFFCURVE",
"684 386 CURVE",
"710 350 OFFCURVE",
"723 301 OFFCURVE",
"723 249 CURVE SMOOTH",
"723 123 OFFCURVE",
"634 30 OFFCURVE",
"488 30 CURVE SMOOTH",
"245 30 LINE",
"245 0 LINE"
);
},
{
closed = 1;
nodes = (
"488 66 LINE SMOOTH",
"614 66 OFFCURVE",
"687 143 OFFCURVE",
"687 249 CURVE SMOOTH",
"687 291 OFFCURVE",
"676 331 OFFCURVE",
"658 361 CURVE",
"652 355 OFFCURVE",
"644 348 OFFCURVE",
"634 343 CURVE",
"648 318 OFFCURVE",
"657 284 OFFCURVE",
"657 249 CURVE SMOOTH",
"657 160 OFFCURVE",
"598 96 OFFCURVE",
"488 96 CURVE SMOOTH",
"245 96 LINE",
"245 66 LINE"
);
},
{
closed = 1;
nodes = (
"488 132 LINE SMOOTH",
"578 132 OFFCURVE",
"621 180 OFFCURVE",
"621 249 CURVE SMOOTH",
"621 278 OFFCURVE",
"613 305 OFFCURVE",
"600 326 CURVE",
"591 321 OFFCURVE",
"581 316 OFFCURVE",
"572 313 CURVE",
"584 296 OFFCURVE",
"591 274 OFFCURVE",
"591 249 CURVE SMOOTH",
"591 197 OFFCURVE",
"561 162 OFFCURVE",
"488 162 CURVE SMOOTH",
"245 162 LINE",
"245 132 LINE"
);
}
);
};
components = (
{
name = _v_stem_uc;
},
{
name = _P_UC;
transform = "{1, 0, 0, 1, 248, 0}";
}
);
layerId = master01;
paths = (
{
closed = 1;
nodes = (
"488 0 LINE SMOOTH",
"650 0 OFFCURVE",
"753 106 OFFCURVE",
"753 249 CURVE SMOOTH",
"753 313 OFFCURVE",
"737 367 OFFCURVE",
"705 409 CURVE",
"699 400 OFFCURVE",
"692 393 OFFCURVE",
"684 386 CURVE",
"710 350 OFFCURVE",
"723 301 OFFCURVE",
"723 249 CURVE SMOOTH",
"723 123 OFFCURVE",
"634 30 OFFCURVE",
"488 30 CURVE SMOOTH",
"245 30 LINE",
"245 0 LINE"
);
},
{
closed = 1;
nodes = (
"488 132 LINE SMOOTH",
"578 132 OFFCURVE",
"621 180 OFFCURVE",
"621 249 CURVE SMOOTH",
"621 278 OFFCURVE",
"613 305 OFFCURVE",
"600 326 CURVE",
"591 321 OFFCURVE",
"581 316 OFFCURVE",
"572 313 CURVE",
"584 296 OFFCURVE",
"591 274 OFFCURVE",
"591 249 CURVE SMOOTH",
"591 197 OFFCURVE",
"561 162 OFFCURVE",
"488 162 CURVE SMOOTH",
"245 162 LINE",
"245 132 LINE"
);
},
{
closed = 1;
nodes = (
"488 66 LINE SMOOTH",
"614 66 OFFCURVE",
"687 143 OFFCURVE",
"687 249 CURVE SMOOTH",
"687 291 OFFCURVE",
"676 331 OFFCURVE",
"658 361 CURVE",
"652 355 OFFCURVE",
"644 348 OFFCURVE",
"634 343 CURVE",
"648 318 OFFCURVE",
"657 284 OFFCURVE",
"657 249 CURVE SMOOTH",
"657 160 OFFCURVE",
"598 96 OFFCURVE",
"488 96 CURVE SMOOTH",
"245 96 LINE",
"245 66 LINE"
);
}
);
width = 784;
},
{
associatedMasterId = master01;
background = {
paths = (
{
closed = 1;
nodes = (
"715 438 OFFCURVE",
"610 332 OFFCURVE",
"480 332 CURVE SMOOTH",
"245 332 LINE",
"245 363 LINE",
"480 363 LINE SMOOTH",
"593 363 OFFCURVE",
"685 455 OFFCURVE",
"685 568 CURVE SMOOTH",
"685 681 OFFCURVE",
"593 773 OFFCURVE",
"480 773 CURVE SMOOTH",
"245 773 LINE",
"245 804 LINE",
"480 804 LINE SMOOTH",
"610 804 OFFCURVE",
"715 698 OFFCURVE",
"715 568 CURVE SMOOTH"
);
},
{
closed = 1;
nodes = (
"649 475 OFFCURVE",
"573 399 OFFCURVE",
"480 399 CURVE SMOOTH",
"245 399 LINE",
"245 430 LINE",
"480 430 LINE SMOOTH",
"556 430 OFFCURVE",
"618 492 OFFCURVE",
"618 568 CURVE SMOOTH",
"618 645 OFFCURVE",
"556 707 OFFCURVE",
"480 707 CURVE SMOOTH",
"245 707 LINE",
"245 738 LINE",
"480 738 LINE SMOOTH",
"573 738 OFFCURVE",
"649 662 OFFCURVE",
"649 568 CURVE SMOOTH"
);
},
{
closed = 1;
nodes = (
"583 511 OFFCURVE",
"537 465 OFFCURVE",
"480 465 CURVE SMOOTH",
"245 465 LINE",
"245 496 LINE",
"480 496 LINE SMOOTH",
"519 496 OFFCURVE",
"552 528 OFFCURVE",
"552 568 CURVE SMOOTH",
"552 608 OFFCURVE",
"519 640 OFFCURVE",
"480 640 CURVE SMOOTH",
"245 640 LINE",
"245 671 LINE",
"480 671 LINE SMOOTH",
"537 671 OFFCURVE",
"583 625 OFFCURVE",
"583 568 CURVE SMOOTH"
);
},
{
closed = 1;
nodes = (
"754 113 OFFCURVE",
"640 0 OFFCURVE",
"500 0 CURVE SMOOTH",
"245 0 LINE",
"245 31 LINE",
"500 31 LINE SMOOTH",
"623 31 OFFCURVE",
"723 130 OFFCURVE",
"723 253 CURVE SMOOTH",
"723 304 OFFCURVE",
"706 351 OFFCURVE",
"677 389 CURVE",
"684 397 OFFCURVE",
"690 405 OFFCURVE",
"697 414 CURVE",
"732 370 OFFCURVE",
"754 314 OFFCURVE",
"754 253 CURVE SMOOTH"
);
},
{
closed = 1;
nodes = (
"687 150 OFFCURVE",
"604 66 OFFCURVE",
"500 66 CURVE SMOOTH",
"245 66 LINE",
"245 97 LINE",
"500 97 LINE SMOOTH",
"587 97 OFFCURVE",
"656 167 OFFCURVE",
"656 253 CURVE SMOOTH",
"656 288 OFFCURVE",
"645 320 OFFCURVE",
"626 345 CURVE",
"635 351 OFFCURVE",
"643 357 OFFCURVE",
"651 364 CURVE",
"674 333 OFFCURVE",
"687 295 OFFCURVE",
"687 253 CURVE SMOOTH"
);
},
{
closed = 1;
nodes = (
"621 187 OFFCURVE",
"567 133 OFFCURVE",
"500 133 CURVE SMOOTH",
"245 133 LINE",
"245 164 LINE",
"500 164 LINE SMOOTH",
"550 164 OFFCURVE",
"590 204 OFFCURVE",
"590 253 CURVE SMOOTH",
"590 278 OFFCURVE",
"580 299 OFFCURVE",
"565 316 CURVE",
"575 319 OFFCURVE",
"585 323 OFFCURVE",
"595 328 CURVE",
"611 307 OFFCURVE",
"621 282 OFFCURVE",
"621 253 CURVE SMOOTH"
);
},
{
closed = 1;
nodes = (
"183 0 LINE",
"183 804 LINE",
"214 804 LINE",
"214 0 LINE"
);
},
{
closed = 1;
nodes = (
"116 0 LINE",
"116 804 LINE",
"147 804 LINE",
"147 0 LINE"
);
},
{
closed = 1;
nodes = (
"50 0 LINE",
"50 804 LINE",
"81 804 LINE",
"81 0 LINE"
);
}
);
};
layerId = "D14CDFBD-B903-443C-A3E5-636B8906FA2E";
name = "Jul 17 20, 14:07";
paths = (
{
closed = 1;
nodes = (
"715 438 OFFCURVE",
"610 332 OFFCURVE",
"480 332 CURVE SMOOTH",
"245 332 LINE",
"245 363 LINE",
"480 363 LINE SMOOTH",
"593 363 OFFCURVE",
"685 455 OFFCURVE",
"685 568 CURVE SMOOTH",
"685 681 OFFCURVE",
"593 773 OFFCURVE",
"480 773 CURVE SMOOTH",
"245 773 LINE",
"245 804 LINE",
"480 804 LINE SMOOTH",
"610 804 OFFCURVE",
"715 698 OFFCURVE",
"715 568 CURVE SMOOTH"
);
},
{
closed = 1;
nodes = (
"649 475 OFFCURVE",
"573 399 OFFCURVE",
"480 399 CURVE SMOOTH",
"245 399 LINE",
"245 430 LINE",
"480 430 LINE SMOOTH",
"556 430 OFFCURVE",
"618 492 OFFCURVE",
"618 568 CURVE SMOOTH",
"618 645 OFFCURVE",
"556 707 OFFCURVE",
"480 707 CURVE SMOOTH",
"245 707 LINE",
"245 738 LINE",
"480 738 LINE SMOOTH",
"573 738 OFFCURVE",
"649 662 OFFCURVE",
"649 568 CURVE SMOOTH"
);
},
{
closed = 1;
nodes = (
"583 511 OFFCURVE",
"537 465 OFFCURVE",
"480 465 CURVE SMOOTH",
"245 465 LINE",
"245 496 LINE",
"480 496 LINE SMOOTH",
"519 496 OFFCURVE",
"552 528 OFFCURVE",
"552 568 CURVE SMOOTH",
"552 608 OFFCURVE",
"519 640 OFFCURVE",
"480 640 CURVE SMOOTH",
"245 640 LINE",
"245 671 LINE",
"480 671 LINE SMOOTH",
"537 671 OFFCURVE",
"583 625 OFFCURVE",
"583 568 CURVE SMOOTH"
);
},
{
closed = 1;
nodes = (
"754 113 OFFCURVE",
"640 0 OFFCURVE",
"500 0 CURVE SMOOTH",
"245 0 LINE",
"245 31 LINE",
"500 31 LINE SMOOTH",
"623 31 OFFCURVE",
"723 130 OFFCURVE",
"723 253 CURVE SMOOTH",
"723 304 OFFCURVE",
"706 351 OFFCURVE",
"677 389 CURVE",
"684 397 OFFCURVE",
"690 405 OFFCURVE",
"697 414 CURVE",
"732 370 OFFCURVE",
"754 314 OFFCURVE",
"754 253 CURVE SMOOTH"
);
},
{
closed = 1;
nodes = (
"687 150 OFFCURVE",
"604 66 OFFCURVE",
"500 66 CURVE SMOOTH",
"245 66 LINE",
"245 97 LINE",
"500 97 LINE SMOOTH",
"587 97 OFFCURVE",
"656 167 OFFCURVE",
"656 253 CURVE SMOOTH",
"656 288 OFFCURVE",
"645 320 OFFCURVE",
"626 345 CURVE",
"635 351 OFFCURVE",
"643 357 OFFCURVE",
"651 364 CURVE",
"674 333 OFFCURVE",
"687 295 OFFCURVE",
"687 253 CURVE SMOOTH"
);
},
{
closed = 1;
nodes = (
"621 187 OFFCURVE",
"567 133 OFFCURVE",
"500 133 CURVE SMOOTH",
"245 133 LINE",
"245 164 LINE",
"500 164 LINE SMOOTH",
"550 164 OFFCURVE",
"590 204 OFFCURVE",
"590 253 CURVE SMOOTH",
"590 278 OFFCURVE",
"580 299 OFFCURVE",
"565 316 CURVE",
"575 319 OFFCURVE",
"585 323 OFFCURVE",
"595 328 CURVE",
"611 307 OFFCURVE",
"621 282 OFFCURVE",
"621 253 CURVE SMOOTH"
);
},
{
closed = 1;
nodes = (
"183 0 LINE",
"183 804 LINE",
"214 804 LINE",
"214 0 LINE"
);
},
{
closed = 1;
nodes = (
"116 0 LINE",
"116 804 LINE",
"147 804 LINE",
"147 0 LINE"
);
},
{
closed = 1;
nodes = (
"50 0 LINE",
"50 804 LINE",
"81 804 LINE",
"81 0 LINE"
);
}
);
visible = 1;
width = 784;
}
);
unicode = 0042;
},
{
glyphname = C;
lastChange = "2021-02-12 03:28:23 +0000";
layers = (
{
anchors = (
{
name = bottom;
position = "{388, 0}";
},
{
name = top;
position = "{388, 804}";
}
);
background = {
anchors = (
{
name = bottom;
position = "{388, 0}";
},
{
name = top;
position = "{388, 804}";
}
);
components = (
{
name = _round_UC;
}
);
paths = (
{
closed = 1;
nodes = (
"673 774 OFFCURVE",
"570 819 OFFCURVE",
"447 819 CURVE",
"447 789 LINE",
"562 789 OFFCURVE",
"657 747 OFFCURVE",
"725 679 CURVE",
"746 700 LINE"
);
},
{
closed = 1;
nodes = (
"638 715 OFFCURVE",
"552 753 OFFCURVE",
"447 753 CURVE",
"447 722 LINE",
"543 722 OFFCURVE",
"622 688 OFFCURVE",
"677 631 CURVE",
"699 653 LINE"
);
},
{
closed = 1;
nodes = (
"604 656 OFFCURVE",
"534 687 OFFCURVE",
"447 687 CURVE",
"447 656 LINE",
"525 656 OFFCURVE",
"587 629 OFFCURVE",
"631 585 CURVE",
"652 606 LINE"
);
},
{
closed = 1;
nodes = (
"587 175 OFFCURVE",
"525 148 OFFCURVE",
"447 148 CURVE",
"447 117 LINE",
"534 117 OFFCURVE",
"604 148 OFFCURVE",
"652 198 CURVE",
"631 219 LINE"
);
},
{
closed = 1;
nodes = (
"622 116 OFFCURVE",
"543 82 OFFCURVE",
"447 82 CURVE",
"447 51 LINE",
"552 51 OFFCURVE",
"638 89 OFFCURVE",
"699 151 CURVE",
"677 173 LINE"
);
},
{
closed = 1;
nodes = (
"657 57 OFFCURVE",
"562 15 OFFCURVE",
"447 15 CURVE",
"447 -15 LINE",
"570 -15 OFFCURVE",
"673 30 OFFCURVE",
"746 104 CURVE",
"725 125 LINE"
);
}
);
};
components = (
{
name = _round_UC;
}
);
layerId = master01;
paths = (
{
closed = 1;
nodes = (
"746 700 LINE",
"673 774 OFFCURVE",
"570 819 OFFCURVE",
"447 819 CURVE",
"447 789 LINE",
"562 789 OFFCURVE",
"657 747 OFFCURVE",
"725 679 CURVE"
);
},
{
closed = 1;
nodes = (
"570 -15 OFFCURVE",
"673 30 OFFCURVE",
"746 104 CURVE",
"725 125 LINE",
"657 57 OFFCURVE",
"562 15 OFFCURVE",
"447 15 CURVE",
"447 -15 LINE"
);
},
{
closed = 1;
nodes = (
"552 51 OFFCURVE",
"638 89 OFFCURVE",
"699 151 CURVE",
"677 173 LINE",
"622 116 OFFCURVE",
"543 82 OFFCURVE",
"447 82 CURVE",
"447 51 LINE"
);
},
{
closed = 1;
nodes = (
"534 117 OFFCURVE",
"604 148 OFFCURVE",
"652 198 CURVE",
"631 219 LINE",
"587 175 OFFCURVE",
"525 148 OFFCURVE",
"447 148 CURVE",
"447 117 LINE"
);
},
{
closed = 1;
nodes = (
"652 606 LINE",
"604 656 OFFCURVE",
"534 687 OFFCURVE",
"447 687 CURVE",
"447 656 LINE",
"525 656 OFFCURVE",
"587 629 OFFCURVE",
"631 585 CURVE"
);
},
{
closed = 1;
nodes = (
"699 653 LINE",
"638 715 OFFCURVE",
"552 753 OFFCURVE",
"447 753 CURVE",
"447 722 LINE",
"543 722 OFFCURVE",
"622 688 OFFCURVE",
"677 631 CURVE"
);
}
);
width = 776;
},
{
associatedMasterId = master01;
layerId = "DDCB26C8-4CBC-4537-988B-451E96381584";
name = "Jun 26 20, 18:41";
paths = (
{
closed = 1;
nodes = (
"597 149 OFFCURVE",
"526 117 OFFCURVE",
"447 117 CURVE SMOOTH",
"290 117 OFFCURVE",
"163 245 OFFCURVE",
"163 402 CURVE SMOOTH",
"163 559 OFFCURVE",
"290 687 OFFCURVE",
"447 687 CURVE SMOOTH",
"526 687 OFFCURVE",
"597 655 OFFCURVE",
"649 603 CURVE",
"627 581 LINE",
"581 627 OFFCURVE",
"518 656 OFFCURVE",
"447 656 CURVE SMOOTH",
"307 656 OFFCURVE",
"194 542 OFFCURVE",
"194 402 CURVE SMOOTH",
"194 262 OFFCURVE",
"307 148 OFFCURVE",
"447 148 CURVE SMOOTH",
"518 148 OFFCURVE",
"581 177 OFFCURVE",
"627 223 CURVE",
"649 201 LINE"
);
},
{
closed = 1;
nodes = (
"632 90 OFFCURVE",
"544 51 OFFCURVE",
"447 51 CURVE SMOOTH",
"254 51 OFFCURVE",
"96 208 OFFCURVE",
"96 402 CURVE SMOOTH",
"96 596 OFFCURVE",
"254 753 OFFCURVE",
"447 753 CURVE SMOOTH",
"544 753 OFFCURVE",
"632 714 OFFCURVE",
"696 650 CURVE",
"674 628 LINE",
"616 686 OFFCURVE",
"536 722 OFFCURVE",
"447 722 CURVE SMOOTH",
"271 722 OFFCURVE",
"127 579 OFFCURVE",
"127 402 CURVE SMOOTH",
"127 225 OFFCURVE",
"271 82 OFFCURVE",
"447 82 CURVE SMOOTH",
"536 82 OFFCURVE",
"616 118 OFFCURVE",
"674 176 CURVE",
"696 154 LINE"
);
},
{
closed = 1;
nodes = (
"667 31 OFFCURVE",
"563 -15 OFFCURVE",
"447 -15 CURVE SMOOTH",
"217 -15 OFFCURVE",
"30 171 OFFCURVE",
"30 402 CURVE SMOOTH",
"30 633 OFFCURVE",
"217 819 OFFCURVE",
"447 819 CURVE SMOOTH",
"563 819 OFFCURVE",
"667 773 OFFCURVE",
"743 697 CURVE",
"721 675 LINE",
"651 745 OFFCURVE",
"554 789 OFFCURVE",
"447 789 CURVE SMOOTH",
"234 789 OFFCURVE",
"61 616 OFFCURVE",
"61 402 CURVE SMOOTH",
"61 188 OFFCURVE",
"234 15 OFFCURVE",
"447 15 CURVE SMOOTH",
"554 15 OFFCURVE",
"651 59 OFFCURVE",
"721 129 CURVE",
"743 107 LINE"
);
}
);
width = 763;
}
);
leftMetricsKey = O;
rightMetricsKey = O;
unicode = 0043;
},
{
glyphname = D;
lastChange = "2021-02-12 03:40:41 +0000";
layers = (
{
anchors = (
{
name = bottom;
position = "{403, 0}";
},
{
name = center;
position = "{403, 402}";
},
{
name = top;
position = "{403, 804}";
}
);
background = {
anchors = (
{
name = bottom;
position = "{403, 0}";
},
{
name = center;
position = "{403, 402}";
},
{
name = top;
position = "{403, 804}";
}
);
components = (
{
name = _v_stem_uc;
},
{
name = _h_stem_UC;
transform = "{0.39, 0, 0, 1, 248, 321}";
},
{
name = _h_stem_UC;
transform = "{0.39, 0, 0, 1, 248, -321}";
}
);
paths = (
{
closed = 1;
nodes = (
"601 0 OFFCURVE",
"776 168 OFFCURVE",
"776 402 CURVE SMOOTH",
"776 636 OFFCURVE",
"601 804 OFFCURVE",
"359 804 CURVE",
"359 774 LINE",
"584 774 OFFCURVE",
"745 619 OFFCURVE",
"745 402 CURVE SMOOTH",
"745 185 OFFCURVE",
"584 30 OFFCURVE",
"359 30 CURVE",
"359 0 LINE"
);
},
{
closed = 1;
nodes = (
"564 66 OFFCURVE",
"710 206 OFFCURVE",
"710 402 CURVE SMOOTH",
"710 598 OFFCURVE",
"564 738 OFFCURVE",
"359 738 CURVE",
"359 708 LINE",
"547 708 OFFCURVE",
"679 581 OFFCURVE",
"679 402 CURVE SMOOTH",
"679 223 OFFCURVE",
"547 96 OFFCURVE",
"359 96 CURVE",
"359 66 LINE"
);
},
{
closed = 1;
nodes = (
"527 132 OFFCURVE",
"643 242 OFFCURVE",
"643 402 CURVE SMOOTH",
"643 562 OFFCURVE",
"527 672 OFFCURVE",
"359 672 CURVE",
"359 642 LINE",
"510 642 OFFCURVE",
"612 545 OFFCURVE",
"612 402 CURVE SMOOTH",
"612 259 OFFCURVE",
"510 162 OFFCURVE",
"359 162 CURVE",
"359 132 LINE"
);
}
);
};
components = (
{
name = _v_stem_uc;
},
{
name = _h_stem_UC;
transform = "{0.39, 0, 0, 1, 248, 321}";
},
{
name = _h_stem_UC;
transform = "{0.39, 0, 0, 1, 248, -321}";
}
);
layerId = master01;
paths = (
{
closed = 1;
nodes = (
"601 0 OFFCURVE",
"776 168 OFFCURVE",
"776 402 CURVE SMOOTH",
"776 636 OFFCURVE",
"601 804 OFFCURVE",
"358 804 CURVE",
"358 774 LINE",
"584 774 OFFCURVE",
"745 619 OFFCURVE",
"745 402 CURVE SMOOTH",
"745 185 OFFCURVE",
"584 30 OFFCURVE",
"358 30 CURVE",
"358 0 LINE"
);
},
{
closed = 1;
nodes = (
"564 66 OFFCURVE",
"710 206 OFFCURVE",
"710 402 CURVE SMOOTH",
"710 598 OFFCURVE",
"564 738 OFFCURVE",
"358 738 CURVE",
"358 708 LINE",
"547 708 OFFCURVE",
"679 581 OFFCURVE",
"679 402 CURVE SMOOTH",
"679 223 OFFCURVE",
"547 96 OFFCURVE",
"358 96 CURVE",
"358 66 LINE"
);
},
{
closed = 1;
nodes = (
"527 132 OFFCURVE",
"643 242 OFFCURVE",
"643 402 CURVE SMOOTH",
"643 562 OFFCURVE",
"527 672 OFFCURVE",
"358 672 CURVE",
"358 642 LINE",
"510 642 OFFCURVE",
"612 545 OFFCURVE",
"612 402 CURVE SMOOTH",
"612 259 OFFCURVE",
"510 162 OFFCURVE",
"358 162 CURVE",
"358 132 LINE"
);
}
);
width = 806;
},
{
associatedMasterId = master01;
background = {
paths = (
{
closed = 1;
nodes = (
"776 180 OFFCURVE",
"596 0 OFFCURVE",
"374 0 CURVE SMOOTH",
"245 0 LINE",
"245 31 LINE",
"374 31 LINE SMOOTH",
"579 31 OFFCURVE",
"745 197 OFFCURVE",
"745 402 CURVE SMOOTH",
"745 607 OFFCURVE",
"579 773 OFFCURVE",
"374 773 CURVE SMOOTH",
"245 773 LINE",
"245 804 LINE",
"374 804 LINE SMOOTH",
"596 804 OFFCURVE",
"776 624 OFFCURVE",
"776 402 CURVE SMOOTH"
);
},
{
closed = 1;
nodes = (
"709 217 OFFCURVE",
"559 66 OFFCURVE",
"374 66 CURVE SMOOTH",
"245 66 LINE",
"245 97 LINE",
"374 97 LINE SMOOTH",
"542 97 OFFCURVE",
"679 234 OFFCURVE",
"679 402 CURVE SMOOTH",
"679 570 OFFCURVE",
"542 707 OFFCURVE",
"374 707 CURVE SMOOTH",
"245 707 LINE",
"245 738 LINE",
"374 738 LINE SMOOTH",
"559 738 OFFCURVE",
"709 587 OFFCURVE",
"709 402 CURVE SMOOTH"
);
},
{
closed = 1;
nodes = (
"643 253 OFFCURVE",
"522 133 OFFCURVE",
"374 133 CURVE SMOOTH",
"245 133 LINE",
"245 164 LINE",
"374 164 LINE SMOOTH",
"505 164 OFFCURVE",
"612 270 OFFCURVE",
"612 402 CURVE SMOOTH",
"612 534 OFFCURVE",
"505 640 OFFCURVE",
"374 640 CURVE SMOOTH",
"245 640 LINE",
"245 671 LINE",
"374 671 LINE SMOOTH",
"522 671 OFFCURVE",
"643 551 OFFCURVE",
"643 402 CURVE SMOOTH"
);
},
{
closed = 1;
nodes = (
"183 0 LINE",
"183 804 LINE",
"214 804 LINE",
"214 0 LINE"
);
},
{
closed = 1;
nodes = (
"116 0 LINE",
"116 804 LINE",
"147 804 LINE",
"147 0 LINE"
);
},
{
closed = 1;
nodes = (
"50 0 LINE",
"50 804 LINE",
"81 804 LINE",
"81 0 LINE"
);
}
);
};
layerId = "1F3D0F4C-E8F4-4CD7-A6F1-71EF76687F6B";
name = "Jun 26 20, 18:36";
paths = (
{
closed = 1;
nodes = (
"776 180 OFFCURVE",
"596 0 OFFCURVE",
"374 0 CURVE SMOOTH",
"245 0 LINE",
"245 31 LINE",
"374 31 LINE SMOOTH",
"579 31 OFFCURVE",
"745 197 OFFCURVE",
"745 402 CURVE SMOOTH",
"745 607 OFFCURVE",
"579 773 OFFCURVE",
"374 773 CURVE SMOOTH",
"245 773 LINE",
"245 804 LINE",
"374 804 LINE SMOOTH",
"596 804 OFFCURVE",
"776 624 OFFCURVE",
"776 402 CURVE SMOOTH"
);
},
{
closed = 1;
nodes = (
"709 217 OFFCURVE",
"559 66 OFFCURVE",
"374 66 CURVE SMOOTH",
"245 66 LINE",
"245 97 LINE",
"374 97 LINE SMOOTH",
"542 97 OFFCURVE",
"679 234 OFFCURVE",
"679 402 CURVE SMOOTH",
"679 570 OFFCURVE",
"542 707 OFFCURVE",
"374 707 CURVE SMOOTH",
"245 707 LINE",
"245 738 LINE",
"374 738 LINE SMOOTH",
"559 738 OFFCURVE",
"709 587 OFFCURVE",
"709 402 CURVE SMOOTH"
);
},
{
closed = 1;
nodes = (
"643 253 OFFCURVE",
"522 133 OFFCURVE",
"374 133 CURVE SMOOTH",
"245 133 LINE",
"245 164 LINE",
"374 164 LINE SMOOTH",
"505 164 OFFCURVE",
"612 270 OFFCURVE",
"612 402 CURVE SMOOTH",
"612 534 OFFCURVE",
"505 640 OFFCURVE",
"374 640 CURVE SMOOTH",
"245 640 LINE",
"245 671 LINE",
"374 671 LINE SMOOTH",
"522 671 OFFCURVE",
"643 551 OFFCURVE",
"643 402 CURVE SMOOTH"
);
},
{
closed = 1;
nodes = (
"183 0 LINE",
"183 804 LINE",
"214 804 LINE",
"214 0 LINE"
);
},
{
closed = 1;
nodes = (
"116 0 LINE",
"116 804 LINE",
"147 804 LINE",
"147 0 LINE"
);
},
{
closed = 1;
nodes = (
"50 0 LINE",
"50 804 LINE",
"81 804 LINE",
"81 0 LINE"
);
}
);
width = 806;
}
);
leftMetricsKey = H;
rightMetricsKey = O;
unicode = 0044;
},
{
glyphname = E;
lastChange = "2021-02-12 03:28:20 +0000";
layers = (
{
anchors = (
{
name = bottom;
position = "{339, 0}";
},
{
name = ogonek;
position = "{609, 10}";
},
{
name = top;
position = "{389, 804}";
},
{
name = topleft;
position = "{20, 804}";
}
);
background = {
anchors = (
{
name = bottom;
position = "{339, 0}";
},
{
name = ogonek;
position = "{609, 10}";
},
{
name = top;
position = "{389, 804}";
},
{
name = topleft;
position = "{20, 804}";
}
);
components = (
{
name = _v_stem_uc;
},
{
alignment = -1;
name = _h_stem_UC;
transform = "{1.2, 0, 0, 1, 248, 0}";
},
{
alignment = -1;
name = _h_stem_UC;
transform = "{1.4, 0, 0, 1, 248, 321}";
},
{
alignment = -1;
name = _h_stem_UC;
transform = "{1.4, 0, 0, 1, 248, -321}";
}
);
};
components = (
{
name = _v_stem_uc;
},
{
alignment = -1;
name = _h_stem_UC;
transform = "{1.2, 0, 0, 1, 248, 0}";
},
{
alignment = -1;
name = _h_stem_UC;
transform = "{1.4, 0, 0, 1, 248, 321}";
},
{
alignment = -1;
name = _h_stem_UC;
transform = "{1.4, 0, 0, 1, 248, -321}";
}
);
guideLines = (
{
angle = 90;
position = "{262, 398}";
}
);
layerId = master01;
width = 677;
},
{
associatedMasterId = master01;
layerId = "83A3F54D-DE21-4687-90BC-004968601D38";
name = "Jun 26 20, 18:50";
paths = (
{
closed = 1;
nodes = (
"245 773 LINE",
"245 804 LINE",
"641 804 LINE",
"641 773 LINE"
);
},
{
closed = 1;
nodes = (
"245 707 LINE",
"245 738 LINE",
"641 738 LINE",
"641 707 LINE"
);
},
{
closed = 1;
nodes = (
"245 640 LINE",
"245 671 LINE",
"641 671 LINE",
"641 640 LINE"
);
},
{
closed = 1;
nodes = (
"245 453 LINE",
"245 484 LINE",
"588 484 LINE",
"588 453 LINE"
);
},
{
closed = 1;
nodes = (
"245 387 LINE",
"245 417 LINE",
"588 417 LINE",
"588 387 LINE"
);
},
{
closed = 1;
nodes = (
"245 320 LINE",
"245 351 LINE",
"588 351 LINE",
"588 320 LINE"
);
},
{
closed = 1;
nodes = (
"183 0 LINE",
"183 804 LINE",
"214 804 LINE",
"214 0 LINE"
);
},
{
closed = 1;
nodes = (
"245 133 LINE",
"245 164 LINE",
"641 164 LINE",
"641 133 LINE"
);
},
{
closed = 1;
nodes = (
"116 0 LINE",
"116 804 LINE",
"147 804 LINE",
"147 0 LINE"
);
},
{
closed = 1;
nodes = (
"245 66 LINE",
"245 97 LINE",
"641 97 LINE",
"641 66 LINE"
);
},
{
closed = 1;
nodes = (
"50 0 LINE",
"50 804 LINE",
"81 804 LINE",
"81 0 LINE"
);
},
{
closed = 1;
nodes = (
"245 0 LINE",
"245 31 LINE",
"641 31 LINE",
"641 0 LINE"
);
}
);
width = 671;
}
);
leftMetricsKey = H;
unicode = 0045;
},
{
glyphname = F;
lastChange = "2021-02-12 03:28:20 +0000";
layers = (
{
anchors = (
{
name = bottom;
position = "{339, 0}";
},
{
name = top;
position = "{339, 804}";
}
);
background = {
anchors = (
{
name = bottom;
position = "{339, 0}";
},
{
name = top;
position = "{339, 804}";
}
);
components = (
{
name = _v_stem_uc;
},
{
alignment = -1;
name = _h_stem_UC;
transform = "{1.2, 0, 0, 1, 248, 0}";
},
{
alignment = -1;
name = _h_stem_UC;
transform = "{1.4, 0, 0, 1, 248, 321}";
}
);
};
components = (
{
name = _v_stem_uc;
},
{
alignment = -1;
name = _h_stem_UC;
transform = "{1.2, 0, 0, 1, 248, 0}";
},
{
alignment = -1;
name = _h_stem_UC;
transform = "{1.4, 0, 0, 1, 248, 321}";
}
);
layerId = master01;
width = 677;
},
{
associatedMasterId = master01;
background = {
paths = (
{
closed = 1;
nodes = (
"245 773 LINE",
"245 804 LINE",
"641 804 LINE",
"641 773 LINE"
);
},
{
closed = 1;
nodes = (
"245 707 LINE",
"245 738 LINE",
"641 738 LINE",
"641 707 LINE"
);
},
{
closed = 1;
nodes = (
"245 640 LINE",
"245 671 LINE",
"641 671 LINE",
"641 640 LINE"
);
},
{
closed = 1;
nodes = (
"245 453 LINE",
"245 484 LINE",
"588 484 LINE",
"588 453 LINE"
);
},
{
closed = 1;
nodes = (
"245 387 LINE",
"245 417 LINE",
"588 417 LINE",
"588 387 LINE"
);
},
{
closed = 1;
nodes = (
"245 320 LINE",
"245 351 LINE",
"588 351 LINE",
"588 320 LINE"
);
},
{
closed = 1;
nodes = (
"183 0 LINE",
"183 804 LINE",
"214 804 LINE",
"214 0 LINE"
);
},
{
closed = 1;
nodes = (
"116 0 LINE",
"116 804 LINE",
"147 804 LINE",
"147 0 LINE"
);
},
{
closed = 1;
nodes = (
"50 0 LINE",
"50 804 LINE",
"81 804 LINE",
"81 0 LINE"
);
}
);
};
layerId = "DF064164-03AD-49B0-85CF-94C031D4D52D";
name = "Jun 26 20, 18:51";
paths = (
{
closed = 1;
nodes = (
"245 773 LINE",
"245 804 LINE",
"641 804 LINE",
"641 773 LINE"
);
},
{
closed = 1;
nodes = (
"245 707 LINE",
"245 738 LINE",
"641 738 LINE",
"641 707 LINE"
);
},
{
closed = 1;
nodes = (
"245 640 LINE",
"245 671 LINE",
"641 671 LINE",
"641 640 LINE"
);
},
{
closed = 1;
nodes = (
"245 453 LINE",
"245 484 LINE",
"588 484 LINE",
"588 453 LINE"
);
},
{
closed = 1;
nodes = (
"245 387 LINE",
"245 417 LINE",
"588 417 LINE",
"588 387 LINE"
);
},
{
closed = 1;
nodes = (
"245 320 LINE",
"245 351 LINE",
"588 351 LINE",
"588 320 LINE"
);
},
{
closed = 1;
nodes = (
"183 0 LINE",
"183 804 LINE",
"214 804 LINE",
"214 0 LINE"
);
},
{
closed = 1;
nodes = (
"116 0 LINE",
"116 804 LINE",
"147 804 LINE",
"147 0 LINE"
);
},
{
closed = 1;
nodes = (
"50 0 LINE",
"50 804 LINE",
"81 804 LINE",
"81 0 LINE"
);
}
);
width = 671;
}
);
leftMetricsKey = H;
unicode = 0046;
},
{
glyphname = G;
lastChange = "2021-02-12 03:28:23 +0000";
layers = (
{
anchors = (
{
name = bottom;
position = "{436, 0}";
},
{
name = top;
position = "{436, 804}";
}
);
background = {
anchors = (
{
name = bottom;
position = "{436, 0}";
},
{
name = top;
position = "{436, 804}";
}
);
components = (
{
name = _round_UC;
},
{
name = _h_stem_UC;
transform = "{1.38, 0, 0, 1, 449, -43}";
}
);
paths = (
{
closed = 1;
nodes = (
"747 109 OFFCURVE",
"619 15 OFFCURVE",
"447 15 CURVE",
"447 -15 LINE",
"636 -15 OFFCURVE",
"778 92 OFFCURVE",
"836 244 CURVE",
"803 244 LINE"
);
},
{
closed = 1;
nodes = (
"679 147 OFFCURVE",
"579 82 OFFCURVE",
"447 82 CURVE",
"447 51 LINE",
"598 51 OFFCURVE",
"711 129 OFFCURVE",
"764 244 CURVE",
"730 244 LINE"
);
},
{
closed = 1;
nodes = (
"609 186 OFFCURVE",
"539 148 OFFCURVE",
"447 148 CURVE",
"447 117 LINE",
"558 117 OFFCURVE",
"642 167 OFFCURVE",
"689 244 CURVE",
"651 244 LINE"
);
},
{
closed = 1;
nodes = (
"646 634 OFFCURVE",
"561 687 OFFCURVE",
"447 687 CURVE",
"447 656 LINE",
"550 656 OFFCURVE",
"626 609 OFFCURVE",
"666 537 CURVE",
"692 554 LINE"
);
},
{
closed = 1;
nodes = (
"690 688 OFFCURVE",
"584 753 OFFCURVE",
"447 753 CURVE",
"447 722 LINE",
"573 722 OFFCURVE",
"669 663 OFFCURVE",
"722 574 CURVE",
"748 591 LINE"
);
},
{
closed = 1;
nodes = (
"733 743 OFFCURVE",
"607 819 OFFCURVE",
"447 819 CURVE",
"447 789 LINE",
"597 789 OFFCURVE",
"713 718 OFFCURVE",
"777 610 CURVE",
"803 627 LINE"
);
}
);
};
components = (
{
name = _round_UC;
},
{
name = _h_stem_UC;
transform = "{1.38, 0, 0, 1, 449, -43}";
}
);
layerId = master01;
paths = (
{
closed = 1;
nodes = (
"636 -15 OFFCURVE",
"778 92 OFFCURVE",
"836 244 CURVE",
"803 244 LINE",
"747 109 OFFCURVE",
"619 15 OFFCURVE",
"447 15 CURVE",
"447 -15 LINE"
);
},
{
closed = 1;
nodes = (
"558 117 OFFCURVE",
"642 167 OFFCURVE",
"689 244 CURVE",
"651 244 LINE",
"609 186 OFFCURVE",
"539 148 OFFCURVE",
"447 148 CURVE",
"447 117 LINE"
);
},
{
closed = 1;
nodes = (
"598 51 OFFCURVE",
"711 129 OFFCURVE",
"764 244 CURVE",
"730 244 LINE",
"679 147 OFFCURVE",
"579 82 OFFCURVE",
"447 82 CURVE",
"447 51 LINE"
);
},
{
closed = 1;
nodes = (
"692 554 LINE",
"646 634 OFFCURVE",
"561 687 OFFCURVE",
"447 687 CURVE",
"447 656 LINE",
"550 656 OFFCURVE",
"626 609 OFFCURVE",
"666 537 CURVE"
);
},
{
closed = 1;
nodes = (
"748 591 LINE",
"690 688 OFFCURVE",
"584 753 OFFCURVE",
"447 753 CURVE",
"447 722 LINE",
"573 722 OFFCURVE",
"669 663 OFFCURVE",
"722 574 CURVE"
);
},
{
closed = 1;
nodes = (
"803 627 LINE",
"733 743 OFFCURVE",
"607 819 OFFCURVE",
"447 819 CURVE",
"447 789 LINE",
"597 789 OFFCURVE",
"713 718 OFFCURVE",
"777 610 CURVE"
);
}
);
width = 872;
},
{
associatedMasterId = master01;
layerId = "D58EE5A6-327F-4955-AFAC-CBC110E5978C";
name = "Jul 17 20, 14:02";
paths = (
{
closed = 1;
nodes = (
"449 409 LINE",
"449 439 LINE",
"839 439 LINE",
"839 409 LINE"
);
},
{
closed = 1;
nodes = (
"449 342 LINE",
"449 373 LINE",
"839 373 LINE",
"839 342 LINE"
);
},
{
closed = 1;
nodes = (
"449 276 LINE",
"449 307 LINE",
"839 307 LINE",
"839 276 LINE"
);
},
{
closed = 1;
nodes = (
"772 92 OFFCURVE",
"622 -15 OFFCURVE",
"447 -15 CURVE SMOOTH",
"217 -15 OFFCURVE",
"30 171 OFFCURVE",
"30 402 CURVE SMOOTH",
"30 633 OFFCURVE",
"217 819 OFFCURVE",
"447 819 CURVE SMOOTH",
"596 819 OFFCURVE",
"726 742 OFFCURVE",
"800 625 CURVE",
"774 609 LINE",
"705 717 OFFCURVE",
"585 789 OFFCURVE",
"447 789 CURVE SMOOTH",
"234 789 OFFCURVE",
"61 616 OFFCURVE",
"61 402 CURVE SMOOTH",
"61 188 OFFCURVE",
"234 15 OFFCURVE",
"447 15 CURVE SMOOTH",
"605 15 OFFCURVE",
"741 110 OFFCURVE",
"801 245 CURVE",
"834 245 LINE"
);
},
{
closed = 1;
nodes = (
"704 130 OFFCURVE",
"585 51 OFFCURVE",
"447 51 CURVE SMOOTH",
"254 51 OFFCURVE",
"96 208 OFFCURVE",
"96 402 CURVE SMOOTH",
"96 596 OFFCURVE",
"254 753 OFFCURVE",
"447 753 CURVE SMOOTH",
"573 753 OFFCURVE",
"683 687 OFFCURVE",
"745 588 CURVE",
"719 571 LINE",
"663 662 OFFCURVE",
"562 722 OFFCURVE",
"447 722 CURVE SMOOTH",
"271 722 OFFCURVE",
"127 579 OFFCURVE",
"127 402 CURVE SMOOTH",
"127 225 OFFCURVE",
"271 82 OFFCURVE",
"447 82 CURVE SMOOTH",
"567 82 OFFCURVE",
"672 148 OFFCURVE",
"726 245 CURVE",
"761 245 LINE"
);
},
{
closed = 1;
nodes = (
"663 536 LINE",
"618 608 OFFCURVE",
"538 656 OFFCURVE",
"447 656 CURVE SMOOTH",
"307 656 OFFCURVE",
"194 542 OFFCURVE",
"194 402 CURVE SMOOTH",
"194 262 OFFCURVE",
"307 148 OFFCURVE",
"447 148 CURVE SMOOTH",
"528 148 OFFCURVE",
"600 186 OFFCURVE",
"646 245 CURVE",
"684 245 LINE",
"633 168 OFFCURVE",
"547 117 OFFCURVE",
"447 117 CURVE SMOOTH",
"290 117 OFFCURVE",
"163 245 OFFCURVE",
"163 402 CURVE SMOOTH",
"163 559 OFFCURVE",
"290 687 OFFCURVE",
"447 687 CURVE SMOOTH",
"549 687 OFFCURVE",
"639 633 OFFCURVE",
"689 552 CURVE"
);
}
);
visible = 1;
width = 879;
}
);
leftMetricsKey = O;
rightMetricsKey = O;
unicode = 0047;
},
{
glyphname = H;
lastChange = "2021-02-12 03:28:20 +0000";
layers = (
{
anchors = (
{
name = bottom;
position = "{391, 0}";
},
{
name = center;
position = "{391, 402}";
},
{
name = top;
position = "{391, 804}";
},
{
name = topleft;
position = "{20, 804}";
}
);
background = {
anchors = (
{
name = bottom;
position = "{391, 0}";
},
{
name = center;
position = "{391, 402}";
},
{
name = top;
position = "{391, 804}";
},
{
name = topleft;
position = "{20, 804}";
}
);
components = (
{
name = _v_stem_uc;
},
{
alignment = -1;
name = _v_stem_uc;
transform = "{1, 0, 0, 1, 519, 0}";
},
{
alignment = -1;
name = _h_stem_UC;
transform = "{1, 0, 0, 1, 248, 0}";
}
);
};
components = (
{
name = _v_stem_uc;
},
{
alignment = -1;
name = _v_stem_uc;
transform = "{1, 0, 0, 1, 519, 0}";
},
{
alignment = -1;
name = _h_stem_UC;
transform = "{1, 0, 0, 1, 248, 0}";
}
);
layerId = master01;
width = 781;
},
{
associatedMasterId = master01;
background = {
paths = (
{
closed = 1;
nodes = (
"694 0 LINE",
"694 804 LINE",
"725 804 LINE",
"725 0 LINE"
);
},
{
closed = 1;
nodes = (
"627 0 LINE",
"627 804 LINE",
"658 804 LINE",
"658 0 LINE"
);
},
{
closed = 1;
nodes = (
"561 0 LINE",
"561 804 LINE",
"592 804 LINE",
"592 0 LINE"
);
},
{
closed = 1;
nodes = (
"245 453 LINE",
"245 484 LINE",
"530 484 LINE",
"530 453 LINE"
);
},
{
closed = 1;
nodes = (
"245 387 LINE",
"245 417 LINE",
"530 417 LINE",
"530 387 LINE"
);
},
{
closed = 1;
nodes = (
"245 320 LINE",
"245 351 LINE",
"530 351 LINE",
"530 320 LINE"
);
},
{
closed = 1;
nodes = (
"183 0 LINE",
"183 804 LINE",
"214 804 LINE",
"214 0 LINE"
);
},
{
closed = 1;
nodes = (
"116 0 LINE",
"116 804 LINE",
"147 804 LINE",
"147 0 LINE"
);
},
{
closed = 1;
nodes = (
"50 0 LINE",
"50 804 LINE",
"81 804 LINE",
"81 0 LINE"
);
}
);
};
layerId = "4FD84C77-4489-4C97-8440-DB1F4FA6421E";
name = "Jun 26 20, 18:20";
paths = (
{
closed = 1;
nodes = (
"694 0 LINE",
"694 804 LINE",
"725 804 LINE",
"725 0 LINE"
);
},
{
closed = 1;
nodes = (
"627 0 LINE",
"627 804 LINE",
"658 804 LINE",
"658 0 LINE"
);
},
{
closed = 1;
nodes = (
"561 0 LINE",
"561 804 LINE",
"592 804 LINE",
"592 0 LINE"
);
},
{
closed = 1;
nodes = (
"245 453 LINE",
"245 484 LINE",
"530 484 LINE",
"530 453 LINE"
);
},
{
closed = 1;
nodes = (
"245 387 LINE",
"245 417 LINE",
"530 417 LINE",
"530 387 LINE"
);
},
{
closed = 1;
nodes = (
"245 320 LINE",
"245 351 LINE",
"530 351 LINE",
"530 320 LINE"
);
},
{
closed = 1;
nodes = (
"183 0 LINE",
"183 804 LINE",
"214 804 LINE",
"214 0 LINE"
);
},
{
closed = 1;
nodes = (
"116 0 LINE",
"116 804 LINE",
"147 804 LINE",
"147 0 LINE"
);
},
{
closed = 1;
nodes = (
"50 0 LINE",
"50 804 LINE",
"81 804 LINE",
"81 0 LINE"
);
}
);
width = 775;
}
);
rightMetricsKey = "=|";
unicode = 0048;
},
{
glyphname = I;
lastChange = "2021-02-12 03:28:20 +0000";
layers = (
{
anchors = (
{
name = bottom;
position = "{131, 0}";
},
{
name = ogonek;
position = "{236, 10}";
},
{
name = top;
position = "{131, 804}";
},
{
name = top_left;
position = "{64, 804}";
},
{
name = top_right;
position = "{197, 804}";
}
);
background = {
anchors = (
{
name = bottom;
position = "{131, 0}";
},
{
name = ogonek;
position = "{236, 10}";
},
{
name = top;
position = "{131, 804}";
},
{
name = top_left;
position = "{64, 804}";
},
{
name = top_right;
position = "{197, 804}";
}
);
components = (
{
name = _v_stem_uc;
}
);
};
components = (
{
name = _v_stem_uc;
}
);
layerId = master01;
width = 262;
},
{
associatedMasterId = master01;
layerId = "DF4E4878-1DAA-4306-9B79-82DC1B36FBEB";
name = "Jun 26 20, 18:35";
paths = (
{
closed = 1;
nodes = (
"183 0 LINE",
"183 804 LINE",
"214 804 LINE",
"214 0 LINE"
);
},
{
closed = 1;
nodes = (
"116 0 LINE",
"116 804 LINE",
"147 804 LINE",
"147 0 LINE"
);
},
{
closed = 1;
nodes = (
"50 0 LINE",
"50 804 LINE",
"81 804 LINE",
"81 0 LINE"
);
}
);
width = 264;
}
);
leftMetricsKey = H;
rightMetricsKey = H;
unicode = 0049;
},
{
glyphname = J;
lastChange = "2021-02-12 03:28:20 +0000";
layers = (
{
anchors = (
{
name = bottom;
position = "{337, 0}";
},
{
name = top;
position = "{337, 804}";
}
);
background = {
anchors = (
{
name = bottom;
position = "{337, 0}";
},
{
name = top;
position = "{337, 804}";
}
);
components = (
{
alignment = -1;
name = _v_stem_uc;
transform = "{1, 0, 0, 0.61762, 412, 307}";
},
{
alignment = -1;
name = "_U-round-UC";
transform = "{1, 0, 0, 1, 1, 0}";
}
);
};
components = (
{
alignment = -1;
name = _v_stem_uc;
transform = "{1, 0, 0, 0.61762, 412, 307}";
},
{
alignment = -1;
name = "_U-round-UC";
transform = "{1, 0, 0, 1, 1, 0}";
}
);
layerId = master01;
width = 674;
},
{
associatedMasterId = master01;
layerId = "FB2832D6-16B8-4F53-9D72-FEFF0333CE19";
name = "Jun 26 20, 18:52";
paths = (
{
closed = 1;
nodes = (
"492 193 OFFCURVE",
"416 117 OFFCURVE",
"323 117 CURVE SMOOTH",
"229 117 OFFCURVE",
"153 193 OFFCURVE",
"153 286 CURVE",
"184 286 LINE",
"184 210 OFFCURVE",
"246 148 OFFCURVE",
"323 148 CURVE SMOOTH",
"399 148 OFFCURVE",
"461 210 OFFCURVE",
"461 286 CURVE SMOOTH",
"461 804 LINE",
"492 804 LINE",
"492 286 LINE SMOOTH"
);
},
{
closed = 1;
nodes = (
"559 156 OFFCURVE",
"453 50 OFFCURVE",
"323 50 CURVE SMOOTH",
"192 50 OFFCURVE",
"86 156 OFFCURVE",
"86 286 CURVE",
"117 286 LINE",
"117 173 OFFCURVE",
"209 81 OFFCURVE",
"323 81 CURVE SMOOTH",
"436 81 OFFCURVE",
"528 173 OFFCURVE",
"528 286 CURVE SMOOTH",
"528 804 LINE",
"559 804 LINE",
"559 286 LINE SMOOTH"
);
},
{
closed = 1;
nodes = (
"625 119 OFFCURVE",
"490 -16 OFFCURVE",
"323 -16 CURVE SMOOTH",
"155 -16 OFFCURVE",
"20 119 OFFCURVE",
"20 286 CURVE",
"51 286 LINE",
"51 136 OFFCURVE",
"172 15 OFFCURVE",
"323 15 CURVE SMOOTH",
"473 15 OFFCURVE",
"594 136 OFFCURVE",
"594 286 CURVE SMOOTH",
"594 804 LINE",
"625 804 LINE",
"625 286 LINE SMOOTH"
);
}
);
width = 675;
}
);
rightMetricsKey = H;
unicode = 004A;
},
{
glyphname = K;
lastChange = "2021-02-12 03:28:20 +0000";
layers = (
{
anchors = (
{
name = bottom;
position = "{370, 0}";
},
{
name = top;
position = "{370, 804}";
}
);
background = {
anchors = (
{
name = bottom;
position = "{370, 0}";
},
{
name = top;
position = "{370, 804}";
}
);
components = (
{
name = _v_stem_uc;
}
);
paths = (
{
closed = 1;
nodes = (
"560 0 LINE",
"237 418 LINE",
"219 393 LINE",
"522 0 LINE"
);
},
{
closed = 1;
nodes = (
"644 0 LINE",
"278 475 LINE",
"259 449 LINE",
"606 0 LINE"
);
},
{
closed = 1;
nodes = (
"727 0 LINE",
"318 530 LINE",
"299 505 LINE",
"689 0 LINE"
);
},
{
closed = 1;
nodes = (
"553 804 LINE",
"516 804 LINE",
"340 561 LINE",
"359 536 LINE"
);
},
{
closed = 1;
nodes = (
"635 804 LINE",
"598 804 LINE",
"382 507 LINE",
"401 482 LINE"
);
},
{
closed = 1;
nodes = (
"717 804 LINE",
"680 804 LINE",
"424 453 LINE",
"443 428 LINE"
);
}
);
};
components = (
{
name = _v_stem_uc;
}
);
layerId = master01;
paths = (
{
closed = 1;
nodes = (
"727 0 LINE",
"318 530 LINE",
"299 505 LINE",
"689 0 LINE"
);
},
{
closed = 1;
nodes = (
"560 0 LINE",
"237 418 LINE",
"219 393 LINE",
"522 0 LINE"
);
},
{
closed = 1;
nodes = (
"644 0 LINE",
"278 475 LINE",
"259 449 LINE",
"606 0 LINE"
);
},
{
closed = 1;
nodes = (
"553 804 LINE",
"516 804 LINE",
"340 561 LINE",
"359 536 LINE"
);
},
{
closed = 1;
nodes = (
"635 804 LINE",
"598 804 LINE",
"382 507 LINE",
"401 482 LINE"
);
},
{
closed = 1;
nodes = (
"717 804 LINE",
"680 804 LINE",
"424 453 LINE",
"443 428 LINE"
);
}
);
width = 739;
},
{
associatedMasterId = master01;
layerId = "D9B83A9F-2A84-47A9-9A01-90E5CDE97A56";
name = "Jul 17 20, 14:21";
paths = (
{
closed = 1;
nodes = (
"441 422 LINE",
"421 447 LINE",
"678 804 LINE",
"716 804 LINE"
);
},
{
closed = 1;
nodes = (
"399 477 LINE",
"379 502 LINE",
"596 804 LINE",
"634 804 LINE"
);
},
{
closed = 1;
nodes = (
"356 531 LINE",
"337 557 LINE",
"515 804 LINE",
"553 804 LINE"
);
},
{
closed = 1;
nodes = (
"690 0 LINE",
"299 504 LINE",
"318 530 LINE",
"729 0 LINE"
);
},
{
closed = 1;
nodes = (
"606 0 LINE",
"258 448 LINE",
"277 474 LINE",
"645 0 LINE"
);
},
{
closed = 1;
nodes = (
"183 0 LINE",
"183 804 LINE",
"214 804 LINE",
"214 0 LINE"
);
},
{
closed = 1;
nodes = (
"522 0 LINE",
"218 392 LINE",
"237 418 LINE",
"561 0 LINE"
);
},
{
closed = 1;
nodes = (
"116 0 LINE",
"116 804 LINE",
"147 804 LINE",
"147 0 LINE"
);
},
{
closed = 1;
nodes = (
"50 0 LINE",
"50 804 LINE",
"81 804 LINE",
"81 0 LINE"
);
}
);
visible = 1;
width = 739;
}
);
leftMetricsKey = H;
unicode = 004B;
},
{
glyphname = L;
lastChange = "2021-02-12 03:28:20 +0000";
layers = (
{
anchors = (
{
name = bottom;
position = "{302, 0}";
},
{
name = center;
position = "{302, 402}";
},
{
name = top;
position = "{302, 804}";
},
{
name = topright;
position = "{584, 804}";
}
);
background = {
anchors = (
{
name = bottom;
position = "{302, 0}";
},
{
name = center;
position = "{302, 402}";
},
{
name = top;
position = "{302, 804}";
},
{
name = topright;
position = "{584, 804}";
}
);
components = (
{
name = _v_stem_uc;
},
{
alignment = -1;
name = _h_stem_UC;
transform = "{1.2, 0, 0, 1, 248, -321}";
}
);
};
components = (
{
name = _v_stem_uc;
},
{
alignment = -1;
name = _h_stem_UC;
transform = "{1.2, 0, 0, 1, 248, -321}";
}
);
layerId = master01;
width = 604;
},
{
associatedMasterId = master01;
layerId = "B687845B-8CE1-448F-87E3-181ADBF3F05C";
name = "Jul 17 20, 14:30";
paths = (
{
closed = 1;
nodes = (
"183 0 LINE",
"183 804 LINE",
"214 804 LINE",
"214 0 LINE"
);
},
{
closed = 1;
nodes = (
"245 133 LINE",
"245 164 LINE",
"588 164 LINE",
"588 133 LINE"
);
},
{
closed = 1;
nodes = (
"116 0 LINE",
"116 804 LINE",
"147 804 LINE",
"147 0 LINE"
);
},
{
closed = 1;
nodes = (
"245 66 LINE",
"245 97 LINE",
"588 97 LINE",
"588 66 LINE"
);
},
{
closed = 1;
nodes = (
"50 0 LINE",
"50 804 LINE",
"81 804 LINE",
"81 0 LINE"
);
},
{
closed = 1;
nodes = (
"245 0 LINE",
"245 31 LINE",
"588 31 LINE",
"588 0 LINE"
);
}
);
visible = 1;
width = 608;
}
);
leftMetricsKey = H;
unicode = 004C;
},
{
glyphname = M;
lastChange = "2021-02-12 03:28:23 +0000";
layers = (
{
anchors = (
{
name = bottom;
position = "{455, 0}";
},
{
name = top;
position = "{455, 804}";
}
);
background = {
anchors = (
{
name = bottom;
position = "{455, 0}";
},
{
name = top;
position = "{455, 804}";
}
);
components = (
{
name = _v_stem_uc;
},
{
name = _v_stem_uc;
transform = "{1, 0, 0, 1, 647, 0}";
}
);
paths = (
{
closed = 1;
nodes = (
"452 175 LINE",
"470 201 LINE",
"248 518 LINE",
"248 465 LINE"
);
},
{
closed = 1;
nodes = (
"532 291 LINE",
"551 317 LINE",
"248 748 LINE",
"248 697 LINE"
);
},
{
closed = 1;
nodes = (
"492 232 LINE",
"510 259 LINE",
"248 633 LINE",
"248 580 LINE"
);
},
{
closed = 1;
nodes = (
"555 375 LINE",
"573 349 LINE",
"661 474 LINE",
"661 526 LINE"
);
},
{
closed = 1;
nodes = (
"515 433 LINE",
"533 406 LINE",
"661 589 LINE",
"661 641 LINE"
);
},
{
closed = 1;
nodes = (
"474 491 LINE",
"492 464 LINE",
"661 709 LINE",
"661 762 LINE"
);
}
);
};
components = (
{
name = _v_stem_uc;
},
{
name = _v_stem_uc;
transform = "{1, 0, 0, 1, 647, 0}";
}
);
layerId = master01;
paths = (
{
closed = 1;
nodes = (
"551 317 LINE",
"248 748 LINE",
"248 697 LINE",
"532 291 LINE"
);
},
{
closed = 1;
nodes = (
"470 201 LINE",
"248 518 LINE",
"248 465 LINE",
"452 175 LINE"
);
},
{
closed = 1;
nodes = (
"510 259 LINE",
"248 633 LINE",
"248 580 LINE",
"492 232 LINE"
);
},
{
closed = 1;
nodes = (
"661 474 LINE",
"661 526 LINE",
"555 375 LINE",
"573 349 LINE"
);
},
{
closed = 1;
nodes = (
"661 589 LINE",
"661 641 LINE",
"515 433 LINE",
"533 406 LINE"
);
},
{
closed = 1;
nodes = (
"661 709 LINE",
"661 762 LINE",
"474 491 LINE",
"492 464 LINE"
);
}
);
width = 909;
},
{
associatedMasterId = master01;
layerId = "1936FB12-1BB1-4679-8C6D-77124F340685";
name = "Jul 17 20, 14:30";
paths = (
{
closed = 1;
nodes = (
"823 0 LINE",
"823 804 LINE",
"854 804 LINE",
"854 0 LINE"
);
},
{
closed = 1;
nodes = (
"757 0 LINE",
"757 804 LINE",
"788 804 LINE",
"788 0 LINE"
);
},
{
closed = 1;
nodes = (
"490 459 LINE",
"471 486 LINE",
"660 759 LINE",
"660 705 LINE"
);
},
{
closed = 1;
nodes = (
"690 0 LINE",
"690 804 LINE",
"721 804 LINE",
"721 0 LINE"
);
},
{
closed = 1;
nodes = (
"530 400 LINE",
"511 427 LINE",
"660 642 LINE",
"660 588 LINE"
);
},
{
closed = 1;
nodes = (
"570 342 LINE",
"552 369 LINE",
"660 526 LINE",
"660 471 LINE"
);
},
{
closed = 1;
nodes = (
"533 287 LINE",
"245 705 LINE",
"245 759 LINE",
"552 315 LINE"
);
},
{
closed = 1;
nodes = (
"492 229 LINE",
"245 588 LINE",
"245 642 LINE",
"511 256 LINE"
);
},
{
closed = 1;
nodes = (
"452 171 LINE",
"245 471 LINE",
"245 526 LINE",
"471 198 LINE"
);
},
{
closed = 1;
nodes = (
"183 0 LINE",
"183 804 LINE",
"214 804 LINE",
"214 0 LINE"
);
},
{
closed = 1;
nodes = (
"116 0 LINE",
"116 804 LINE",
"147 804 LINE",
"147 0 LINE"
);
},
{
closed = 1;
nodes = (
"50 0 LINE",
"50 804 LINE",
"81 804 LINE",
"81 0 LINE"
);
}
);
visible = 1;
width = 904;
}
);
leftMetricsKey = H;
rightMetricsKey = H;
unicode = 004D;
},
{
glyphname = N;
lastChange = "2021-02-12 03:28:20 +0000";
layers = (
{
anchors = (
{
name = bottom;
position = "{398, 0}";
},
{
name = top;
position = "{398, 804}";
}
);
background = {
anchors = (
{
name = bottom;
position = "{398, 0}";
},
{
name = top;
position = "{398, 804}";
}
);
components = (
{
name = _v_stem_uc;
transform = "{1, 0, 0, 1, 534, 0}";
},
{
name = _v_stem_uc;
}
);
paths = (
{
closed = 1;
nodes = (
"548 330 LINE",
"248 761 LINE",
"248 708 LINE",
"548 277 LINE"
);
},
{
closed = 1;
nodes = (
"548 214 LINE",
"248 645 LINE",
"248 592 LINE",
"548 161 LINE"
);
},
{
closed = 1;
nodes = (
"548 98 LINE",
"248 529 LINE",
"248 476 LINE",
"548 45 LINE"
);
}
);
};
components = (
{
name = _v_stem_uc;
transform = "{1, 0, 0, 1, 534, 0}";
},
{
name = _v_stem_uc;
}
);
layerId = master01;
paths = (
{
closed = 1;
nodes = (
"548 330 LINE",
"248 761 LINE",
"248 708 LINE",
"548 277 LINE"
);
},
{
closed = 1;
nodes = (
"548 98 LINE",
"248 529 LINE",
"248 476 LINE",
"548 45 LINE"
);
},
{
closed = 1;
nodes = (
"548 214 LINE",
"248 645 LINE",
"248 592 LINE",
"548 161 LINE"
);
}
);
width = 796;
},
{
associatedMasterId = master01;
layerId = "D4AC9829-661C-4C96-A108-A443C7A29F53";
name = "Jul 17 20, 14:37";
paths = (
{
closed = 1;
nodes = (
"709 0 LINE",
"709 804 LINE",
"740 804 LINE",
"740 0 LINE"
);
},
{
closed = 1;
nodes = (
"643 0 LINE",
"643 804 LINE",
"673 804 LINE",
"673 0 LINE"
);
},
{
closed = 1;
nodes = (
"576 0 LINE",
"576 804 LINE",
"607 804 LINE",
"607 0 LINE"
);
},
{
closed = 1;
nodes = (
"245 707 LINE",
"245 761 LINE",
"545 330 LINE",
"545 276 LINE"
);
},
{
closed = 1;
nodes = (
"245 591 LINE",
"245 645 LINE",
"545 214 LINE",
"545 160 LINE"
);
},
{
closed = 1;
nodes = (
"245 475 LINE",
"245 529 LINE",
"545 98 LINE",
"545 44 LINE"
);
},
{
closed = 1;
nodes = (
"183 0 LINE",
"183 804 LINE",
"214 804 LINE",
"214 0 LINE"
);
},
{
closed = 1;
nodes = (
"116 0 LINE",
"116 804 LINE",
"147 804 LINE",
"147 0 LINE"
);
},
{
closed = 1;
nodes = (
"50 0 LINE",
"50 804 LINE",
"81 804 LINE",
"81 0 LINE"
);
}
);
width = 790;
}
);
leftMetricsKey = H;
rightMetricsKey = H;
unicode = 004E;
},
{
glyphname = O;
lastChange = "2021-02-12 03:28:20 +0000";
layers = (
{
anchors = (
{
name = bottom;
position = "{447, 0}";
},
{
name = center;
position = "{447, 402}";
},
{
name = ogonek;
position = "{805, 10}";
},
{
name = top;
position = "{447, 804}";
},
{
name = top_left;
position = "{391, 804}";
},
{
name = top_right;
position = "{500, 804}";
}
);
background = {
anchors = (
{
name = bottom;
position = "{447, 0}";
},
{
name = center;
position = "{447, 402}";
},
{
name = ogonek;
position = "{805, 10}";
},
{
name = top;
position = "{447, 804}";
},
{
name = top_left;
position = "{391, 804}";
},
{
name = top_right;
position = "{500, 804}";
}
);
components = (
{
name = _round_UC;
},
{
name = _round_UC;
transform = "{-1, 0, 0, 1, 894, 0}";
}
);
};
components = (
{
name = _round_UC;
},
{
name = _round_UC;
transform = "{-1, 0, 0, 1, 894, 0}";
}
);
layerId = master01;
width = 894;
},
{
associatedMasterId = master01;
layerId = "3B231BCE-283D-477F-9A5D-81FFF4B63033";
name = "Jun 26 20, 18:31";
paths = (
{
closed = 1;
nodes = (
"865 171 OFFCURVE",
"678 -15 OFFCURVE",
"447 -15 CURVE SMOOTH",
"217 -15 OFFCURVE",
"30 171 OFFCURVE",
"30 402 CURVE SMOOTH",
"30 633 OFFCURVE",
"217 819 OFFCURVE",
"447 819 CURVE SMOOTH",
"678 819 OFFCURVE",
"865 633 OFFCURVE",
"865 402 CURVE SMOOTH"
);
},
{
closed = 1;
nodes = (
"834 616 OFFCURVE",
"661 789 OFFCURVE",
"447 789 CURVE SMOOTH",
"234 789 OFFCURVE",
"61 616 OFFCURVE",
"61 402 CURVE SMOOTH",
"61 188 OFFCURVE",
"234 15 OFFCURVE",
"447 15 CURVE SMOOTH",
"661 15 OFFCURVE",
"834 188 OFFCURVE",
"834 402 CURVE SMOOTH"
);
},
{
closed = 1;
nodes = (
"799 208 OFFCURVE",
"641 51 OFFCURVE",
"447 51 CURVE SMOOTH",
"254 51 OFFCURVE",
"96 208 OFFCURVE",
"96 402 CURVE SMOOTH",
"96 596 OFFCURVE",
"254 753 OFFCURVE",
"447 753 CURVE SMOOTH",
"641 753 OFFCURVE",
"799 596 OFFCURVE",
"799 402 CURVE SMOOTH"
);
},
{
closed = 1;
nodes = (
"768 579 OFFCURVE",
"624 722 OFFCURVE",
"447 722 CURVE SMOOTH",
"271 722 OFFCURVE",
"127 579 OFFCURVE",
"127 402 CURVE SMOOTH",
"127 225 OFFCURVE",
"271 82 OFFCURVE",
"447 82 CURVE SMOOTH",
"624 82 OFFCURVE",
"768 225 OFFCURVE",
"768 402 CURVE SMOOTH"
);
},
{
closed = 1;
nodes = (
"732 245 OFFCURVE",
"605 117 OFFCURVE",
"447 117 CURVE SMOOTH",
"290 117 OFFCURVE",
"163 245 OFFCURVE",
"163 402 CURVE SMOOTH",
"163 559 OFFCURVE",
"290 687 OFFCURVE",
"447 687 CURVE SMOOTH",
"605 687 OFFCURVE",
"732 559 OFFCURVE",
"732 402 CURVE SMOOTH"
);
},
{
closed = 1;
nodes = (
"701 542 OFFCURVE",
"588 656 OFFCURVE",
"447 656 CURVE SMOOTH",
"307 656 OFFCURVE",
"194 542 OFFCURVE",
"194 402 CURVE SMOOTH",
"194 262 OFFCURVE",
"307 148 OFFCURVE",
"447 148 CURVE SMOOTH",
"588 148 OFFCURVE",
"701 262 OFFCURVE",
"701 402 CURVE SMOOTH"
);
}
);
width = 895;
}
);
rightMetricsKey = "=|";
unicode = 004F;
},
{
glyphname = P;
lastChange = "2021-02-12 03:28:20 +0000";
layers = (
{
anchors = (
{
name = bottom;
position = "{372, 0}";
},
{
name = top;
position = "{372, 804}";
}
);
background = {
anchors = (
{
name = bottom;
position = "{372, 0}";
},
{
name = top;
position = "{372, 804}";
}
);
components = (
{
name = _v_stem_uc;
},
{
alignment = -1;
name = _P_UC;
transform = "{1, 0, 0, 1, 248, 0}";
}
);
};
components = (
{
name = _v_stem_uc;
},
{
alignment = -1;
name = _P_UC;
transform = "{1, 0, 0, 1, 248, 0}";
}
);
layerId = master01;
width = 743;
},
{
associatedMasterId = master01;
layerId = "F64004B2-C576-4105-9D90-5AFE71CB07C8";
name = "Jun 26 20, 19:07";
paths = (
{
closed = 1;
nodes = (
"715 438 OFFCURVE",
"610 332 OFFCURVE",
"480 332 CURVE SMOOTH",
"245 332 LINE",
"245 363 LINE",
"480 363 LINE SMOOTH",
"593 363 OFFCURVE",
"685 455 OFFCURVE",
"685 568 CURVE SMOOTH",
"685 681 OFFCURVE",
"593 773 OFFCURVE",
"480 773 CURVE SMOOTH",
"245 773 LINE",
"245 804 LINE",
"480 804 LINE SMOOTH",
"610 804 OFFCURVE",
"715 698 OFFCURVE",
"715 568 CURVE SMOOTH"
);
},
{
closed = 1;
nodes = (
"649 475 OFFCURVE",
"573 399 OFFCURVE",
"480 399 CURVE SMOOTH",
"245 399 LINE",
"245 430 LINE",
"480 430 LINE SMOOTH",
"556 430 OFFCURVE",
"618 492 OFFCURVE",
"618 568 CURVE SMOOTH",
"618 645 OFFCURVE",
"556 707 OFFCURVE",
"480 707 CURVE SMOOTH",
"245 707 LINE",
"245 738 LINE",
"480 738 LINE SMOOTH",
"573 738 OFFCURVE",
"649 662 OFFCURVE",
"649 568 CURVE SMOOTH"
);
},
{
closed = 1;
nodes = (
"583 511 OFFCURVE",
"537 465 OFFCURVE",
"480 465 CURVE SMOOTH",
"245 465 LINE",
"245 496 LINE",
"480 496 LINE SMOOTH",
"519 496 OFFCURVE",
"552 528 OFFCURVE",
"552 568 CURVE SMOOTH",
"552 608 OFFCURVE",
"519 640 OFFCURVE",
"480 640 CURVE SMOOTH",
"245 640 LINE",
"245 671 LINE",
"480 671 LINE SMOOTH",
"537 671 OFFCURVE",
"583 625 OFFCURVE",
"583 568 CURVE SMOOTH"
);
},
{
closed = 1;
nodes = (
"183 0 LINE",
"183 804 LINE",
"214 804 LINE",
"214 0 LINE"
);
},
{
closed = 1;
nodes = (
"116 0 LINE",
"116 804 LINE",
"147 804 LINE",
"147 0 LINE"
);
},
{
closed = 1;
nodes = (
"50 0 LINE",
"50 804 LINE",
"81 804 LINE",
"81 0 LINE"
);
}
);
width = 735;
}
);
leftMetricsKey = H;
unicode = 0050;
},
{
glyphname = Q;
lastChange = "2021-02-12 03:28:23 +0000";
layers = (
{
anchors = (
{
name = bottom;
position = "{456, 0}";
},
{
name = top;
position = "{456, 804}";
}
);
background = {
anchors = (
{
name = bottom;
position = "{456, 0}";
},
{
name = top;
position = "{456, 804}";
}
);
components = (
{
name = _round_UC;
},
{
name = _h_stem_UC;
transform = "{0.89803, -0.89803, 0.70711, 0.70711, 284, 14}";
}
);
paths = (
{
closed = 1;
nodes = (
"819 206 LINE",
"848 264 OFFCURVE",
"864 331 OFFCURVE",
"864 402 CURVE SMOOTH",
"864 633 OFFCURVE",
"697 819 OFFCURVE",
"447 819 CURVE",
"447 789 LINE",
"680 789 OFFCURVE",
"833 616 OFFCURVE",
"833 402 CURVE SMOOTH",
"833 340 OFFCURVE",
"820 281 OFFCURVE",
"796 229 CURVE"
);
},
{
closed = 1;
nodes = (
"769 256 LINE",
"788 301 OFFCURVE",
"798 350 OFFCURVE",
"798 402 CURVE SMOOTH",
"798 596 OFFCURVE",
"660 753 OFFCURVE",
"447 753 CURVE",
"447 722 LINE",
"643 722 OFFCURVE",
"767 579 OFFCURVE",
"767 402 CURVE SMOOTH",
"767 359 OFFCURVE",
"760 318 OFFCURVE",
"746 280 CURVE"
);
},
{
closed = 1;
nodes = (
"717 308 LINE",
"726 338 OFFCURVE",
"731 369 OFFCURVE",
"731 402 CURVE SMOOTH",
"731 559 OFFCURVE",
"624 687 OFFCURVE",
"447 687 CURVE",
"447 656 LINE",
"607 656 OFFCURVE",
"700 542 OFFCURVE",
"700 402 CURVE SMOOTH",
"700 378 OFFCURVE",
"697 355 OFFCURVE",
"692 334 CURVE"
);
},
{
closed = 1;
nodes = (
"642 63 LINE",
"587 32 OFFCURVE",
"521 15 OFFCURVE",
"447 15 CURVE",
"447 -15 LINE",
"529 -15 OFFCURVE",
"603 5 OFFCURVE",
"665 41 CURVE"
);
},
{
closed = 1;
nodes = (
"593 113 LINE",
"550 93 OFFCURVE",
"501 82 OFFCURVE",
"447 82 CURVE",
"447 51 LINE",
"511 51 OFFCURVE",
"567 65 OFFCURVE",
"616 90 CURVE"
);
},
{
closed = 1;
nodes = (
"542 164 LINE",
"514 153 OFFCURVE",
"482 148 OFFCURVE",
"447 148 CURVE",
"447 117 LINE",
"491 117 OFFCURVE",
"531 125 OFFCURVE",
"566 140 CURVE"
);
}
);
};
components = (
{
name = _round_UC;
},
{
name = _h_stem_UC;
transform = "{0.89803, -0.89803, 0.70711, 0.70711, 284, 14}";
}
);
layerId = master01;
paths = (
{
closed = 1;
nodes = (
"848 264 OFFCURVE",
"864 331 OFFCURVE",
"864 402 CURVE SMOOTH",
"864 633 OFFCURVE",
"697 819 OFFCURVE",
"447 819 CURVE",
"447 789 LINE",
"680 789 OFFCURVE",
"833 616 OFFCURVE",
"833 402 CURVE SMOOTH",
"833 340 OFFCURVE",
"820 281 OFFCURVE",
"796 229 CURVE",
"819 206 LINE"
);
},
{
closed = 1;
nodes = (
"529 -15 OFFCURVE",
"603 5 OFFCURVE",
"665 41 CURVE",
"642 63 LINE",
"587 32 OFFCURVE",
"521 15 OFFCURVE",
"447 15 CURVE",
"447 -15 LINE"
);
},
{
closed = 1;
nodes = (
"511 51 OFFCURVE",
"567 65 OFFCURVE",
"616 90 CURVE",
"593 113 LINE",
"550 93 OFFCURVE",
"501 82 OFFCURVE",
"447 82 CURVE",
"447 51 LINE"
);
},
{
closed = 1;
nodes = (
"491 117 OFFCURVE",
"531 125 OFFCURVE",
"566 140 CURVE",
"542 164 LINE",
"514 153 OFFCURVE",
"482 148 OFFCURVE",
"447 148 CURVE",
"447 117 LINE"
);
},
{
closed = 1;
nodes = (
"726 338 OFFCURVE",
"731 369 OFFCURVE",
"731 402 CURVE SMOOTH",
"731 559 OFFCURVE",
"624 687 OFFCURVE",
"447 687 CURVE",
"447 656 LINE",
"607 656 OFFCURVE",
"700 542 OFFCURVE",
"700 402 CURVE SMOOTH",
"700 378 OFFCURVE",
"697 355 OFFCURVE",
"692 334 CURVE",
"717 308 LINE"
);
},
{
closed = 1;
nodes = (
"788 301 OFFCURVE",
"798 350 OFFCURVE",
"798 402 CURVE SMOOTH",
"798 596 OFFCURVE",
"660 753 OFFCURVE",
"447 753 CURVE",
"447 722 LINE",
"643 722 OFFCURVE",
"767 579 OFFCURVE",
"767 402 CURVE SMOOTH",
"767 359 OFFCURVE",
"760 318 OFFCURVE",
"746 280 CURVE",
"769 256 LINE"
);
}
);
width = 911;
},
{
associatedMasterId = master01;
layerId = "A1E8D25E-1ECC-433A-BCBE-6343257514E2";
name = "Jun 26 20, 19:00";
paths = (
{
closed = 1;
nodes = (
"847 91 LINE",
"604 334 LINE",
"626 356 LINE",
"868 113 LINE"
);
},
{
closed = 1;
nodes = (
"800 44 LINE",
"557 287 LINE",
"579 309 LINE",
"822 66 LINE"
);
},
{
closed = 1;
nodes = (
"732 369 OFFCURVE",
"726 338 OFFCURVE",
"716 308 CURVE",
"692 333 LINE",
"698 355 OFFCURVE",
"701 378 OFFCURVE",
"701 402 CURVE SMOOTH",
"701 542 OFFCURVE",
"588 656 OFFCURVE",
"447 656 CURVE SMOOTH",
"307 656 OFFCURVE",
"194 542 OFFCURVE",
"194 402 CURVE SMOOTH",
"194 262 OFFCURVE",
"307 148 OFFCURVE",
"447 148 CURVE SMOOTH",
"480 148 OFFCURVE",
"511 154 OFFCURVE",
"540 166 CURVE",
"564 142 LINE",
"528 126 OFFCURVE",
"489 117 OFFCURVE",
"447 117 CURVE SMOOTH",
"290 117 OFFCURVE",
"163 245 OFFCURVE",
"163 402 CURVE SMOOTH",
"163 559 OFFCURVE",
"290 687 OFFCURVE",
"447 687 CURVE SMOOTH",
"605 687 OFFCURVE",
"732 559 OFFCURVE",
"732 402 CURVE SMOOTH"
);
},
{
closed = 1;
nodes = (
"865 332 OFFCURVE",
"848 266 OFFCURVE",
"817 208 CURVE",
"794 231 LINE",
"820 282 OFFCURVE",
"834 340 OFFCURVE",
"834 402 CURVE SMOOTH",
"834 616 OFFCURVE",
"661 789 OFFCURVE",
"447 789 CURVE SMOOTH",
"234 789 OFFCURVE",
"61 616 OFFCURVE",
"61 402 CURVE SMOOTH",
"61 188 OFFCURVE",
"234 15 OFFCURVE",
"447 15 CURVE SMOOTH",
"517 15 OFFCURVE",
"583 34 OFFCURVE",
"640 66 CURVE",
"662 44 LINE",
"599 6 OFFCURVE",
"526 -15 OFFCURVE",
"447 -15 CURVE SMOOTH",
"217 -15 OFFCURVE",
"30 171 OFFCURVE",
"30 402 CURVE SMOOTH",
"30 633 OFFCURVE",
"217 819 OFFCURVE",
"447 819 CURVE SMOOTH",
"678 819 OFFCURVE",
"865 633 OFFCURVE",
"865 402 CURVE SMOOTH"
);
},
{
closed = 1;
nodes = (
"799 350 OFFCURVE",
"787 301 OFFCURVE",
"767 257 CURVE",
"744 281 LINE",
"759 318 OFFCURVE",
"768 359 OFFCURVE",
"768 402 CURVE SMOOTH",
"768 579 OFFCURVE",
"624 722 OFFCURVE",
"447 722 CURVE SMOOTH",
"271 722 OFFCURVE",
"127 579 OFFCURVE",
"127 402 CURVE SMOOTH",
"127 225 OFFCURVE",
"271 82 OFFCURVE",
"447 82 CURVE SMOOTH",
"499 82 OFFCURVE",
"547 94 OFFCURVE",
"590 116 CURVE",
"613 93 LINE",
"564 66 OFFCURVE",
"507 51 OFFCURVE",
"447 51 CURVE SMOOTH",
"254 51 OFFCURVE",
"96 208 OFFCURVE",
"96 402 CURVE SMOOTH",
"96 596 OFFCURVE",
"254 753 OFFCURVE",
"447 753 CURVE SMOOTH",
"641 753 OFFCURVE",
"799 596 OFFCURVE",
"799 402 CURVE SMOOTH"
);
},
{
closed = 1;
nodes = (
"753 -3 LINE",
"510 240 LINE",
"532 262 LINE",
"775 19 LINE"
);
}
);
width = 898;
}
);
leftMetricsKey = O;
rightMetricsKey = O;
unicode = 0051;
},
{
glyphname = R;
lastChange = "2021-02-12 03:28:20 +0000";
layers = (
{
anchors = (
{
name = bottom;
position = "{373, 0}";
},
{
name = top;
position = "{373, 804}";
}
);
background = {
anchors = (
{
name = bottom;
position = "{373, 0}";
},
{
name = top;
position = "{373, 804}";
}
);
components = (
{
name = P;
}
);
paths = (
{
closed = 1;
nodes = (
"564 0 LINE",
"426 301 LINE",
"393 301 LINE",
"531 0 LINE"
);
},
{
closed = 1;
nodes = (
"637 0 LINE",
"498 304 LINE",
"487 302 OFFCURVE",
"476 302 OFFCURVE",
"465 302 CURVE",
"604 0 LINE"
);
},
{
closed = 1;
nodes = (
"710 0 LINE",
"565 316 LINE",
"555 312 OFFCURVE",
"545 310 OFFCURVE",
"536 309 CURVE",
"677 0 LINE"
);
}
);
};
components = (
{
name = P;
}
);
layerId = master01;
paths = (
{
closed = 1;
nodes = (
"710 0 LINE",
"565 316 LINE",
"555 312 OFFCURVE",
"545 310 OFFCURVE",
"536 309 CURVE",
"677 0 LINE"
);
},
{
closed = 1;
nodes = (
"564 0 LINE",
"426 301 LINE",
"393 301 LINE",
"531 0 LINE"
);
},
{
closed = 1;
nodes = (
"637 0 LINE",
"498 304 LINE",
"487 302 OFFCURVE",
"476 302 OFFCURVE",
"465 302 CURVE",
"604 0 LINE"
);
}
);
width = 745;
},
{
associatedMasterId = master01;
background = {
paths = (
{
closed = 1;
nodes = (
"715 438 OFFCURVE",
"610 332 OFFCURVE",
"480 332 CURVE SMOOTH",
"245 332 LINE",
"245 363 LINE",
"480 363 LINE SMOOTH",
"593 363 OFFCURVE",
"685 455 OFFCURVE",
"685 568 CURVE SMOOTH",
"685 681 OFFCURVE",
"593 773 OFFCURVE",
"480 773 CURVE SMOOTH",
"245 773 LINE",
"245 804 LINE",
"480 804 LINE SMOOTH",
"610 804 OFFCURVE",
"715 698 OFFCURVE",
"715 568 CURVE SMOOTH"
);
},
{
closed = 1;
nodes = (
"649 475 OFFCURVE",
"573 399 OFFCURVE",
"480 399 CURVE SMOOTH",
"245 399 LINE",
"245 430 LINE",
"480 430 LINE SMOOTH",
"556 430 OFFCURVE",
"618 492 OFFCURVE",
"618 568 CURVE SMOOTH",
"618 645 OFFCURVE",
"556 707 OFFCURVE",
"480 707 CURVE SMOOTH",
"245 707 LINE",
"245 738 LINE",
"480 738 LINE SMOOTH",
"573 738 OFFCURVE",
"649 662 OFFCURVE",
"649 568 CURVE SMOOTH"
);
},
{
closed = 1;
nodes = (
"583 511 OFFCURVE",
"537 465 OFFCURVE",
"480 465 CURVE SMOOTH",
"245 465 LINE",
"245 496 LINE",
"480 496 LINE SMOOTH",
"519 496 OFFCURVE",
"552 528 OFFCURVE",
"552 568 CURVE SMOOTH",
"552 608 OFFCURVE",
"519 640 OFFCURVE",
"480 640 CURVE SMOOTH",
"245 640 LINE",
"245 671 LINE",
"480 671 LINE SMOOTH",
"537 671 OFFCURVE",
"583 625 OFFCURVE",
"583 568 CURVE SMOOTH"
);
},
{
closed = 1;
nodes = (
"672 0 LINE",
"535 307 LINE",
"545 310 OFFCURVE",
"555 312 OFFCURVE",
"565 316 CURVE",
"706 0 LINE"
);
},
{
closed = 1;
nodes = (
"599 0 LINE",
"465 301 LINE",
"480 301 LINE SMOOTH",
"486 301 OFFCURVE",
"492 302 OFFCURVE",
"498 302 CURVE",
"633 0 LINE"
);
},
{
closed = 1;
nodes = (
"527 0 LINE",
"392 301 LINE",
"426 301 LINE",
"560 0 LINE"
);
},
{
closed = 1;
nodes = (
"183 0 LINE",
"183 804 LINE",
"214 804 LINE",
"214 0 LINE"
);
},
{
closed = 1;
nodes = (
"116 0 LINE",
"116 804 LINE",
"147 804 LINE",
"147 0 LINE"
);
},
{
closed = 1;
nodes = (
"50 0 LINE",
"50 804 LINE",
"81 804 LINE",
"81 0 LINE"
);
}
);
};
layerId = "F16B186B-36F9-4220-8DD5-DDBDC388AD8C";
name = "Jun 26 20, 19:11";
paths = (
{
closed = 1;
nodes = (
"715 438 OFFCURVE",
"610 332 OFFCURVE",
"480 332 CURVE SMOOTH",
"245 332 LINE",
"245 363 LINE",
"480 363 LINE SMOOTH",
"593 363 OFFCURVE",
"685 455 OFFCURVE",
"685 568 CURVE SMOOTH",
"685 681 OFFCURVE",
"593 773 OFFCURVE",
"480 773 CURVE SMOOTH",
"245 773 LINE",
"245 804 LINE",
"480 804 LINE SMOOTH",
"610 804 OFFCURVE",
"715 698 OFFCURVE",
"715 568 CURVE SMOOTH"
);
},
{
closed = 1;
nodes = (
"649 475 OFFCURVE",
"573 399 OFFCURVE",
"480 399 CURVE SMOOTH",
"245 399 LINE",
"245 430 LINE",
"480 430 LINE SMOOTH",
"556 430 OFFCURVE",
"618 492 OFFCURVE",
"618 568 CURVE SMOOTH",
"618 645 OFFCURVE",
"556 707 OFFCURVE",
"480 707 CURVE SMOOTH",
"245 707 LINE",
"245 738 LINE",
"480 738 LINE SMOOTH",
"573 738 OFFCURVE",
"649 662 OFFCURVE",
"649 568 CURVE SMOOTH"
);
},
{
closed = 1;
nodes = (
"583 511 OFFCURVE",
"537 465 OFFCURVE",
"480 465 CURVE SMOOTH",
"245 465 LINE",
"245 496 LINE",
"480 496 LINE SMOOTH",
"519 496 OFFCURVE",
"552 528 OFFCURVE",
"552 568 CURVE SMOOTH",
"552 608 OFFCURVE",
"519 640 OFFCURVE",
"480 640 CURVE SMOOTH",
"245 640 LINE",
"245 671 LINE",
"480 671 LINE SMOOTH",
"537 671 OFFCURVE",
"583 625 OFFCURVE",
"583 568 CURVE SMOOTH"
);
},
{
closed = 1;
nodes = (
"672 0 LINE",
"535 307 LINE",
"545 310 OFFCURVE",
"555 312 OFFCURVE",
"565 316 CURVE",
"706 0 LINE"
);
},
{
closed = 1;
nodes = (
"599 0 LINE",
"465 301 LINE",
"480 301 LINE SMOOTH",
"486 301 OFFCURVE",
"492 302 OFFCURVE",
"498 302 CURVE",
"633 0 LINE"
);
},
{
closed = 1;
nodes = (
"527 0 LINE",
"392 301 LINE",
"426 301 LINE",
"560 0 LINE"
);
},
{
closed = 1;
nodes = (
"183 0 LINE",
"183 804 LINE",
"214 804 LINE",
"214 0 LINE"
);
},
{
closed = 1;
nodes = (
"116 0 LINE",
"116 804 LINE",
"147 804 LINE",
"147 0 LINE"
);
},
{
closed = 1;
nodes = (
"50 0 LINE",
"50 804 LINE",
"81 804 LINE",
"81 0 LINE"
);
}
);
width = 745;
}
);
unicode = 0052;
},
{
glyphname = S;
lastChange = "2021-02-12 03:28:23 +0000";
layers = (
{
anchors = (
{
name = bottom;
position = "{330, 0}";
},
{
name = top;
position = "{330, 804}";
}
);
background = {
anchors = (
{
name = bottom;
position = "{330, 0}";
},
{
name = top;
position = "{330, 804}";
}
);
paths = (
{
closed = 1;
nodes = (
"422 299 OFFCURVE",
"469 274 OFFCURVE",
"469 229 CURVE SMOOTH",
"469 181 OFFCURVE",
"411 147 OFFCURVE",
"327 147 CURVE SMOOTH",
"246 147 OFFCURVE",
"189 180 OFFCURVE",
"189 226 CURVE",
"160 218 LINE",
"165 157 OFFCURVE",
"232 117 OFFCURVE",
"327 117 CURVE SMOOTH",
"431 117 OFFCURVE",
"499 163 OFFCURVE",
"499 231 CURVE SMOOTH",
"499 292 OFFCURVE",
"446 325 OFFCURVE",
"354 350 CURVE SMOOTH",
"292 367 LINE SMOOTH",
"141 408 OFFCURVE",
"64 470 OFFCURVE",
"64 579 CURVE SMOOTH",
"64 700 OFFCURVE",
"176 789 OFFCURVE",
"328 789 CURVE SMOOTH",
"466 789 OFFCURVE",
"571 718 OFFCURVE",
"590 612 CURVE",
"619 620 LINE",
"596 740 OFFCURVE",
"480 819 OFFCURVE",
"328 819 CURVE SMOOTH",
"159 819 OFFCURVE",
"34 718 OFFCURVE",
"34 581 CURVE SMOOTH",
"34 453 OFFCURVE",
"118 387 OFFCURVE",
"284 339 CURVE SMOOTH",
"346 321 LINE SMOOTH"
);
},
{
closed = 1;
nodes = (
"470 355 OFFCURVE",
"535 312 OFFCURVE",
"535 231 CURVE SMOOTH",
"535 142 OFFCURVE",
"451 81 OFFCURVE",
"327 81 CURVE SMOOTH",
"214 81 OFFCURVE",
"135 131 OFFCURVE",
"125 209 CURVE",
"95 201 LINE",
"109 111 OFFCURVE",
"201 51 OFFCURVE",
"327 51 CURVE SMOOTH",
"468 51 OFFCURVE",
"565 125 OFFCURVE",
"565 231 CURVE SMOOTH",
"565 327 OFFCURVE",
"492 379 OFFCURVE",
"368 414 CURVE SMOOTH",
"308 431 LINE SMOOTH",
"192 464 OFFCURVE",
"130 503 OFFCURVE",
"130 579 CURVE SMOOTH",
"130 663 OFFCURVE",
"213 723 OFFCURVE",
"328 723 CURVE SMOOTH",
"436 723 OFFCURVE",
"515 672 OFFCURVE",
"525 595 CURVE",
"555 603 LINE",
"541 693 OFFCURVE",
"450 753 OFFCURVE",
"328 753 CURVE SMOOTH",
"197 753 OFFCURVE",
"100 680 OFFCURVE",
"100 579 CURVE SMOOTH",
"100 488 OFFCURVE",
"172 438 OFFCURVE",
"301 402 CURVE SMOOTH",
"362 385 LINE SMOOTH"
);
},
{
closed = 1;
nodes = (
"519 408 OFFCURVE",
"601 344 OFFCURVE",
"601 231 CURVE SMOOTH",
"601 103 OFFCURVE",
"490 15 OFFCURVE",
"327 15 CURVE SMOOTH",
"183 15 OFFCURVE",
"79 84 OFFCURVE",
"60 192 CURVE",
"31 184 LINE",
"54 63 OFFCURVE",
"171 -15 OFFCURVE",
"327 -15 CURVE SMOOTH",
"506 -15 OFFCURVE",
"631 86 OFFCURVE",
"631 229 CURVE SMOOTH",
"631 359 OFFCURVE",
"543 430 OFFCURVE",
"382 478 CURVE SMOOTH",
"325 495 LINE SMOOTH",
"248 518 OFFCURVE",
"196 539 OFFCURVE",
"196 581 CURVE SMOOTH",
"196 626 OFFCURVE",
"254 657 OFFCURVE",
"328 657 CURVE SMOOTH",
"405 657 OFFCURVE",
"458 624 OFFCURVE",
"461 578 CURVE",
"490 586 LINE",
"482 646 OFFCURVE",
"419 687 OFFCURVE",
"328 687 CURVE SMOOTH",
"235 687 OFFCURVE",
"166 644 OFFCURVE",
"166 579 CURVE SMOOTH",
"166 523 OFFCURVE",
"219 494 OFFCURVE",
"317 466 CURVE SMOOTH",
"376 449 LINE SMOOTH"
);
}
);
};
layerId = master01;
paths = (
{
closed = 1;
nodes = (
"506 -15 OFFCURVE",
"631 86 OFFCURVE",
"631 229 CURVE SMOOTH",
"631 359 OFFCURVE",
"543 430 OFFCURVE",
"382 478 CURVE SMOOTH",
"325 495 LINE SMOOTH",
"248 518 OFFCURVE",
"196 539 OFFCURVE",
"196 581 CURVE SMOOTH",
"196 626 OFFCURVE",
"254 657 OFFCURVE",
"328 657 CURVE SMOOTH",
"405 657 OFFCURVE",
"458 624 OFFCURVE",
"461 578 CURVE",
"490 586 LINE",
"482 646 OFFCURVE",
"419 687 OFFCURVE",
"328 687 CURVE SMOOTH",
"235 687 OFFCURVE",
"166 644 OFFCURVE",
"166 579 CURVE SMOOTH",
"166 523 OFFCURVE",
"219 494 OFFCURVE",
"317 466 CURVE SMOOTH",
"376 449 LINE SMOOTH",
"519 408 OFFCURVE",
"601 344 OFFCURVE",
"601 231 CURVE SMOOTH",
"601 103 OFFCURVE",
"490 15 OFFCURVE",
"327 15 CURVE SMOOTH",
"183 15 OFFCURVE",
"79 84 OFFCURVE",
"60 192 CURVE",
"31 184 LINE",
"54 63 OFFCURVE",
"171 -15 OFFCURVE",
"327 -15 CURVE SMOOTH"
);
},
{
closed = 1;
nodes = (
"468 51 OFFCURVE",
"565 125 OFFCURVE",
"565 231 CURVE SMOOTH",
"565 327 OFFCURVE",
"492 379 OFFCURVE",
"368 414 CURVE SMOOTH",
"308 431 LINE SMOOTH",
"192 464 OFFCURVE",
"130 503 OFFCURVE",
"130 579 CURVE SMOOTH",
"130 663 OFFCURVE",
"213 723 OFFCURVE",
"328 723 CURVE SMOOTH",
"436 723 OFFCURVE",
"515 672 OFFCURVE",
"525 595 CURVE",
"555 603 LINE",
"541 693 OFFCURVE",
"450 753 OFFCURVE",
"328 753 CURVE SMOOTH",
"197 753 OFFCURVE",
"100 680 OFFCURVE",
"100 579 CURVE SMOOTH",
"100 488 OFFCURVE",
"172 438 OFFCURVE",
"301 402 CURVE SMOOTH",
"362 385 LINE SMOOTH",
"470 355 OFFCURVE",
"535 312 OFFCURVE",
"535 231 CURVE SMOOTH",
"535 142 OFFCURVE",
"451 81 OFFCURVE",
"327 81 CURVE SMOOTH",
"214 81 OFFCURVE",
"135 131 OFFCURVE",
"125 209 CURVE",
"95 201 LINE",
"109 111 OFFCURVE",
"201 51 OFFCURVE",
"327 51 CURVE SMOOTH"
);
},
{
closed = 1;
nodes = (
"431 117 OFFCURVE",
"499 163 OFFCURVE",
"499 231 CURVE SMOOTH",
"499 292 OFFCURVE",
"446 325 OFFCURVE",
"354 350 CURVE SMOOTH",
"292 367 LINE SMOOTH",
"141 408 OFFCURVE",
"64 470 OFFCURVE",
"64 579 CURVE SMOOTH",
"64 700 OFFCURVE",
"176 789 OFFCURVE",
"328 789 CURVE SMOOTH",
"466 789 OFFCURVE",
"571 718 OFFCURVE",
"590 612 CURVE",
"619 620 LINE",
"596 740 OFFCURVE",
"480 819 OFFCURVE",
"328 819 CURVE SMOOTH",
"159 819 OFFCURVE",
"34 718 OFFCURVE",
"34 581 CURVE SMOOTH",
"34 453 OFFCURVE",
"118 387 OFFCURVE",
"284 339 CURVE SMOOTH",
"346 321 LINE SMOOTH",
"422 299 OFFCURVE",
"469 274 OFFCURVE",
"469 229 CURVE SMOOTH",
"469 181 OFFCURVE",
"411 147 OFFCURVE",
"327 147 CURVE SMOOTH",
"246 147 OFFCURVE",
"189 180 OFFCURVE",
"189 226 CURVE",
"160 218 LINE",
"165 157 OFFCURVE",
"232 117 OFFCURVE",
"327 117 CURVE SMOOTH"
);
}
);
width = 660;
},
{
associatedMasterId = master01;
layerId = "B9AA28F3-8D1A-4E00-8ECB-FCEB22B0FFFE";
name = "Jul 17 20, 14:42";
paths = (
{
closed = 1;
nodes = (
"590 612 LINE",
"571 719 OFFCURVE",
"464 789 OFFCURVE",
"328 789 CURVE SMOOTH",
"192 789 OFFCURVE",
"63 713 OFFCURVE",
"63 578 CURVE SMOOTH",
"63 420 OFFCURVE",
"242 377 OFFCURVE",
"318 359 CURVE SMOOTH",
"476 321 OFFCURVE",
"498 274 OFFCURVE",
"498 227 CURVE SMOOTH",
"498 167 OFFCURVE",
"429 117 OFFCURVE",
"328 117 CURVE SMOOTH",
"232 117 OFFCURVE",
"165 163 OFFCURVE",
"159 219 CURVE",
"189 227 LINE",
"189 180 OFFCURVE",
"254 148 OFFCURVE",
"328 148 CURVE SMOOTH",
"407 148 OFFCURVE",
"467 185 OFFCURVE",
"467 227 CURVE SMOOTH",
"467 250 OFFCURVE",
"467 292 OFFCURVE",
"311 329 CURVE SMOOTH",
"227 349 OFFCURVE",
"32 392 OFFCURVE",
"32 580 CURVE SMOOTH",
"32 733 OFFCURVE",
"174 820 OFFCURVE",
"328 820 CURVE SMOOTH",
"479 820 OFFCURVE",
"597 741 OFFCURVE",
"620 620 CURVE"
);
},
{
closed = 1;
nodes = (
"564 131 OFFCURVE",
"471 51 OFFCURVE",
"328 51 CURVE SMOOTH",
"210 51 OFFCURVE",
"110 110 OFFCURVE",
"95 202 CURVE",
"124 210 LINE",
"136 132 OFFCURVE",
"224 82 OFFCURVE",
"328 82 CURVE SMOOTH",
"445 82 OFFCURVE",
"533 144 OFFCURVE",
"533 227 CURVE SMOOTH",
"533 311 OFFCURVE",
"471 359 OFFCURVE",
"326 393 CURVE SMOOTH",
"214 420 OFFCURVE",
"99 463 OFFCURVE",
"99 578 CURVE SMOOTH",
"99 680 OFFCURVE",
"195 754 OFFCURVE",
"328 754 CURVE SMOOTH",
"445 754 OFFCURVE",
"540 696 OFFCURVE",
"555 603 CURVE",
"525 595 LINE",
"515 675 OFFCURVE",
"430 723 OFFCURVE",
"328 723 CURVE SMOOTH",
"205 723 OFFCURVE",
"130 658 OFFCURVE",
"130 578 CURVE SMOOTH",
"130 503 OFFCURVE",
"190 458 OFFCURVE",
"333 423 CURVE",
"495 385 OFFCURVE",
"564 328 OFFCURVE",
"564 227 CURVE SMOOTH"
);
},
{
closed = 1;
nodes = (
"630 85 OFFCURVE",
"497 -15 OFFCURVE",
"328 -15 CURVE SMOOTH",
"172 -15 OFFCURVE",
"53 69 OFFCURVE",
"30 185 CURVE",
"60 193 LINE",
"80 90 OFFCURVE",
"187 15 OFFCURVE",
"328 15 CURVE SMOOTH",
"480 15 OFFCURVE",
"600 102 OFFCURVE",
"600 227 CURVE SMOOTH",
"600 381 OFFCURVE",
"452 431 OFFCURVE",
"341 458 CURVE SMOOTH",
"186 495 OFFCURVE",
"165 539 OFFCURVE",
"165 578 CURVE SMOOTH",
"165 639 OFFCURVE",
"229 687 OFFCURVE",
"328 687 CURVE SMOOTH",
"414 687 OFFCURVE",
"485 648 OFFCURVE",
"490 586 CURVE",
"460 578 LINE",
"460 627 OFFCURVE",
"400 657 OFFCURVE",
"328 657 CURVE SMOOTH",
"237 657 OFFCURVE",
"196 617 OFFCURVE",
"196 578 CURVE SMOOTH",
"196 562 OFFCURVE",
"196 525 OFFCURVE",
"348 488 CURVE SMOOTH",
"469 459 OFFCURVE",
"630 403 OFFCURVE",
"630 227 CURVE SMOOTH"
);
}
);
width = 660;
}
);
unicode = 0053;
},
{
glyphname = T;
lastChange = "2021-02-12 03:28:20 +0000";
layers = (
{
anchors = (
{
name = bottom;
position = "{321, 0}";
},
{
name = center;
position = "{321, 402}";
},
{
name = top;
position = "{321, 804}";
}
);
background = {
anchors = (
{
name = bottom;
position = "{321, 0}";
},
{
name = center;
position = "{321, 402}";
},
{
name = top;
position = "{321, 804}";
}
);
components = (
{
alignment = -1;
name = _v_stem_uc;
transform = "{1, 0, 0, 0.75905, 190, 0}";
},
{
alignment = -1;
name = _h_stem_UC;
transform = "{2.18, 0, 0, 1, 10, 321}";
}
);
};
components = (
{
alignment = -1;
name = _v_stem_uc;
transform = "{1, 0, 0, 0.75905, 190, 0}";
},
{
alignment = -1;
name = _h_stem_UC;
transform = "{2.18, 0, 0, 1, 10, 321}";
}
);
guideLines = (
{
angle = 90;
position = "{321, 616}";
}
);
layerId = master01;
width = 641;
},
{
associatedMasterId = master01;
layerId = "33DD22EE-4B71-43CA-841C-2D92FF69F64E";
name = "Jun 26 20, 18:58";
paths = (
{
closed = 1;
nodes = (
"20 773 LINE",
"20 804 LINE",
"642 804 LINE",
"642 773 LINE"
);
},
{
closed = 1;
nodes = (
"20 707 LINE",
"20 738 LINE",
"642 738 LINE",
"642 707 LINE"
);
},
{
closed = 1;
nodes = (
"20 640 LINE",
"20 671 LINE",
"642 671 LINE",
"642 640 LINE"
);
},
{
closed = 1;
nodes = (
"382 0 LINE",
"382 610 LINE",
"413 610 LINE",
"413 0 LINE"
);
},
{
closed = 1;
nodes = (
"316 0 LINE",
"316 610 LINE",
"347 610 LINE",
"347 0 LINE"
);
},
{
closed = 1;
nodes = (
"249 0 LINE",
"249 610 LINE",
"280 610 LINE",
"280 0 LINE"
);
}
);
width = 662;
}
);
rightMetricsKey = "=|";
unicode = 0054;
},
{
glyphname = U;
lastChange = "2021-02-12 03:28:20 +0000";
layers = (
{
anchors = (
{
name = bottom;
position = "{351, 0}";
},
{
name = ogonek;
position = "{632, 10}";
},
{
name = top;
position = "{351, 804}";
},
{
name = top_left;
position = "{282, 803}";
},
{
name = top_right;
position = "{420, 804}";
}
);
background = {
anchors = (
{
name = bottom;
position = "{351, 0}";
},
{
name = ogonek;
position = "{632, 10}";
},
{
name = top;
position = "{351, 804}";
},
{
name = top_left;
position = "{282, 803}";
},
{
name = top_right;
position = "{420, 804}";
}
);
components = (
{
alignment = -1;
name = _v_stem_uc;
transform = "{1, 0, 0, 0.61816, 0, 307}";
},
{
alignment = -1;
name = "_U-round-UC";
transform = "{1, 0, 0, 1, 29, 0}";
},
{
alignment = -1;
name = _v_stem_uc;
transform = "{1, 0, 0, 0.61816, 440, 307}";
}
);
};
components = (
{
alignment = -1;
name = _v_stem_uc;
transform = "{1, 0, 0, 0.61816, 0, 307}";
},
{
alignment = -1;
name = "_U-round-UC";
transform = "{1, 0, 0, 1, 29, 0}";
},
{
alignment = -1;
name = _v_stem_uc;
transform = "{1, 0, 0, 0.61816, 440, 307}";
}
);
layerId = master01;
width = 702;
},
{
associatedMasterId = master01;
background = {
paths = (
{
closed = 1;
nodes = (
"522 193 OFFCURVE",
"446 117 OFFCURVE",
"353 117 CURVE SMOOTH",
"259 117 OFFCURVE",
"183 193 OFFCURVE",
"183 286 CURVE SMOOTH",
"183 804 LINE",
"214 804 LINE",
"214 286 LINE SMOOTH",
"214 210 OFFCURVE",
"276 148 OFFCURVE",
"353 148 CURVE SMOOTH",
"429 148 OFFCURVE",
"491 210 OFFCURVE",
"491 286 CURVE SMOOTH",
"491 804 LINE",
"522 804 LINE",
"522 286 LINE SMOOTH"
);
},
{
closed = 1;
nodes = (
"589 156 OFFCURVE",
"483 50 OFFCURVE",
"353 50 CURVE SMOOTH",
"222 50 OFFCURVE",
"116 156 OFFCURVE",
"116 286 CURVE SMOOTH",
"116 804 LINE",
"147 804 LINE",
"147 286 LINE SMOOTH",
"147 173 OFFCURVE",
"239 81 OFFCURVE",
"353 81 CURVE SMOOTH",
"466 81 OFFCURVE",
"558 173 OFFCURVE",
"558 286 CURVE SMOOTH",
"558 804 LINE",
"589 804 LINE",
"589 286 LINE SMOOTH"
);
},
{
closed = 1;
nodes = (
"655 119 OFFCURVE",
"520 -16 OFFCURVE",
"353 -16 CURVE SMOOTH",
"185 -16 OFFCURVE",
"50 119 OFFCURVE",
"50 286 CURVE SMOOTH",
"50 804 LINE",
"81 804 LINE",
"81 286 LINE SMOOTH",
"81 136 OFFCURVE",
"202 15 OFFCURVE",
"353 15 CURVE SMOOTH",
"503 15 OFFCURVE",
"624 136 OFFCURVE",
"624 286 CURVE SMOOTH",
"624 804 LINE",
"655 804 LINE",
"655 286 LINE SMOOTH"
);
}
);
};
layerId = "DA79CFC6-FB70-4A6C-93DB-0693A48DD125";
name = "Jun 26 20, 18:57";
paths = (
{
closed = 1;
nodes = (
"522 193 OFFCURVE",
"446 117 OFFCURVE",
"353 117 CURVE SMOOTH",
"259 117 OFFCURVE",
"183 193 OFFCURVE",
"183 286 CURVE SMOOTH",
"183 804 LINE",
"214 804 LINE",
"214 286 LINE SMOOTH",
"214 210 OFFCURVE",
"276 148 OFFCURVE",
"353 148 CURVE SMOOTH",
"429 148 OFFCURVE",
"491 210 OFFCURVE",
"491 286 CURVE SMOOTH",
"491 804 LINE",
"522 804 LINE",
"522 286 LINE SMOOTH"
);
},
{
closed = 1;
nodes = (
"589 156 OFFCURVE",
"483 50 OFFCURVE",
"353 50 CURVE SMOOTH",
"222 50 OFFCURVE",
"116 156 OFFCURVE",
"116 286 CURVE SMOOTH",
"116 804 LINE",
"147 804 LINE",
"147 286 LINE SMOOTH",
"147 173 OFFCURVE",
"239 81 OFFCURVE",
"353 81 CURVE SMOOTH",
"466 81 OFFCURVE",
"558 173 OFFCURVE",
"558 286 CURVE SMOOTH",
"558 804 LINE",
"589 804 LINE",
"589 286 LINE SMOOTH"
);
},
{
closed = 1;
nodes = (
"655 119 OFFCURVE",
"520 -16 OFFCURVE",
"353 -16 CURVE SMOOTH",
"185 -16 OFFCURVE",
"50 119 OFFCURVE",
"50 286 CURVE SMOOTH",
"50 804 LINE",
"81 804 LINE",
"81 286 LINE SMOOTH",
"81 136 OFFCURVE",
"202 15 OFFCURVE",
"353 15 CURVE SMOOTH",
"503 15 OFFCURVE",
"624 136 OFFCURVE",
"624 286 CURVE SMOOTH",
"624 804 LINE",
"655 804 LINE",
"655 286 LINE SMOOTH"
);
}
);
width = 705;
}
);
leftMetricsKey = H;
rightMetricsKey = H;
unicode = 0055;
},
{
glyphname = V;
lastChange = "2021-02-12 03:28:23 +0000";
layers = (
{
anchors = (
{
name = bottom;
position = "{379, 0}";
},
{
name = top;
position = "{379, 804}";
}
);
background = {
anchors = (
{
name = bottom;
position = "{379, 0}";
},
{
name = top;
position = "{379, 804}";
}
);
paths = (
{
closed = 1;
nodes = (
"706 804 LINE",
"469 95 LINE",
"485 49 LINE",
"738 804 LINE"
);
},
{
closed = 1;
nodes = (
"636 804 LINE",
"434 200 LINE",
"450 151 LINE",
"668 804 LINE"
);
},
{
closed = 1;
nodes = (
"566 804 LINE",
"399 303 LINE",
"415 256 LINE",
"598 804 LINE"
);
},
{
closed = 1;
nodes = (
"192 804 LINE",
"160 804 LINE",
"431 0 LINE",
"463 0 LINE"
);
},
{
closed = 1;
nodes = (
"122 804 LINE",
"90 804 LINE",
"361 0 LINE",
"393 0 LINE"
);
},
{
closed = 1;
nodes = (
"52 804 LINE",
"20 804 LINE",
"291 0 LINE",
"323 0 LINE"
);
}
);
};
layerId = master01;
paths = (
{
closed = 1;
nodes = (
"463 0 LINE",
"192 804 LINE",
"160 804 LINE",
"431 0 LINE"
);
},
{
closed = 1;
nodes = (
"323 0 LINE",
"52 804 LINE",
"20 804 LINE",
"291 0 LINE"
);
},
{
closed = 1;
nodes = (
"393 0 LINE",
"122 804 LINE",
"90 804 LINE",
"361 0 LINE"
);
},
{
closed = 1;
nodes = (
"668 804 LINE",
"636 804 LINE",
"434 200 LINE",
"450 151 LINE"
);
},
{
closed = 1;
nodes = (
"598 804 LINE",
"566 804 LINE",
"399 303 LINE",
"415 256 LINE"
);
},
{
closed = 1;
nodes = (
"738 804 LINE",
"706 804 LINE",
"469 95 LINE",
"485 49 LINE"
);
}
);
width = 758;
},
{
associatedMasterId = master01;
background = {
paths = (
{
closed = 1;
nodes = (
"397 267 LINE",
"381 317 LINE",
"538 804 LINE",
"570 804 LINE"
);
},
{
closed = 1;
nodes = (
"432 158 LINE",
"416 208 LINE",
"608 804 LINE",
"640 804 LINE"
);
},
{
closed = 1;
nodes = (
"467 49 LINE",
"451 99 LINE",
"678 804 LINE",
"710 804 LINE"
);
},
{
closed = 1;
nodes = (
"418 0 LINE",
"160 804 LINE",
"192 804 LINE",
"451 0 LINE"
);
},
{
closed = 1;
nodes = (
"349 0 LINE",
"90 804 LINE",
"122 804 LINE",
"381 0 LINE"
);
},
{
closed = 1;
nodes = (
"279 0 LINE",
"20 804 LINE",
"52 804 LINE",
"311 0 LINE"
);
}
);
};
layerId = "D36E4209-8969-4509-AE1C-2B119713FD0E";
name = "Jun 26 20, 18:46";
paths = (
{
closed = 1;
nodes = (
"397 267 LINE",
"381 317 LINE",
"538 804 LINE",
"570 804 LINE"
);
},
{
closed = 1;
nodes = (
"432 158 LINE",
"416 208 LINE",
"608 804 LINE",
"640 804 LINE"
);
},
{
closed = 1;
nodes = (
"467 49 LINE",
"451 99 LINE",
"678 804 LINE",
"710 804 LINE"
);
},
{
closed = 1;
nodes = (
"418 0 LINE",
"160 804 LINE",
"192 804 LINE",
"451 0 LINE"
);
},
{
closed = 1;
nodes = (
"349 0 LINE",
"90 804 LINE",
"122 804 LINE",
"381 0 LINE"
);
},
{
closed = 1;
nodes = (
"279 0 LINE",
"20 804 LINE",
"52 804 LINE",
"311 0 LINE"
);
}
);
width = 730;
}
);
leftMetricsKey = "=A";
rightMetricsKey = "=A";
unicode = 0056;
},
{
glyphname = W;
lastChange = "2021-02-12 03:28:23 +0000";
layers = (
{
anchors = (
{
name = bottom;
position = "{486, 0}";
},
{
name = top;
position = "{486, 804}";
}
);
background = {
anchors = (
{
name = bottom;
position = "{486, 0}";
},
{
name = top;
position = "{486, 804}";
}
);
paths = (
{
closed = 1;
nodes = (
"785 804 LINE",
"686 410 LINE",
"701 348 LINE",
"816 804 LINE"
);
},
{
closed = 1;
nodes = (
"853 804 LINE",
"721 274 LINE",
"736 212 LINE",
"884 804 LINE"
);
},
{
closed = 1;
nodes = (
"921 804 LINE",
"754 138 LINE",
"769 76 LINE",
"952 804 LINE"
);
},
{
closed = 1;
nodes = (
"589 646 LINE",
"573 583 LINE",
"720 0 LINE",
"751 0 LINE"
);
},
{
closed = 1;
nodes = (
"424 804 LINE",
"325 407 LINE",
"339 344 LINE",
"455 804 LINE"
);
},
{
closed = 1;
nodes = (
"492 804 LINE",
"358 269 LINE",
"373 208 LINE",
"523 804 LINE"
);
},
{
closed = 1;
nodes = (
"560 804 LINE",
"392 137 LINE",
"408 74 LINE",
"591 804 LINE"
);
},
{
closed = 1;
nodes = (
"555 512 LINE",
"540 451 LINE",
"653 0 LINE",
"684 0 LINE"
);
},
{
closed = 1;
nodes = (
"521 379 LINE",
"505 316 LINE",
"585 0 LINE",
"616 0 LINE"
);
},
{
closed = 1;
nodes = (
"187 804 LINE",
"156 804 LINE",
"358 0 LINE",
"389 0 LINE"
);
},
{
closed = 1;
nodes = (
"119 804 LINE",
"88 804 LINE",
"290 0 LINE",
"321 0 LINE"
);
},
{
closed = 1;
nodes = (
"51 804 LINE",
"20 804 LINE",
"222 0 LINE",
"253 0 LINE"
);
}
);
};
layerId = master01;
paths = (
{
closed = 1;
nodes = (
"389 0 LINE",
"187 804 LINE",
"156 804 LINE",
"358 0 LINE"
);
},
{
closed = 1;
nodes = (
"253 0 LINE",
"51 804 LINE",
"20 804 LINE",
"222 0 LINE"
);
},
{
closed = 1;
nodes = (
"321 0 LINE",
"119 804 LINE",
"88 804 LINE",
"290 0 LINE"
);
},
{
closed = 1;
nodes = (
"616 0 LINE",
"521 379 LINE",
"505 316 LINE",
"585 0 LINE"
);
},
{
closed = 1;
nodes = (
"684 0 LINE",
"555 512 LINE",
"540 451 LINE",
"653 0 LINE"
);
},
{
closed = 1;
nodes = (
"591 804 LINE",
"560 804 LINE",
"392 137 LINE",
"408 74 LINE"
);
},
{
closed = 1;
nodes = (
"523 804 LINE",
"492 804 LINE",
"358 269 LINE",
"373 208 LINE"
);
},
{
closed = 1;
nodes = (
"455 804 LINE",
"424 804 LINE",
"325 407 LINE",
"339 344 LINE"
);
},
{
closed = 1;
nodes = (
"751 0 LINE",
"589 646 LINE",
"573 583 LINE",
"720 0 LINE"
);
},
{
closed = 1;
nodes = (
"952 804 LINE",
"921 804 LINE",
"754 138 LINE",
"769 76 LINE"
);
},
{
closed = 1;
nodes = (
"884 804 LINE",
"853 804 LINE",
"721 274 LINE",
"736 212 LINE"
);
},
{
closed = 1;
nodes = (
"816 804 LINE",
"785 804 LINE",
"686 410 LINE",
"701 348 LINE"
);
}
);
width = 972;
},
{
associatedMasterId = master01;
layerId = "867D3BFC-3163-4444-8BD5-EADBEBD15017";
name = "Jul 17 20, 14:56";
paths = (
{
closed = 1;
nodes = (
"698 338 LINE",
"682 401 LINE",
"783 804 LINE",
"815 804 LINE"
);
},
{
closed = 1;
nodes = (
"732 202 LINE",
"717 265 LINE",
"852 804 LINE",
"884 804 LINE"
);
},
{
closed = 1;
nodes = (
"767 66 LINE",
"751 129 LINE",
"920 804 LINE",
"952 804 LINE"
);
},
{
closed = 1;
nodes = (
"720 0 LINE",
"570 594 LINE",
"586 657 LINE",
"751 0 LINE"
);
},
{
closed = 1;
nodes = (
"337 338 LINE",
"322 401 LINE",
"423 804 LINE",
"454 804 LINE"
);
},
{
closed = 1;
nodes = (
"372 202 LINE",
"356 265 LINE",
"491 804 LINE",
"523 804 LINE"
);
},
{
closed = 1;
nodes = (
"406 66 LINE",
"390 129 LINE",
"560 804 LINE",
"591 804 LINE"
);
},
{
closed = 1;
nodes = (
"651 0 LINE",
"536 458 LINE",
"552 521 LINE",
"683 0 LINE"
);
},
{
closed = 1;
nodes = (
"583 0 LINE",
"502 321 LINE",
"518 384 LINE",
"614 0 LINE"
);
},
{
closed = 1;
nodes = (
"359 0 LINE",
"157 804 LINE",
"189 804 LINE",
"391 0 LINE"
);
},
{
closed = 1;
nodes = (
"290 0 LINE",
"88 804 LINE",
"120 804 LINE",
"322 0 LINE"
);
},
{
closed = 1;
nodes = (
"222 0 LINE",
"20 804 LINE",
"52 804 LINE",
"254 0 LINE"
);
}
);
width = 972;
}
);
leftMetricsKey = V;
rightMetricsKey = V;
unicode = 0057;
},
